<?xml version="1.0" standalone="no"?>
<!DOCTYPE svg PUBLIC "-//W3C//DTD SVG 1.1//EN" "http://www.w3.org/Graphics/SVG/1.1/DTD/svg11.dtd" >
<svg>
<metadata>
Created by FontForge 20090914 at Thu Jun 30 11:00:01 2016
 By www-data
Copyright 2015 Samsung Electronics Co., Ltd. All Rights Reserved.
</metadata>
<defs>
<font id="SamsungOneLatin-800" horiz-adv-x="0" >
  <font-face 
    font-family="SamsungOneLatin 800"
    font-weight="800"
    font-stretch="normal"
    units-per-em="1024"
    panose-1="2 11 9 3 3 3 3 2 2 4"
    ascent="794"
    descent="-230"
    x-height="546"
    cap-height="724"
    bbox="-698 -304.001 2478 1047"
    underline-thickness="41"
    underline-position="-103"
    unicode-range="U+0002-U+1F16B"
  />
<missing-glyph horiz-adv-x="694" 
d="M616 0h-113h-363h-62v724h113h425v-724zM503 622h-264l264 -435v435zM191 102h264l-264 435v-435z" />
    <glyph glyph-name="fi" unicode="fi" horiz-adv-x="656" 
d="M88 429h-83.001v117h84v41c0 63.333 19.167 112.5 57.5 147.5s92.833 52.5 163.5 52.5c22.667 0 43 -1.66699 61 -5v-118c-19.333 2.66699 -39.666 4 -60.999 4c-57.333 0 -86 -27 -86 -81v-41h128v-117h-128v-429h-136v429zM445.999 546h136v-546h-136v546z
M454.499 637.5c-14.333 13.667 -21.5 32.5 -21.5 56.5c0 24.667 7.16699 43.834 21.5 57.501s34.166 20.5 59.499 20.5s45.166 -6.83301 59.499 -20.5s21.5 -32.5 21.5 -56.5c0 -24.667 -7.16699 -43.834 -21.5 -57.501s-34.166 -20.5 -59.499 -20.5
s-45.166 6.83301 -59.499 20.5z" />
    <glyph glyph-name="fl" unicode="fl" horiz-adv-x="698" 
d="M88 429h-83.001v117h84v41c0 63.333 19.167 112.5 57.5 147.5s92.833 52.5 163.5 52.5c22.667 0 43 -1.66699 61 -5v-118c-19.333 2.66699 -39.666 4 -60.999 4c-57.333 0 -86 -27 -86 -81v-41h128v-117h-128v-429h-136v429zM478.499 29
c-24.333 24 -36.501 60.667 -36.501 110v631h136v-601c0 -19.333 3.66699 -33.333 11 -42s19.666 -13 36.999 -13c10.667 0 22.334 1 35.001 3l9 -115c-26 -6 -53 -9 -81 -9c-49.333 0 -86.166 12 -110.499 36z" />
    <glyph glyph-name=".notdef" horiz-adv-x="694" 
d="M616 0h-113h-363h-62v724h113h425v-724zM503 622h-264l264 -435v435zM191 102h264l-264 435v-435z" />
    <glyph glyph-name="uni0000" 
 />
    <glyph glyph-name="uni0002" 
 />
    <glyph glyph-name="uni0008" horiz-adv-x="260" 
 />
    <glyph glyph-name="uni0009" unicode="&#x9;" horiz-adv-x="512" 
 />
    <glyph glyph-name="nonmarkingreturn" unicode="&#xd;" 
 />
    <glyph glyph-name="uni001D" horiz-adv-x="204" 
 />
    <glyph glyph-name="space" unicode=" " horiz-adv-x="204" 
 />
    <glyph glyph-name="exclam" unicode="!" horiz-adv-x="364" 
d="M107 724h150l-21 -505h-108zM120.5 8.5c-15 14.333 -22.5 33.832 -22.5 58.499c0 25.333 7.33301 45 22 59s35.334 21 62.001 21c26 0 46.5 -7.16699 61.5 -21.5s22.5 -33.5 22.5 -57.5c0 -25.333 -7.33301 -45.166 -22 -59.499s-35.334 -21.5 -62.001 -21.5
c-26 0 -46.5 7.16699 -61.5 21.5z" />
    <glyph glyph-name="quotedbl" unicode="&#x22;" horiz-adv-x="410" 
d="M227 724h127l-21 -271h-85zM56 724h127l-21 -271h-85z" />
    <glyph glyph-name="numbersign" unicode="#" horiz-adv-x="705" 
d="M538 448l-29 -172h130v-97h-146l-30 -179h-109l30 179h-123l-30 -179h-108l30 179h-132v97h148l29 172h-134v97h150l30 179h109l-30 -179h123l30 179h108l-30 -179h130v-97h-146zM429 448h-123l-28 -172h123z" />
    <glyph glyph-name="dollar" unicode="$" horiz-adv-x="558" 
d="M464.5 78c-33 -36.667 -80.168 -59.3311 -141.501 -67.998v-95h-90v92c-36.667 2.66699 -72.167 9.16699 -106.5 19.5s-65.166 24.166 -92.499 41.499l42 104c53.333 -29.333 106.333 -46 159 -50l1 186l-25 7c-59.333 16.667 -102.166 40.167 -128.499 70.5
s-39.5 71.166 -39.5 122.499c0 59.333 16.5 106.833 49.5 142.5s79.833 57.167 140.5 64.5v94h90v-93c60 -6 117.667 -20.667 173 -44l-43 -104c-51.333 17.333 -95.333 28 -132 32l-1 -176l26 -7c59.333 -16.667 102.166 -40.167 128.499 -70.5s39.5 -71.833 39.5 -124.5
c0 -59.333 -16.5 -107.333 -49.5 -144zM185.999 481.003c10 -12.667 26.667 -23.332 50 -31.999l-1 151c-22 -3.33301 -38.167 -10.833 -48.5 -22.5s-15.5 -27.834 -15.5 -48.501c0 -19.333 5 -35.333 15 -48zM370.499 151.005c10.333 12 15.5 28.665 15.5 49.998
c0 20.667 -5 37.334 -15 50.001s-27 23.334 -51 32.001l1 -157c22.667 4.66699 39.167 13 49.5 25z" />
    <glyph glyph-name="percent" unicode="%" horiz-adv-x="954" 
d="M47 513c0 149.333 56.333 224 169 224s169 -74.667 169 -224s-56.333 -224 -169 -224s-169 74.667 -169 224zM592 724h111l-341 -724h-111zM259.5 413c9 20.667 13.5 54 13.5 100s-4.5 79.333 -13.5 100s-23.5 31 -43.5 31s-34.5 -10.333 -43.5 -31s-13.5 -54 -13.5 -100
s4.5 -79.333 13.5 -100s23.5 -31 43.5 -31s34.5 10.333 43.5 31zM569 211c0 149.333 56.333 224 169 224s169 -74.667 169 -224s-56.333 -224 -169 -224s-169 74.667 -169 224zM781.5 111c9 20.667 13.5 54 13.5 100s-4.5 79.333 -13.5 100s-23.5 31 -43.5 31
s-34.5 -10.333 -43.5 -31s-13.5 -54 -13.5 -100s4.5 -79.333 13.5 -100s23.5 -31 43.5 -31s34.5 10.333 43.5 31z" />
    <glyph glyph-name="ampersand" unicode="&#x26;" horiz-adv-x="668" 
d="M551 -18l-75.999 83.001c-26 -26.667 -55.833 -46.334 -89.5 -59.001s-72.167 -19 -115.5 -19c-70.667 0 -125.334 15.833 -164.001 47.5s-58 76.5 -58 134.5c0 35.333 7.66699 66.666 23 93.999s40.333 54 75 80l45 34l-30 32c-22.667 26 -38.834 50.333 -48.501 73
s-14.5 48 -14.5 76c0 58 17.833 102.333 53.5 133s86.834 46 153.501 46c64 0 113.667 -14.333 149 -43s53 -69.334 53 -122.001c0 -33.333 -8.33301 -63.166 -25 -89.499s-45.667 -55.166 -87 -86.499l-31 -23l98 -108l50 113h129l-84 -186
c-4 -9.33301 -7.33301 -16.333 -10 -21l98 -107zM323.001 477.001c23.333 18 38.999 32.498 46.999 43.498s12 23.833 12 38.5c0 21.333 -6.16699 37 -18.5 47s-31.5 15 -57.5 15c-25.333 0 -44.166 -5.16699 -56.499 -15.5s-18.5 -26.166 -18.5 -47.499
c0 -15.333 4 -30.166 12 -44.499s24 -34.5 48 -60.5zM396 150.999l-132 145l-28 -21c-17.333 -13.333 -29.666 -26.5 -36.999 -39.5s-11 -28.167 -11 -45.5c0 -53.333 33 -80 99 -80c45.333 0 81.666 13.667 108.999 41z" />
    <glyph glyph-name="quotesingle" unicode="'" horiz-adv-x="239" 
d="M56 724h127l-21 -271h-85z" />
    <glyph glyph-name="parenleft" unicode="(" horiz-adv-x="336" 
d="M44 341c0 171.333 56.667 330.667 170 478l92 -69c-88 -116.667 -132 -252.667 -132 -408c0 -154.667 44 -290.667 132 -408l-92 -69c-113.333 147.333 -170 306 -170 476z" />
    <glyph glyph-name="parenright" unicode=")" horiz-adv-x="336" 
d="M30 -66c88 117.333 132 253.332 132 407.999c0 155.333 -44 291.333 -132 408l92 69c113.333 -147.333 170 -306.666 170 -477.999c0 -170 -56.667 -328.667 -170 -476z" />
    <glyph glyph-name="asterisk" unicode="*" horiz-adv-x="540" 
d="M344 480l98 -120l-89 -71l-83 131l-83 -131l-89 71l98 120l-148 38l36 108l140 -56l-11 154h114l-11 -154l140 56l36 -108z" />
    <glyph glyph-name="plus" unicode="+" horiz-adv-x="579" 
d="M539 309h-188v-206h-123v206h-188v119h188v206h123v-206h188v-119z" />
    <glyph glyph-name="comma" unicode="," horiz-adv-x="250" 
d="M-2 -128c26 28 44.332 55.501 54.999 82.501s16 59.833 16 98.5c0 24.667 -2 51 -6 79h132c4 -26 6 -51.667 6 -77c0 -48 -11.667 -91.333 -35 -130s-60.666 -76.334 -111.999 -113.001z" />
    <glyph glyph-name="hyphen" unicode="-" horiz-adv-x="413" 
d="M39 354h335v-105h-335v105z" />
    <glyph glyph-name="period" unicode="." horiz-adv-x="266" 
d="M71.5 8.5c-15 14.333 -22.5 33.832 -22.5 58.499c0 25.333 7.33301 45 22 59s35.334 21 62.001 21c26 0 46.5 -7.16699 61.5 -21.5s22.5 -33.5 22.5 -57.5c0 -25.333 -7.33301 -45.166 -22 -59.499s-35.334 -21.5 -62.001 -21.5c-26 0 -46.5 7.16699 -61.5 21.5z" />
    <glyph glyph-name="slash" unicode="/" horiz-adv-x="457" 
d="M338 749h112l-325 -835h-112z" />
    <glyph glyph-name="zero" unicode="0" horiz-adv-x="628" 
d="M121 77.5c-42.667 60.333 -64.001 155.166 -64.001 284.499c0 130 21.167 225 63.5 285s106.5 90 192.5 90c86.667 0 151.334 -30 194.001 -90s64 -155 64 -285c0 -129.333 -21.333 -224.166 -64 -284.499s-107 -90.5 -193 -90.5s-150.333 30.167 -193 90.5zM402.999 169
c18.667 40 27.998 104.333 27.998 193s-9.33301 153 -28 193s-48.667 60 -90 60c-40.667 0 -70.167 -20 -88.5 -60s-27.5 -104.333 -27.5 -193s9.33301 -153 28 -193s48.334 -60 89.001 -60s70.334 20 89.001 60z" />
    <glyph glyph-name="one" unicode="1" horiz-adv-x="467" 
d="M352 724v-724h-137v585l-154 -53l-39 111l211 81h119z" />
    <glyph glyph-name="two" unicode="2" horiz-adv-x="537" 
d="M490 119l-0.000976562 -119.001h-462v120l238 268c31.333 35.333 52.833 62.833 64.5 82.5s17.5 38.5 17.5 56.5c0 26.667 -9 47.5 -27 62.5s-43.333 22.5 -76 22.5c-26.667 0 -54.167 -4.66699 -82.5 -14s-55.5 -22.333 -81.5 -39l-61 103
c30 22.667 66.667 40.834 110 54.501s86 20.5 128 20.5c45.333 0 85.333 -8.33301 120 -25s61.334 -40.167 80.001 -70.5s28 -65.5 28 -105.5c0 -35.333 -9 -70 -27 -104s-48.667 -74.667 -92 -122l-175 -191h298z" />
    <glyph glyph-name="three" unicode="3" horiz-adv-x="566" 
d="M462.5 377.5c32.333 -39.667 48.5 -88.832 48.5 -147.499c0 -48 -10.833 -90.5 -32.5 -127.5s-52.334 -65.5 -92.001 -85.5s-85.834 -30 -138.501 -30c-42.667 0 -84.667 6.16699 -126 18.5s-75.333 28.833 -102 49.5l50 110c30.667 -16.667 61.334 -29.5 92.001 -38.5
s59.334 -13.5 86.001 -13.5c38.667 0 68.834 10.167 90.501 30.5s32.5 49.166 32.5 86.499c0 35.333 -10.167 63 -30.5 83s-48.5 30 -84.5 30c-18.667 0 -39.667 -2.66699 -63 -8l-53 69l198 201h-299v119h448v-119l-156 -153c55.333 -10 99.166 -34.833 131.499 -74.5z" />
    <glyph glyph-name="four" unicode="4" horiz-adv-x="585" 
d="M548 253v-117h-85v-136h-133v136h-313v117l254 471h192v-471h85zM330 253v347l-173 -347h173z" />
    <glyph glyph-name="five" unicode="5" horiz-adv-x="558" 
d="M395.5 443c35.667 -19.333 63.167 -46.832 82.5 -82.499s29 -76.834 29 -123.501c0 -50 -11 -93.833 -33 -131.5s-53 -66.834 -93 -87.501s-86.333 -31 -139 -31c-40.667 0 -80.5 5.83301 -119.5 17.5s-70.833 27.167 -95.5 46.5l50 109
c28 -15.333 56.5 -27.166 85.5 -35.499s55.5 -12.5 79.5 -12.5c39.333 0 70 10.833 92 32.5s33 51.5 33 89.5c0 36.667 -10 65 -30 85s-47.667 30 -83 30s-72 -8.66699 -110 -26l-83 45l18 356h394v-119h-272l-12 -144c26 7.33301 53.333 11 82 11
c47.333 0 88.833 -9.66699 124.5 -29z" />
    <glyph glyph-name="six" unicode="6" horiz-adv-x="571" 
d="M436 438c32.667 -19.333 57.832 -46.502 75.499 -81.502s26.5 -75.833 26.5 -122.5c0 -49.333 -10.167 -92.666 -30.5 -129.999s-49 -66.166 -86 -86.499s-80.167 -30.5 -129.5 -30.5c-50 0 -94 10.5 -132 31.5s-67.333 50.667 -88 89s-31 82.833 -31 133.5
c0 59.333 10.5 114 31.5 164s58.167 105.667 111.5 167l143 165l107 -83l-146 -157l-34 -38c23.333 5.33301 46.333 8 69 8c42.667 0 80.334 -9.66699 113.001 -29zM371.498 138.998c19 22 28.5 52.668 28.5 92.001c0 40.667 -10.167 72.167 -30.5 94.5
s-48.833 33.5 -85.5 33.5c-26 0 -54 -5.66699 -84 -17c-6.66699 -13.333 -12 -29 -16 -47s-6 -36 -6 -54c0 -42.667 10 -75.834 30 -99.501s48 -35.5 84 -35.5c34 0 60.5 11 79.5 33zM163.998 325.999l5 3z" />
    <glyph glyph-name="seven" unicode="7" horiz-adv-x="499" 
d="M476 724v-119l-277 -615l-129 53l262 562h-325v119h469z" />
    <glyph glyph-name="eight" unicode="8" horiz-adv-x="591" 
d="M161.5 12.5c-38.333 17 -67.998 41.167 -88.998 72.5s-31.5 67.333 -31.5 108c0 39.333 13.167 75.833 39.5 109.5s61.166 58.5 104.499 74.5c-36 12.667 -64.833 34.667 -86.5 66s-32.5 65.666 -32.5 102.999c0 38 9.5 71.5 28.5 100.5s45.667 51.333 80 67
s74.5 23.5 120.5 23.5s86.333 -7.83301 121 -23.5s61.5 -38 80.5 -67s28.5 -62.5 28.5 -100.5c0 -37.333 -11 -71.166 -33 -101.499s-51.333 -51.833 -88 -64.5c44 -13.333 79.333 -37 106 -71s40 -72.667 40 -116c0 -40.667 -10.5 -76.667 -31.5 -108
s-50.833 -55.5 -89.5 -72.5s-83.334 -25.5 -134.001 -25.5s-95.167 8.5 -133.5 25.5zM366.502 470.5c15.667 18.333 23.498 39.168 23.498 62.501c0 28 -8.33301 50 -25 66s-40 24 -70 24c-29.333 0 -52.333 -8 -69 -24s-25 -38 -25 -66
c0 -22.667 8.83301 -43.167 26.5 -61.5s41.834 -32.5 72.501 -42.5c28.667 9.33301 50.834 23.166 66.501 41.499zM382 128.502c21.333 17.667 32.001 42.168 32.001 73.501c0 25.333 -10.833 49.166 -32.5 71.499s-51.834 40.5 -90.501 54.5c-36 -12 -64 -29 -84 -51
s-30 -47 -30 -75c0 -31.333 10.5 -55.833 31.5 -73.5s49.833 -26.5 86.5 -26.5s65.667 8.83301 87 26.5z" />
    <glyph glyph-name="nine" unicode="9" horiz-adv-x="571" 
d="M411 705.5c38 -21 67.335 -50.665 88.002 -88.998s31 -82.833 31 -133.5c0 -59.333 -10.5 -114 -31.5 -164s-58.167 -105.667 -111.5 -167l-143 -165l-107 83l146 157l34 38c-23.333 -5.33301 -46.333 -8 -69 -8c-42.667 0 -80.334 9.66699 -113.001 29
s-57.834 46.5 -75.501 81.5s-26.5 75.833 -26.5 122.5c0 49.333 10.167 92.666 30.5 129.999s49 66.166 86 86.499s80.167 30.5 129.5 30.5c50 0 94 -10.5 132 -31.5zM201.502 398.502c20.333 -22.333 48.833 -33.501 85.5 -33.501c26 0 54 5.66699 84 17
c6.66699 13.333 12 29 16 47s6 36 6 54c0 42.667 -10 75.834 -30 99.501s-48 35.5 -84 35.5c-34 0 -60.5 -11 -79.5 -33s-28.5 -52.667 -28.5 -92c0 -40.667 10.167 -72.167 30.5 -94.5zM407.002 398.001l-5 -3z" />
    <glyph glyph-name="colon" unicode=":" horiz-adv-x="306" 
d="M91.5 338.5c-15 14.333 -22.5 33.832 -22.5 58.499c0 25.333 7.33301 45 22 59s35.334 21 62.001 21c26 0 46.5 -7.16699 61.5 -21.5s22.5 -33.5 22.5 -57.5c0 -25.333 -7.33301 -45.166 -22 -59.499s-35.334 -21.5 -62.001 -21.5c-26 0 -46.5 7.16699 -61.5 21.5z
M91.5 8.49902c-15 14.333 -22.5 33.832 -22.5 58.499c0 25.333 7.33301 45 22 59s35.334 21 62.001 21c26 0 46.5 -7.16699 61.5 -21.5s22.5 -33.5 22.5 -57.5c0 -25.333 -7.33301 -45.166 -22 -59.499s-35.334 -21.5 -62.001 -21.5c-26 0 -46.5 7.16699 -61.5 21.5z" />
    <glyph glyph-name="semicolon" unicode=";" horiz-adv-x="306" 
d="M91.5 338.5c-15 14.333 -22.5 33.832 -22.5 58.499c0 25.333 7.33301 45 22 59s35.334 21 62.001 21c26 0 46.5 -7.16699 61.5 -21.5s22.5 -33.5 22.5 -57.5c0 -25.333 -7.33301 -45.166 -22 -59.499s-35.334 -21.5 -62.001 -21.5c-26 0 -46.5 7.16699 -61.5 21.5z
M23 -128.001c26 28 44.332 55.501 54.999 82.501s16 59.833 16 98.5c0 24.667 -2 51 -6 79h132c4 -26 6 -51.667 6 -77c0 -48 -11.667 -91.333 -35 -130s-60.666 -76.334 -111.999 -113.001z" />
    <glyph glyph-name="less" unicode="&#x3c;" horiz-adv-x="435" 
d="M32 365l272 299l99 -92l-194 -207l194 -207l-99 -92z" />
    <glyph glyph-name="equal" unicode="=" horiz-adv-x="579" 
d="M63 544h453v-121h-453v121zM63 307h453v-121h-453v121z" />
    <glyph glyph-name="greater" unicode="&#x3e;" horiz-adv-x="435" 
d="M32 158l194 207l-194 207l99 92l272 -299l-272 -299z" />
    <glyph glyph-name="question" unicode="?" horiz-adv-x="522" 
d="M167 268c0 40 7 73 21 99s39.667 53.667 77 83c27.333 22 45.666 39.333 54.999 52s14 26.667 14 42c0 44 -29 66 -87 66c-48 0 -100.333 -16.333 -157 -49l-54 111c30.667 20.667 65.5 36.667 104.5 48s78.833 17 119.5 17c68.667 0 121.834 -16.5 159.501 -49.5
s56.5 -79.833 56.5 -140.5c0 -33.333 -7.33301 -61.666 -22 -84.999s-41.334 -50 -80.001 -80c-33.333 -26 -55.666 -46.833 -66.999 -62.5s-17 -33.834 -17 -54.501c0 -7.33301 1 -22.666 3 -45.999h-123c-2 25.333 -3 41.666 -3 48.999zM170.5 8.5
c-15 14.333 -22.5 33.832 -22.5 58.499c0 25.333 7.33301 45 22 59s35.334 21 62.001 21c26 0 46.5 -7.16699 61.5 -21.5s22.5 -33.5 22.5 -57.5c0 -25.333 -7.33301 -45.166 -22 -59.499s-35.334 -21.5 -62.001 -21.5c-26 0 -46.5 7.16699 -61.5 21.5z" />
    <glyph glyph-name="at" unicode="@" horiz-adv-x="813" 
d="M550 514l-0.000976562 -197.999c0 -38 14.333 -57 43 -57c23.333 0 41.333 12.333 54 37s19 59.334 19 104.001c0 81.333 -22 144.166 -66 188.499s-106.333 66.5 -187 66.5c-81.333 0 -144.5 -25.667 -189.5 -77s-67.5 -123.333 -67.5 -216
c0 -94 23.167 -166.667 69.5 -218s112.166 -77 197.499 -77c60.667 0 113.667 13.333 159 40l36 -78c-23.333 -16.667 -52 -29.5 -86 -38.5s-70.333 -13.5 -109 -13.5c-74.667 0 -139.5 15.833 -194.5 47.5s-97.167 76.5 -126.5 134.5s-44 125.667 -44 203
c0 76.667 14.667 144 44 202s70.833 103 124.5 135s115.834 48 186.501 48c68.667 0 129.334 -14.333 182.001 -43s93.334 -69.334 122.001 -122.001s43 -113.334 43 -182.001c0 -44 -6.5 -82.833 -19.5 -116.5s-31.5 -59.667 -55.5 -78s-51.667 -27.5 -83 -27.5
c-39.333 0 -68 13.667 -86 41c-22.667 -31.333 -57.667 -47 -105 -47c-50.667 0 -89.834 16.833 -117.501 50.5s-41.5 80.834 -41.5 141.501c0 60 15 106.333 45 139s72.667 49 128 49c48 0 89.667 -12.667 125 -38zM460.999 462.001c-13.333 4 -26.333 6 -39 6
c-52 0 -78 -34.667 -78 -104c0 -72 25.667 -108 77 -108c12.667 0 26 2.33301 40 7v199z" />
    <glyph glyph-name="A" unicode="A" horiz-adv-x="670" 
d="M463 156h-258l-46 -156h-144l245 724h150l245 -724h-145zM428 276l-94 315l-93 -315h187z" />
    <glyph glyph-name="B" unicode="B" horiz-adv-x="648" 
d="M610 218c0 -69.333 -20.833 -122.999 -62.5 -160.999s-100.167 -57 -175.5 -57h-219h-75v724h137h124c73.333 0 130 -18 170 -54s60 -87 60 -153c0 -66.667 -31 -111.667 -93 -135c89.333 -26.667 134 -81.334 134 -164.001zM215 602.001v-173h124c60 0 90 28.333 90 85
c0 58.667 -32.333 88 -97 88h-117zM469 215.001c0 64 -32.333 96 -97 96h-157v-189h164c60 0 90 31 90 93z" />
    <glyph glyph-name="C" unicode="C" horiz-adv-x="603" 
d="M126 82c-58.667 62.667 -88.001 151 -88.001 265c0 80 13.333 149.333 40 208s64.834 103.667 114.501 135s108.167 47 175.5 47c37.333 0 74 -5 110 -15s67 -24.333 93 -43l-47 -105c-52 26 -104.667 39 -158 39c-59.333 0 -105.166 -22.333 -137.499 -67
s-48.5 -107.667 -48.5 -189c0 -162 66.333 -243 199 -243c61.333 0 111.666 11.667 150.999 35l47 -104c-22 -18 -51 -32 -87 -42s-75 -15 -117 -15c-106 0 -188.333 31.333 -247 94z" />
    <glyph glyph-name="D" unicode="D" horiz-adv-x="693" 
d="M561.5 633c55.667 -60.667 83.5 -150.666 83.5 -269.999c0 -120.667 -27.833 -211.334 -83.5 -272.001s-136.834 -91 -243.501 -91h-240v724h240c106.667 0 187.834 -30.333 243.501 -91zM503 363.001c0 158.667 -62.667 238 -188 238h-99v-478h98c126 0 189 80 189 240z
" />
    <glyph glyph-name="E" unicode="E" horiz-adv-x="578" 
d="M548 123v-123h-470v724h456v-123h-318v-169h234v-124h-234v-185h332z" />
    <glyph glyph-name="F" unicode="F" horiz-adv-x="540" 
d="M216 601v-189h252v-124h-252v-288h-138v724h448v-123h-310z" />
    <glyph glyph-name="G" unicode="G" horiz-adv-x="668" 
d="M610 415l0.000976562 -369.998c-27.333 -18.667 -60.5 -33 -99.5 -43s-79.5 -15 -121.5 -15c-108.667 0 -192.667 32.667 -252 98s-89 157.666 -89 276.999s29.667 211.666 89 276.999s143.333 98 252 98c42.667 0 82.667 -5 120 -15s68.666 -24 93.999 -42l-40 -110
c-62.667 29.333 -121.334 44 -176.001 44c-131.333 0 -197 -84 -197 -252s66.333 -252 199 -252c26.667 0 54.334 3.33301 83.001 10v173h-119v122h257z" />
    <glyph glyph-name="H" unicode="H" horiz-adv-x="704" 
d="M626 724v-724h-138v306h-272v-306h-138v724h138v-295h272v295h138z" />
    <glyph glyph-name="I" unicode="I" horiz-adv-x="298" 
d="M80 724h138v-724h-138v724z" />
    <glyph glyph-name="J" unicode="J" horiz-adv-x="472" 
d="M79 1.5c-31.333 9.66699 -57.667 23.5 -79 41.5l49 105c45.333 -24.667 86.666 -37 123.999 -37c58.667 0 88 28.667 88 86v527h138v-537c0 -63.333 -19.167 -112.5 -57.5 -147.5s-92.166 -52.5 -161.499 -52.5c-36 0 -69.667 4.83301 -101 14.5z" />
    <glyph glyph-name="K" unicode="K" horiz-adv-x="636" 
d="M293 301l-77 -96v-205h-138v724h138v-341l255 341h163l-254 -315l270 -409h-163z" />
    <glyph glyph-name="L" unicode="L" horiz-adv-x="531" 
d="M507 124v-124h-429v724h138v-600h291z" />
    <glyph glyph-name="M" unicode="M" horiz-adv-x="855" 
d="M777 724v-724h-134v503l-144 -362h-144l-145 362v-503h-132v724h166l184 -456l181 456h168z" />
    <glyph glyph-name="N" unicode="N" horiz-adv-x="726" 
d="M648 724v-724h-133l-301 491v-491h-136v724h133l301 -489v489h136z" />
    <glyph glyph-name="O" unicode="O" horiz-adv-x="716" 
d="M127.5 81.5c-53 63 -79.5 156.5 -79.5 280.5s26.5 217.5 79.5 280.5s129.833 94.5 230.5 94.5s177.5 -31.5 230.5 -94.5s79.5 -156.5 79.5 -280.5s-26.5 -217.5 -79.5 -280.5s-129.833 -94.5 -230.5 -94.5s-177.5 31.5 -230.5 94.5zM526 362c0 168 -56 252 -168 252
s-168 -84 -168 -252s56 -252 168 -252s168 84 168 252z" />
    <glyph glyph-name="P" unicode="P" horiz-adv-x="599" 
d="M526 659c42 -43.333 62.999 -104.333 62.999 -183c0 -79.333 -21.667 -140.833 -65 -184.5s-104.666 -65.5 -183.999 -65.5h-124v-226h-138v724h138h131c77.333 0 137 -21.667 179 -65zM446.999 473c0 85.333 -35.667 128 -107 128h-124v-252h131
c66.667 0 100 41.333 100 124z" />
    <glyph glyph-name="Q" unicode="Q" horiz-adv-x="716" 
d="M594 -165l-140 163c-30.667 -7.33301 -62.667 -11 -96 -11c-100.667 0 -177.5 31.5 -230.5 94.5s-79.5 156.5 -79.5 280.5s26.5 217.5 79.5 280.5s129.833 94.5 230.5 94.5s177.5 -31.5 230.5 -94.5s79.5 -156.5 79.5 -280.5c0 -145.333 -36 -248.333 -108 -309l122 -130
zM358 110c112 0 168 84 168 252s-56 252 -168 252s-168 -84 -168 -252s56 -252 168 -252z" />
    <glyph glyph-name="R" unicode="R" horiz-adv-x="635" 
d="M303 250l-87.001 -0.000976562v-250h-138v724h138h122c76.667 0 135.834 -20.5 177.501 -61.5s62.5 -99.167 62.5 -174.5c0 -55.333 -11.5 -101.666 -34.5 -138.999s-56.167 -64.333 -99.5 -81l179 -268h-165zM215.999 367.999h122c65.333 0 98 39 98 117
c0 78.667 -34 118 -102 118h-118v-235z" />
    <glyph glyph-name="S" unicode="S" horiz-adv-x="564" 
d="M139.5 5.5c-41.667 11.667 -78.5 27.835 -110.5 48.502l44 108c63.333 -36.667 128.333 -55 195 -55c83.333 0 125 28.667 125 86c0 24 -7.66699 43.667 -23 59s-40 27.666 -74 36.999l-82 23c-62 17.333 -106.833 42 -134.5 74s-41.5 75 -41.5 129
c0 70 21.333 124.333 64 163s102.334 58 179.001 58c36.667 0 74.667 -4.33301 114 -13s76.666 -21 111.999 -37l-45 -108c-70 26 -131 39 -183 39c-72.667 0 -109 -26.333 -109 -79c0 -24 7.66699 -43.5 23 -58.5s40 -27.167 74 -36.5l82 -23
c62.667 -17.333 107.667 -42 135 -74s41 -75.333 41 -130c0 -72.667 -22.5 -128.834 -67.5 -168.501s-108.167 -59.5 -189.5 -59.5c-44 0 -86.833 5.83301 -128.5 17.5z" />
    <glyph glyph-name="T" unicode="T" horiz-adv-x="530" 
d="M514 600h-180v-600h-138v600h-180v124h318h180v-124z" />
    <glyph glyph-name="U" unicode="U" horiz-adv-x="688" 
d="M143.5 55.5c-47 45.667 -70.5 110.167 -70.5 193.5v475h138v-465c0 -99.333 44 -149 132 -149c89.333 0 134 49.667 134 149v465h138v-475c0 -83.333 -23.667 -147.833 -71 -193.5s-114.333 -68.5 -201 -68.5c-86 0 -152.5 22.833 -199.5 68.5z" />
    <glyph glyph-name="V" unicode="V" horiz-adv-x="634" 
d="M615 724l-223 -724h-150l-223 724h145l154 -579l153 579h144z" />
    <glyph glyph-name="W" unicode="W" horiz-adv-x="898" 
d="M877 724l-172 -724h-150l-107 536l-106 -536h-150l-171 724h142l106 -561l106 560h148l108 -561l105 562h141z" />
    <glyph glyph-name="X" unicode="X" horiz-adv-x="610" 
d="M440 0l-137 252l-135 -252h-152l213 367l-205 357h154l130 -242l132 242h152l-211 -357l213 -367h-154z" />
    <glyph glyph-name="Y" unicode="Y" horiz-adv-x="590" 
d="M579 724l-216 -485v-239h-138v239l-214 485h147l138 -335l137 335h146z" />
    <glyph glyph-name="Z" unicode="Z" horiz-adv-x="555" 
d="M520 121v-121h-487v122l325 481h-311v121h467v-121l-325 -482h331z" />
    <glyph glyph-name="bracketleft" unicode="[" horiz-adv-x="358" 
d="M202 701v-718h139v-104h-263v926h263v-104h-139z" />
    <glyph glyph-name="backslash" unicode="\" horiz-adv-x="457" 
d="M332 -86l-325 835h112l325 -835h-112z" />
    <glyph glyph-name="bracketright" unicode="]" horiz-adv-x="358" 
d="M280 805v-926h-263v104h139v718h-139v104h263z" />
    <glyph glyph-name="asciicircum" unicode="^" horiz-adv-x="449" 
d="M167 724h114l161 -223h-127l-90 139l-92 -139h-126z" />
    <glyph glyph-name="underscore" unicode="_" horiz-adv-x="601" 
d="M78 -56h445v-110h-445v110z" />
    <glyph glyph-name="grave" unicode="`" horiz-adv-x="500" 
d="M100 774v10h141l87 -159v-10h-104z" />
    <glyph glyph-name="a" unicode="a" horiz-adv-x="536" 
d="M416 512c36.667 -31.333 55 -75.3311 55 -131.998v-380h-121v80c-32.667 -60.667 -86.334 -91 -161.001 -91c-52 0 -92.167 14.333 -120.5 43s-42.5 69 -42.5 121c0 65.333 24.5 113.166 73.5 143.499s128.167 46.166 237.5 47.499v20c0 50 -34 75 -102 75
c-41.333 0 -83.666 -9.33301 -126.999 -28l-34 104c62 29.333 124 44 186 44c67.333 0 119.333 -15.667 156 -47zM337 156.002v98c-64 -0.666992 -110.333 -8.16699 -139 -22.5s-43 -36.833 -43 -67.5c0 -40.667 23 -61 69 -61c43.333 0 81 17.667 113 53z" />
    <glyph glyph-name="b" unicode="b" horiz-adv-x="581" 
d="M490.5 484.5c34.333 -49.667 51.5 -119.833 51.5 -210.5c0 -91.333 -17.333 -162 -52 -212s-83.334 -75 -146.001 -75c-32 0 -61 6.5 -87 19.5s-46.667 31.833 -62 56.5v-63h-123v513v257h136v-281c32.667 46.667 78.334 70 137.001 70
c62.667 0 111.167 -24.833 145.5 -74.5zM403 269.001c0 109.333 -34.002 164.001 -102.002 164.001c-17.333 0 -33.333 -3.66699 -48 -11s-29.667 -19 -45 -35v-233c12.667 -14.667 27.334 -25.834 44.001 -33.501s34.334 -11.5 53.001 -11.5c65.333 0 98 53.333 98 160z
" />
    <glyph glyph-name="c" unicode="c" horiz-adv-x="483" 
d="M104 60.5c-46 48.333 -69.002 116.501 -69.002 204.501c0 58.667 10.667 110.167 32 154.5s51.5 78.666 90.5 102.999s84.167 36.5 135.5 36.5c30.667 0 60.5 -4.33301 89.5 -13s54.167 -20.667 75.5 -36l-48 -105c-47.333 20.667 -87 31 -119 31
c-37.333 0 -66.166 -14.333 -86.499 -43s-30.5 -69 -30.5 -121c0 -106.667 43.333 -160 130 -160c38 0 76 10 114 30l46 -104c-43.333 -33.333 -98.666 -50 -165.999 -50c-83.333 0 -148 24.167 -194 72.5z" />
    <glyph glyph-name="d" unicode="d" horiz-adv-x="581" 
d="M509 770l-0.000976562 -737.001v-33h-123v78c-34 -60.667 -84 -91 -150 -91c-62.667 0 -111.167 24.833 -145.5 74.5s-51.5 119.834 -51.5 210.501c0 91.333 17.333 162 52 212s83.334 75 146.001 75c28 0 53.667 -5 77 -15s43 -24.333 59 -43v269h136zM327.999 123.999
c14.667 7.33301 29.6689 18.999 45.002 34.999v233c-12.667 14.667 -27.334 25.834 -44.001 33.501s-34.334 11.5 -53.001 11.5c-65.333 0 -98 -53.333 -98 -160c0 -109.333 34 -164 102 -164c17.333 0 33.333 3.66699 48 11z" />
    <glyph glyph-name="e" unicode="e" horiz-adv-x="546" 
d="M507 230l-332 -0.000976562c11.333 -80 56.666 -120 135.999 -120c44 0 88 10.667 132 32l48 -101c-26.667 -16.667 -57 -29.667 -91 -39s-68.667 -14 -104 -14c-82.667 0 -146.5 24.833 -191.5 74.5s-67.5 119.834 -67.5 210.501c0 91.333 21.167 161.833 63.5 211.5
s101.833 74.5 178.5 74.5c74.667 0 132.334 -23 173.001 -69s61 -110.667 61 -194c0 -24.667 -2 -46.667 -6 -66zM174 320.999h204c-1.33301 38 -10.833 67.333 -28.5 88s-42.167 31 -73.5 31c-59.333 0 -93.333 -39.667 -102 -119z" />
    <glyph glyph-name="f" unicode="f" horiz-adv-x="372" 
d="M88 429h-83.001v117h84v41c0 63.333 19.167 112.5 57.5 147.5s92.833 52.5 163.5 52.5c22.667 0 43 -1.66699 61 -5v-118c-19.333 2.66699 -39.666 4 -60.999 4c-57.333 0 -86 -27 -86 -81v-41h128v-117h-128v-429h-136v429z" />
    <glyph glyph-name="g" unicode="g" horiz-adv-x="583" 
d="M511 546l0.00195312 -524c0 -77.333 -21.833 -137 -65.5 -179s-105.5 -63 -185.5 -63c-32.667 0 -64.834 3.5 -96.501 10.5s-60.167 17.167 -85.5 30.5l38 107c44.667 -19.333 87.667 -29 129 -29c86.667 0 130 41 130 123v65c-32.667 -46.667 -78.334 -70 -137.001 -70
c-63.333 0 -112.333 23.5 -147 70.5s-52 113.5 -52 199.5c0 86.667 17.5 153.667 52.5 201s84.167 71 147.5 71c32 0 61 -6.5 87 -19.5s46.667 -31.833 62 -56.5v63h123zM330.002 154c14.667 7.33301 29.6689 18.999 45.002 34.999v203
c-12.667 14.667 -27.334 25.834 -44.001 33.501s-34.334 11.5 -53.001 11.5c-66.667 0 -100 -48.333 -100 -145c0 -99.333 34.667 -149 104 -149c17.333 0 33.333 3.66699 48 11z" />
    <glyph glyph-name="h" unicode="h" horiz-adv-x="590" 
d="M480.5 512.5c28.333 -31 42.499 -75.167 42.499 -132.5v-380h-136v360c0 48.667 -26.667 73 -80 73c-18.667 0 -35.667 -3 -51 -9s-31.333 -15.333 -48 -28v-396h-136v770h136v-278c40.667 44.667 91.334 67 152.001 67c52 0 92.167 -15.5 120.5 -46.5z" />
    <glyph glyph-name="i" unicode="i" horiz-adv-x="284" 
d="M74 546h136v-546h-136v546zM82.5 637.5c-14.333 13.667 -21.5 32.5 -21.5 56.5c0 24.667 7.16699 43.834 21.5 57.501s34.166 20.5 59.499 20.5s45.166 -6.83301 59.499 -20.5s21.5 -32.5 21.5 -56.5c0 -24.667 -7.16699 -43.834 -21.5 -57.501
s-34.166 -20.5 -59.499 -20.5s-45.166 6.83301 -59.499 20.5z" />
    <glyph glyph-name="j" unicode="j" horiz-adv-x="284" 
d="M-69 -112c39.333 13.333 69.166 26.832 89.499 40.499s34.333 29.834 42 48.501s11.5 44 11.5 76v493h136v-497c0 -51.333 -7 -93.333 -21 -126s-37.667 -60.167 -71 -82.5s-80.666 -43.5 -141.999 -63.5zM82.5 637.499c-14.333 13.667 -21.5 32.5 -21.5 56.5
c0 24.667 7.16699 43.834 21.5 57.501s34.166 20.5 59.499 20.5s45.166 -6.83301 59.499 -20.5s21.5 -32.5 21.5 -56.5c0 -24.667 -7.16699 -43.834 -21.5 -57.501s-34.166 -20.5 -59.499 -20.5s-45.166 6.83301 -59.499 20.5z" />
    <glyph glyph-name="k" unicode="k" horiz-adv-x="565" 
d="M265 215l-57 -68v-147h-136v770h136v-450l181 226h155l-193 -229l208 -317h-155z" />
    <glyph glyph-name="l" unicode="l" horiz-adv-x="326" 
d="M106.5 29c-24.333 24 -36.501 60.667 -36.501 110v631h136v-601c0 -19.333 3.66699 -33.333 11 -42s19.666 -13 36.999 -13c10.667 0 22.334 1 35.001 3l9 -115c-26 -6 -53 -9 -81 -9c-49.333 0 -86.166 12 -110.499 36z" />
    <glyph glyph-name="m" unicode="m" horiz-adv-x="887" 
d="M778.5 512c27.667 -31.333 41.499 -75.333 41.499 -132v-380h-136v360c0 48.667 -25 73 -75 73c-16.667 0 -32.5 -3 -47.5 -9s-30.5 -15.333 -46.5 -28v-16v-380h-136v360c0 48.667 -25.333 73 -76 73c-32 0 -63.667 -12.333 -95 -37v-396h-136v546h123v-69
c42.667 54.667 96.334 82 161.001 82c34 0 63.167 -7.33301 87.5 -22s42.5 -36 54.5 -64c45.333 57.333 100 86 164 86c50 0 88.833 -15.667 116.5 -47z" />
    <glyph glyph-name="n" unicode="n" horiz-adv-x="588" 
d="M478.5 512c28.333 -31.333 42.5 -75.333 42.5 -132v-380h-136v360c0 48.667 -26.333 73 -79 73c-18 0 -34.667 -3 -50 -9s-31.333 -15.333 -48 -28v-396h-136v546h123v-69c42.667 54.667 97.334 82 164.001 82c51.333 0 91.166 -15.667 119.499 -47z" />
    <glyph glyph-name="o" unicode="o" horiz-adv-x="563" 
d="M101.5 59c-41.667 48 -62.5 119.333 -62.5 214c0 94 21 165.167 63 213.5s102 72.5 180 72.5s137.833 -24 179.5 -72s62.5 -119.333 62.5 -214c0 -94 -21 -165.167 -63 -213.5s-102 -72.5 -180 -72.5s-137.833 24 -179.5 72zM385 273c0 110 -34.333 165 -103 165
c-69.333 0 -104 -55 -104 -165s34.333 -165 103 -165c69.333 0 104 55 104 165z" />
    <glyph glyph-name="p" unicode="p" horiz-adv-x="581" 
d="M490.5 484.5c34.333 -49.667 51.501 -119.833 51.501 -210.5c0 -91.333 -17.333 -162 -52 -212s-83.334 -75 -146.001 -75c-28 0 -53.667 5 -77 15s-43 24.333 -59 43v-252h-136v720v33h123v-78c34 60.667 84 91 150 91c62.667 0 111.167 -24.833 145.5 -74.5z
M403.001 269.001c0 109.333 -34.002 164.001 -102.002 164.001c-17.333 0 -33.333 -3.66699 -48 -11s-29.667 -19 -45 -35v-233c12.667 -14.667 27.334 -25.834 44.001 -33.501s34.334 -11.5 53.001 -11.5c65.333 0 98 53.333 98 160z" />
    <glyph glyph-name="q" unicode="q" horiz-adv-x="581" 
d="M509 546v-513.001v-240h-136v264c-32.667 -46.667 -78.334 -70 -137.001 -70c-62.667 0 -111.167 24.833 -145.5 74.5s-51.5 119.834 -51.5 210.501c0 91.333 17.333 162 52 212s83.334 75 146.001 75c32 0 61 -6.5 87 -19.5s46.667 -31.833 62 -56.5v63h123z
M328 123.999c14.667 7.33301 29.6689 18.999 45.002 34.999v233c-12.667 14.667 -27.334 25.834 -44.001 33.501s-34.334 11.5 -53.001 11.5c-65.333 0 -98 -53.333 -98 -160c0 -109.333 34 -164 102 -164c17.333 0 33.333 3.66699 48 11z" />
    <glyph glyph-name="r" unicode="r" horiz-adv-x="406" 
d="M396 544l-25.999 -127c-20 6 -41.333 9 -64 9s-41.834 -3.83301 -57.501 -11.5s-29.167 -20.167 -40.5 -37.5v-377h-136v546h123v-86c30.667 64.667 77.667 97 141 97c22.667 0 42.667 -4.33301 60 -13z" />
    <glyph glyph-name="s" unicode="s" horiz-adv-x="471" 
d="M113.5 2.5c-35.667 9.66699 -66.834 23.165 -93.501 40.498l47 110c49.333 -30.667 101.666 -46 156.999 -46c58 0 87 16.333 87 49c0 13.333 -5.16699 24.333 -15.5 33s-27.166 15.667 -50.499 21l-71 17c-51.333 12 -88.333 30.333 -111 55s-34 58.334 -34 101.001
c0 55.333 18.167 98.333 54.5 129s87.5 46 153.5 46c33.333 0 66.666 -4.16699 99.999 -12.5s63.333 -19.833 90 -34.5l-50 -108c-49.333 24 -96.666 36 -141.999 36c-50.667 0 -76 -14.333 -76 -43c0 -12.667 5.33301 -23.167 16 -31.5s27.334 -15.166 50.001 -20.499
l71 -17c50.667 -12 87.5 -30.5 110.5 -55.5s34.5 -59.167 34.5 -102.5c0 -57.333 -19 -101.833 -57 -133.5s-91.333 -47.5 -160 -47.5c-38 0 -74.833 4.83301 -110.5 14.5z" />
    <glyph glyph-name="t" unicode="t" horiz-adv-x="404" 
d="M94 168v261h-83v117h84v148h135v-148h149v-117h-149v-236c0 -28 6.16699 -48.333 18.5 -61s31.833 -19 58.5 -19c18.667 0 38 2.66699 58 8l21 -115c-33.333 -9.33301 -67 -14 -101 -14c-127.333 0 -191 58.667 -191 176z" />
    <glyph glyph-name="u" unicode="u" horiz-adv-x="580" 
d="M508 546v-546h-123v77c-40 -60 -93.667 -90 -161 -90c-50.667 0 -89.834 15.667 -117.501 47s-41.5 75.333 -41.5 132v380h136v-360c0 -48.667 25.333 -73 76 -73c18.667 0 35.334 3.5 50.001 10.5s29.667 18.167 45 33.5v389h136z" />
    <glyph glyph-name="v" unicode="v" horiz-adv-x="527" 
d="M513 546l-176 -546h-146l-177 546h137l114 -409l112 409h136z" />
    <glyph glyph-name="w" unicode="w" horiz-adv-x="791" 
d="M775 546l-148 -546h-146l-86 383l-84 -383h-146l-149 546h136l88 -403l87 403h138l90 -403l85 403h135z" />
    <glyph glyph-name="x" unicode="x" horiz-adv-x="514" 
d="M355 0l-100 173l-98 -173h-145l172 278l-164 268h147l93 -163l95 163h145l-170 -268l172 -278h-147z" />
    <glyph glyph-name="y" unicode="y" horiz-adv-x="523" 
d="M509 546l-165.001 -514.999c-20 -63.333 -52.167 -114.833 -96.5 -154.5s-105.833 -71.834 -184.5 -96.501l-46 114c46 16 82.333 32.333 109 49s48.334 36 65.001 58l-177 545h137l112 -402l110 402h136z" />
    <glyph glyph-name="z" unicode="z" horiz-adv-x="472" 
d="M442 115v-115h-414v115l256 316h-246v115h398v-115l-256 -316h262z" />
    <glyph glyph-name="braceleft" unicode="{" horiz-adv-x="381" 
d="M206 -84c-30.667 18.667 -52.667 42.9922 -66 72.9922s-20 69.667 -20 119v103c0 26.667 -9.16699 46.334 -27.5 59.001s-46.5 19.334 -84.5 20.001v104c38 0.666992 66.167 7.33398 84.5 20.001s27.5 32.334 27.5 59.001v104c0 49.333 6.66699 88.833 20 118.5
s35.333 53.834 66 72.501s74.334 34.334 131.001 47.001l28 -98c-33.333 -8 -58.666 -17.167 -75.999 -27.5s-29.333 -24 -36 -41s-10 -40.833 -10 -71.5v-104c0 -70.667 -29 -114 -87 -130c58 -16 87 -60 87 -132v-103c0 -30.667 3.33301 -54.667 10 -72
s18.667 -31.166 36 -41.499s42.666 -19.5 75.999 -27.5l-28 -98c-56.667 12.667 -100.334 28.334 -131.001 47.001z" />
    <glyph glyph-name="bar" unicode="|" horiz-adv-x="257" 
d="M78 816h101v-1066h-101v1066z" />
    <glyph glyph-name="braceright" unicode="}" horiz-adv-x="381" 
d="M16 -33c33.333 8 58.666 17.1748 75.999 27.5078s29.333 24.166 36 41.499s10 41.333 10 72v103c0 72 29 116 87 132c-58 16 -87 59.333 -87 130v104c0 30.667 -3.33301 54.5 -10 71.5s-18.667 30.667 -36 41s-42.666 19.5 -75.999 27.5l28 98
c56.667 -12.667 100.334 -28.334 131.001 -47.001s52.667 -42.834 66 -72.501s20 -69.167 20 -118.5v-104c0 -26.667 9.16699 -46.334 27.5 -59.001s46.5 -19.334 84.5 -20.001v-104c-38 -0.666992 -66.167 -7.33398 -84.5 -20.001s-27.5 -32.334 -27.5 -59.001v-103
c0 -49.333 -6.66699 -89 -20 -119s-35.333 -54.333 -66 -73s-74.334 -34.334 -131.001 -47.001z" />
    <glyph glyph-name="asciitilde" unicode="~" horiz-adv-x="579" 
d="M326 279.5c-14 5.66699 -29.667 13.834 -47 24.501c-14 9.33301 -26.167 16.166 -36.5 20.499s-21.833 6.5 -34.5 6.5c-15.333 0 -30 -4.33301 -44 -13s-29 -22.667 -45 -42l-79 81c50.667 62.667 105 94 163 94c19.333 0 36 -2.83301 50 -8.5s29.667 -13.834 47 -24.501
c14 -9.33301 26.167 -16.166 36.5 -20.499s21.833 -6.5 34.5 -6.5c15.333 0 30 4.33301 44 13s29 22.667 45 42l79 -81c-50.667 -62.667 -105 -94 -163 -94c-19.333 0 -36 2.83301 -50 8.5z" />
    <glyph glyph-name="uni00A0" unicode="&#xa0;" horiz-adv-x="204" 
 />
    <glyph glyph-name="exclamdown" unicode="&#xa1;" horiz-adv-x="364" 
d="M243.5 525.5c15 -14.333 22.5 -33.832 22.5 -58.499c0 -25.333 -7.33301 -45 -22 -59s-35.334 -21 -62.001 -21c-26 0 -46.5 7.16699 -61.5 21.5s-22.5 33.5 -22.5 57.5c0 25.333 7.33301 45.166 22 59.499s35.334 21.5 62.001 21.5c26 0 46.5 -7.16699 61.5 -21.5z
M257 -189.999h-150l21 505h108z" />
    <glyph glyph-name="cent" unicode="&#xa2;" horiz-adv-x="488" 
d="M334 28v-113.001h-90v114c-67.333 9.33301 -119 35.833 -155 79.5s-54 101.834 -54 174.501c0 70 18.833 128 56.5 174s88.5 73.667 152.5 83v115h90v-114c46 -5.33301 86.333 -19.666 121 -42.999l-47 -101c-26 12 -50.667 20 -74 24v-274
c31.333 3.33301 59 11.666 83 24.999l44 -99c-34 -25.333 -76.333 -40.333 -127 -45zM188 196.999c12 -21.333 30.667 -36 56 -44v266c-49.333 -15.333 -74 -60.333 -74 -135c0 -36.667 6 -65.667 18 -87z" />
    <glyph glyph-name="sterling" unicode="&#xa3;" horiz-adv-x="534" 
d="M253.5 209c-15.667 -30 -40.499 -59.334 -74.499 -88.001h311v-121h-439v120l29 28c24.667 24 42.167 47 52.5 69s15.5 47.667 15.5 77v13h-106v114h74c-10.667 23.333 -18.667 44 -24 62s-8 39.333 -8 64c0 60.667 18.667 107.5 56 140.5s90 49.5 158 49.5
c39.333 0 75.833 -5.5 109.5 -16.5s61.834 -26.5 84.501 -46.5l-66 -110c-44.667 30.667 -87.334 46 -128.001 46c-52 0 -78 -24 -78 -72c0 -14.667 2 -28.667 6 -42s10.667 -31.666 20 -54.999l8 -20h172v-114h-148c-0.666992 -35.333 -8.83398 -68 -24.501 -98z" />
    <glyph glyph-name="currency" unicode="&#xa4;" horiz-adv-x="598" 
d="M491 144l68 -85l-70 -55l-68 83c-35.333 -16.667 -76 -25 -122 -25s-86.667 8.33301 -122 25l-68 -83l-70 55l68 85c-32 43.333 -48 99.666 -48 168.999c0 68.667 16 124.667 48 168l-68 85l70 55l68 -83c35.333 16.667 76 25 122 25s86.667 -8.33301 122 -25l68 83
l70 -55l-68 -85c32 -43.333 48 -99.333 48 -168c0 -69.333 -16 -125.666 -48 -168.999zM407 313c0 87.333 -36 131 -108 131s-108 -43.667 -108 -131c0 -88 36 -132 108 -132s108 44 108 132z" />
    <glyph glyph-name="yen" unicode="&#xa5;" horiz-adv-x="536" 
d="M371 341h98v-88h-134v-64h134v-88h-134v-101h-136v101h-134v88h134v64h-134v88h98l-156 383h145l119 -346l114 346h144z" />
    <glyph glyph-name="brokenbar" unicode="&#xa6;" horiz-adv-x="257" 
d="M78 816h101v-447h-101v447zM78 198h101v-448h-101v448z" />
    <glyph glyph-name="section" unicode="&#xa7;" horiz-adv-x="535" 
d="M436 117c30 -30 45.001 -72 45.001 -126c0 -64.667 -18.833 -114.834 -56.5 -150.501s-90.834 -53.5 -159.501 -53.5c-35.333 0 -71.666 4.66699 -108.999 14s-72 22.333 -104 39l46 113c68.667 -31.333 124.334 -47 167.001 -47c57.333 0 86 25.667 86 77
c0 20.667 -5.66699 37.167 -17 49.5s-31.333 22.5 -60 30.5l-62 17c-55.333 15.333 -95.833 37.5 -121.5 66.5s-38.5 67.833 -38.5 116.5c0 54.667 16 102 48 142c-28 31.333 -42 72.333 -42 123c0 66 19.167 117.167 57.5 153.5s92.5 54.5 162.5 54.5
c31.333 0 63.166 -3.66699 95.499 -11s62.833 -17.666 91.5 -30.999l-48 -108c-57.333 20.667 -104.333 31 -141 31c-58.667 0 -88 -26.333 -88 -79c0 -21.333 5.66699 -38 17 -50s30.666 -21.667 57.999 -29l62 -17c54.667 -15.333 94.667 -37.5 120 -66.5
s38 -68.167 38 -117.5c0 -54.667 -15.667 -101.667 -47 -141zM327.001 176l16.001 -5c11.333 18.667 17 40 17 64c0 24.667 -6.5 44 -19.5 58s-35.833 25.667 -68.5 35l-62 18l-17 5c-12 -18.667 -18 -39.667 -18 -63c0 -24.667 6.66699 -44 20 -58s36.666 -26 69.999 -36z
" />
    <glyph glyph-name="dieresis" unicode="&#xa8;" horiz-adv-x="500" 
d="M99 633c-12.667 12.667 -19 29.666 -19 50.999c0 22.667 6.33301 40.334 19 53.001s30.334 19 53.001 19s40.5 -6.33301 53.5 -19s19.5 -30 19.5 -52c0 -22.667 -6.33301 -40.167 -19 -52.5s-30.667 -18.5 -54 -18.5c-22.667 0 -40.334 6.33301 -53.001 19zM294 632.999
c-12.667 12.667 -19 29.666 -19 50.999c0 22.667 6.33301 40.334 19 53.001s30.334 19 53.001 19s40.5 -6.33301 53.5 -19s19.5 -30 19.5 -52c0 -22.667 -6.33301 -40.167 -19 -52.5s-30.667 -18.5 -54 -18.5c-22.667 0 -40.334 6.33301 -53.001 19z" />
    <glyph glyph-name="copyright" unicode="&#xa9;" horiz-adv-x="838" 
d="M237 31.5c-51.333 29.667 -91 72.5 -119 128.5s-42 123.333 -42 202s14 146 42 202s67.667 98.833 119 128.5s112 44.5 182 44.5s130.667 -14.833 182 -44.5s91 -72.5 119 -128.5s42 -123.333 42 -202s-14 -146 -42 -202s-67.667 -98.833 -119 -128.5
s-112 -44.5 -182 -44.5s-130.667 14.833 -182 44.5zM612 144c45.333 51.333 68 124 68 218s-22.667 166.667 -68 218s-109.666 77 -192.999 77s-147.666 -25.667 -192.999 -77s-68 -124 -68 -218s22.667 -166.667 68 -218s109.666 -77 192.999 -77
s147.666 25.667 192.999 77zM311.5 225c-29.667 31.333 -44.501 75.333 -44.501 132c0 60 14.5 106.5 43.5 139.5s69.833 49.5 122.5 49.5c44.667 0 81 -10.333 109 -31l-35 -73c-30.667 13.333 -55.667 20 -75 20c-46.667 0 -70 -33.333 -70 -100s26 -100 78 -100
c22.667 0 47.334 6.66699 74.001 20l32 -72c-12.667 -10 -28.5 -17.833 -47.5 -23.5s-39.833 -8.5 -62.5 -8.5c-53.333 0 -94.833 15.667 -124.5 47z" />
    <glyph glyph-name="ordfeminine" unicode="&#xaa;" horiz-adv-x="518" 
d="M388 696c30 -22.667 44.999 -54.665 44.999 -95.998v-278c-24.667 -12.667 -53.167 -22.334 -85.5 -29.001s-66.166 -10 -101.499 -10c-60.667 0 -107.5 12 -140.5 36s-49.5 58 -49.5 102c0 50 20.833 86.167 62.5 108.5s108.834 33.166 201.501 32.499v15
c0 18 -6.33301 31.167 -19 39.5s-32.334 12.5 -59.001 12.5c-38.667 0 -78.667 -7.66699 -120 -23l-30 87c25.333 12 52.833 21.167 82.5 27.5s58.5 9.5 86.5 9.5c54.667 0 97 -11.333 127 -34zM245.999 378.002c31.333 0 56 3.00098 74 9.00098v101
c-53.333 0.666992 -91.833 -3.83301 -115.5 -13.5s-35.5 -25.834 -35.5 -48.501c0 -32 25.667 -48 77 -48zM85.999 198.003h335v-94h-335v94z" />
    <glyph glyph-name="guillemotleft" unicode="&#xab;" horiz-adv-x="609" 
d="M416 292l174 -199l-82 -78l-239 276l240 276l81 -78zM164 292l174 -199l-82 -78l-239 276l240 276l81 -78z" />
    <glyph glyph-name="logicalnot" unicode="&#xac;" horiz-adv-x="579" 
d="M525 513v-121v-170h-123v170h-348v121h471z" />
    <glyph glyph-name="uni00AD" unicode="&#xad;" horiz-adv-x="413" 
d="M39 354h335v-105h-335v105z" />
    <glyph glyph-name="registered" unicode="&#xae;" horiz-adv-x="838" 
d="M601 692.5c51.333 -29.667 91 -72.5 119 -128.5s42 -123.333 42 -202s-14 -146 -42 -202s-67.667 -98.833 -119 -128.5s-112 -44.5 -182 -44.5s-130.667 14.833 -182 44.5s-91 72.5 -119 128.5s-42 123.333 -42 202s14 146 42 202s67.667 98.833 119 128.5
s112 44.5 182 44.5s130.667 -14.833 182 -44.5zM612 144c45.333 51.333 68 124 68 218s-22.667 166.667 -68 218s-109.666 77 -192.999 77s-147.666 -25.667 -192.999 -77s-68 -124 -68 -218s22.667 -166.667 68 -218s109.666 -77 192.999 -77s147.666 25.667 192.999 77z
M499 307l69 -123h-97l-55 107h-35v-107h-85v356h132c39.333 0 70 -11 92 -33s33 -52.667 33 -92c0 -51.333 -18 -87.333 -54 -108zM381 363h42c27.333 0 41 17 41 51s-13.667 51 -41 51h-42v-102z" />
    <glyph glyph-name="macron" unicode="&#xaf;" horiz-adv-x="500" 
d="M86 728h328v-92h-328v92z" />
    <glyph glyph-name="degree" unicode="&#xb0;" horiz-adv-x="456" 
d="M129 380c-28.667 16 -51 38.333 -67 67s-24 61.667 -24 99s8 70.333 24 99s38.333 51 67 67s61.667 24 99 24s70.333 -8 99 -24s51 -38.333 67 -67s24 -61.667 24 -99s-8 -70.333 -24 -99s-38.333 -51 -67 -67s-61.667 -24 -99 -24s-70.333 8 -99 24zM284.5 486.5
c14.333 15 21.5 34.833 21.5 59.5s-7.16699 44.5 -21.5 59.5s-33.166 22.5 -56.499 22.5s-42.166 -7.5 -56.499 -22.5s-21.5 -34.833 -21.5 -59.5s7.16699 -44.5 21.5 -59.5s33.166 -22.5 56.499 -22.5s42.166 7.5 56.499 22.5z" />
    <glyph glyph-name="plusminus" unicode="&#xb1;" horiz-adv-x="579" 
d="M539 521v-119h-188v-178h-123v178h-188v119h188v178h123v-178h188zM40 171h499v-117h-499v117z" />
    <glyph glyph-name="uni00B2" unicode="&#xb2;" horiz-adv-x="383" 
d="M342 412v-91.001h-319v91l156 150c19.333 18 32.166 31.833 38.499 41.5s9.5 20.167 9.5 31.5c0 30 -17.667 45 -53 45c-34 0 -71.667 -13.333 -113 -40l-47 80c56 38 113 57 171 57c48.667 0 86.167 -11.667 112.5 -35s39.5 -56.666 39.5 -99.999
c0 -25.333 -5.66699 -48 -17 -68s-32.666 -44.333 -63.999 -73l-96 -89h182z" />
    <glyph glyph-name="uni00B3" unicode="&#xb3;" horiz-adv-x="407" 
d="M328 552c20 -23.333 30 -53.334 30 -90.001c0 -47.333 -16 -83.833 -48 -109.5s-77.667 -38.5 -137 -38.5c-60.667 0 -113.667 15.333 -159 46l38 83c44 -21.333 84.333 -32 121 -32c48.667 0 73 18 73 54c0 17.333 -5.5 30.333 -16.5 39s-28.167 13 -51.5 13
c-16 0 -32.667 -2 -50 -6l-41 56l125 112h-181v91h310v-92l-99 -80c37.333 -7.33301 66 -22.666 86 -45.999z" />
    <glyph glyph-name="acute" unicode="&#xb4;" horiz-adv-x="500" 
d="M176 625l95 159h141v-10l-132 -159h-104v10z" />
    <glyph glyph-name="uni00B5" unicode="&#xb5;" horiz-adv-x="592" 
d="M520 546l0.000976562 -545.999h-123v77c-36 -54.667 -83.333 -82 -142 -82c-18 0 -33.667 2.33301 -47 7v-209h-136v453v300h136v-360c0 -24 6.83301 -42.333 20.5 -55s32.834 -19 57.501 -19c19.333 0 36.666 3.66699 51.999 11s30.666 18.666 45.999 33.999v389h136z
" />
    <glyph glyph-name="paragraph" unicode="&#xb6;" horiz-adv-x="576" 
d="M498 0h-96v635h-70v-635h-92v304c-70.667 2.66699 -125.334 22 -164.001 58s-58 86.333 -58 151c0 67.333 20.833 119.333 62.5 156s100.834 55 177.501 55h240v-724z" />
    <glyph glyph-name="periodcentered" unicode="&#xb7;" horiz-adv-x="266" 
d="M71.5 280.5c-15 14.333 -22.5 33.832 -22.5 58.499c0 25.333 7.33301 45 22 59s35.334 21 62.001 21c26 0 46.5 -7.16699 61.5 -21.5s22.5 -33.5 22.5 -57.5c0 -25.333 -7.33301 -45.166 -22 -59.499s-35.334 -21.5 -62.001 -21.5c-26 0 -46.5 7.16699 -61.5 21.5z" />
    <glyph glyph-name="cedilla" unicode="&#xb8;" horiz-adv-x="500" 
d="M352.5 -71.5c19.667 -15 29.5 -36.168 29.5 -63.501c0 -33.333 -12 -59.166 -36 -77.499s-58 -27.5 -102 -27.5c-45.333 0 -86 8.66699 -122 26l21 62c35.333 -11.333 64 -17 86 -17c32.667 0 49 10.333 49 31c0 19.333 -14.333 29 -43 29c-14 0 -27 -2.33301 -39 -7
l-30 34l42 102l88 -6l-48 -65c9.33301 1.33301 16.333 2 21 2c36 0 63.833 -7.5 83.5 -22.5z" />
    <glyph glyph-name="uni00B9" unicode="&#xb9;" horiz-adv-x="360" 
d="M251 770v-449h-108v344l-98 -34l-29 84l142 55h93z" />
    <glyph glyph-name="ordmasculine" unicode="&#xba;" horiz-adv-x="524" 
d="M112 339c-35.333 38 -52.999 94 -52.999 168s17.667 129.833 53 167.5s85.666 56.5 150.999 56.5c64.667 0 114.5 -18.833 149.5 -56.5s52.5 -93.5 52.5 -167.5s-17.667 -130 -53 -168s-85.333 -57 -150 -57s-114.667 19 -150 57zM349.001 507
c0 83.333 -28.667 125 -86 125c-58.667 0 -88 -41.667 -88 -125c0 -84 29 -126 87 -126s87 42 87 126zM95.001 198h335v-94h-335v94z" />
    <glyph glyph-name="guillemotright" unicode="&#xbb;" horiz-adv-x="609" 
d="M340 291l-240 -276l-81 78l174 197l-174 199l82 78zM592 291l-240 -276l-81 78l174 197l-174 199l82 78z" />
    <glyph glyph-name="onequarter" unicode="&#xbc;" horiz-adv-x="951" 
d="M711 701l-402 -727l-87 49l402 727zM143 275v344l-98 -34l-29 84l142 55h93v-449h-108zM932 162v-89h-51v-73h-105v73h-206v89l161 287h150v-287h51zM776 162v193l-96 -193h96z" />
    <glyph glyph-name="onehalf" unicode="&#xbd;" horiz-adv-x="994" 
d="M711 701l-402 -727l-87 49l402 727zM143 275v344l-98 -34l-29 84l142 55h93v-449h-108zM955 91v-91.001h-319v91l156 150c19.333 18 32.166 31.833 38.499 41.5s9.5 20.167 9.5 31.5c0 30 -17.667 45 -53 45c-34 0 -71.667 -13.333 -113 -40l-47 80c56 38 113 57 171 57
c48.667 0 86.167 -11.667 112.5 -35s39.5 -56.666 39.5 -99.999c0 -25.333 -5.66699 -48 -17 -68s-32.666 -44.333 -63.999 -73l-96 -89h182z" />
    <glyph glyph-name="threequarters" unicode="&#xbe;" horiz-adv-x="1016" 
d="M776 701l-402 -727l-87 49l402 727zM310 306.5c-32 -25.667 -77.667 -38.501 -137 -38.501c-60.667 0 -113.667 15.333 -159 46l38 83c44 -21.333 84.333 -32 121 -32c48.667 0 73 18 73 54c0 17.333 -5.5 30.333 -16.5 39s-28.167 13 -51.5 13c-16 0 -32.667 -2 -50 -6
l-41 56l125 112h-181v91h310v-92l-99 -80c37.333 -7.33301 66 -22.666 86 -45.999s30 -53.333 30 -90c0 -47.333 -16 -83.833 -48 -109.5zM997 161.999v-89h-51v-73h-105v73h-206v89l161 287h150v-287h51zM841 161.999v193l-96 -193h96z" />
    <glyph glyph-name="questiondown" unicode="&#xbf;" horiz-adv-x="472" 
d="M351.5 525.5c15 -14.333 22.5 -33.832 22.5 -58.499c0 -25.333 -7.33301 -45 -22 -59s-35.334 -21 -62.001 -21c-26 0 -46.5 7.16699 -61.5 21.5s-22.5 33.5 -22.5 57.5c0 25.333 7.33301 45.166 22 59.499s35.334 21.5 62.001 21.5c26 0 46.5 -7.16699 61.5 -21.5z
M355 266.001c0 -40 -7 -73 -21 -99s-39.667 -53.667 -77 -83c-27.333 -22 -45.666 -39.333 -54.999 -52s-14 -26.667 -14 -42c0 -44 29 -66 87 -66c48 0 100.333 16.333 157 49l54 -111c-30.667 -20.667 -65.5 -36.667 -104.5 -48s-78.833 -17 -119.5 -17
c-68.667 0 -121.834 16.5 -159.501 49.5s-56.5 79.833 -56.5 140.5c0 33.333 7.33301 61.666 22 84.999s41.334 50 80.001 80c33.333 26 55.666 46.833 66.999 62.5s17 33.834 17 54.501c0 8 -1 23.333 -3 46h123c2 -24.667 3 -41 3 -49z" />
    <glyph glyph-name="Agrave" unicode="&#xc0;" horiz-adv-x="670" 
d="M306 781l-173 133v12h151l136 -133v-12h-114zM463 156h-258l-46 -156h-144l245 724h150l245 -724h-145zM428 276l-94 315l-93 -315h187z" />
    <glyph glyph-name="Aacute" unicode="&#xc1;" horiz-adv-x="670" 
d="M363 781h-114v12l145 133h151v-12zM463 156h-258l-46 -156h-144l245 724h150l245 -724h-145zM428 276l-94 315l-93 -315h187z" />
    <glyph glyph-name="Acircumflex" unicode="&#xc2;" horiz-adv-x="670" 
d="M251 781h-98v12l117 133h130l117 -133v-12h-101l-83 76zM463 156h-258l-46 -156h-144l245 724h150l245 -724h-145zM428 276l-94 315l-93 -315h187z" />
    <glyph glyph-name="Atilde" unicode="&#xc3;" horiz-adv-x="670" 
d="M225 787h-75c0.666992 47.333 11 84.166 31 110.499s47.667 39.5 83 39.5c18 0 33.5 -3 46.5 -9s28.167 -14.667 45.5 -26c10 -7.33301 18.833 -12.833 26.5 -16.5s15.5 -5.5 23.5 -5.5c22 0 35 18.333 39 55h75c-0.666992 -47.333 -11 -84.166 -31 -110.499
s-47.667 -39.5 -83 -39.5c-18 0 -33.5 3 -46.5 9s-28.167 14.667 -45.5 26c-10 7.33301 -18.833 12.833 -26.5 16.5s-15.5 5.5 -23.5 5.5c-22 0 -35 -18.333 -39 -55zM463 156h-258l-46 -156h-144l245 724h150l245 -724h-145zM428 276l-94 315l-93 -315h187z" />
    <glyph glyph-name="Adieresis" unicode="&#xc4;" horiz-adv-x="670" 
d="M178 791c-12.667 12.667 -19 29.666 -19 50.999c0 22.667 6.33301 40.334 19 53.001s30.334 19 53.001 19s40.5 -6.33301 53.5 -19s19.5 -30 19.5 -52c0 -22.667 -6.33301 -40.167 -19 -52.5s-30.667 -18.5 -54 -18.5c-22.667 0 -40.334 6.33301 -53.001 19zM385 790.999
c-12.667 12.667 -19 29.666 -19 50.999c0 22.667 6.33301 40.334 19 53.001s30.334 19 53.001 19s40.5 -6.33301 53.5 -19s19.5 -30 19.5 -52c0 -22.667 -6.33301 -40.167 -19 -52.5s-30.667 -18.5 -54 -18.5c-22.667 0 -40.334 6.33301 -53.001 19zM463 155.998h-258
l-46 -156h-144l245 724h150l245 -724h-145zM428 275.998l-94 315l-93 -315h187z" />
    <glyph glyph-name="Aring" unicode="&#xc5;" horiz-adv-x="670" 
d="M234 796.5c-24 21 -36 50.5 -36 88.5s12 67.5 36 88.5s57.667 31.5 101 31.5s77 -10.5 101 -31.5s36 -50.5 36 -88.5s-12 -67.5 -36 -88.5s-57.667 -31.5 -101 -31.5s-77 10.5 -101 31.5zM282 885c0 -36 17.667 -54 53 -54s53 18 53 54s-17.667 54 -53 54
s-53 -18 -53 -54zM463 156h-258l-46 -156h-144l245 724h150l245 -724h-145zM428 276l-94 315l-93 -315h187z" />
    <glyph glyph-name="AE" unicode="&#xc6;" horiz-adv-x="932" 
d="M902 123v-123h-452v147h-237l-73 -147h-146l369 724h138h387v-123h-304v-169h220v-124h-220v-185h318zM450 267v355l-177 -355h177z" />
    <glyph glyph-name="Ccedilla" unicode="&#xc7;" horiz-adv-x="603" 
d="M454.5 -71.5c19.667 -15 29.498 -36.168 29.498 -63.501c0 -33.333 -12 -59.166 -36 -77.499s-58 -27.5 -102 -27.5c-45.333 0 -86 8.66699 -122 26l21 62c35.333 -11.333 64 -17 86 -17c32.667 0 49 10.333 49 31c0 19.333 -14.333 29 -43 29c-14 0 -27 -2.33301 -39 -7
l-30 34l31 76c-83.333 14 -147.666 51.5 -192.999 112.5s-68 141.167 -68 240.5c0 80 13.333 149.333 40 208s64.834 103.667 114.501 135s108.167 47 175.5 47c37.333 0 74 -5 110 -15s67 -24.333 93 -43l-47 -105c-52 26 -104.667 39 -158 39
c-59.333 0 -105.166 -22.333 -137.499 -67s-48.5 -107.667 -48.5 -189c0 -162 66.333 -243 199 -243c61.333 0 111.666 11.667 150.999 35l47 -104c-21.333 -17.333 -49.333 -31 -84 -41s-72.667 -15.333 -114 -16l-29 -39c9.33301 1.33301 16.333 2 21 2
c36 0 63.833 -7.5 83.5 -22.5z" />
    <glyph glyph-name="Egrave" unicode="&#xc8;" horiz-adv-x="578" 
d="M276 781l-173 133v12h151l136 -133v-12h-114zM548 123v-123h-470v724h456v-123h-318v-169h234v-124h-234v-185h332z" />
    <glyph glyph-name="Eacute" unicode="&#xc9;" horiz-adv-x="578" 
d="M333 781h-114v12l145 133h151v-12zM548 123v-123h-470v724h456v-123h-318v-169h234v-124h-234v-185h332z" />
    <glyph glyph-name="Ecircumflex" unicode="&#xca;" horiz-adv-x="578" 
d="M221 781h-98v12l117 133h130l117 -133v-12h-101l-83 76zM548 123v-123h-470v724h456v-123h-318v-169h234v-124h-234v-185h332z" />
    <glyph glyph-name="Edieresis" unicode="&#xcb;" horiz-adv-x="578" 
d="M148 791c-12.667 12.667 -19 29.666 -19 50.999c0 22.667 6.33301 40.334 19 53.001s30.334 19 53.001 19s40.5 -6.33301 53.5 -19s19.5 -30 19.5 -52c0 -22.667 -6.33301 -40.167 -19 -52.5s-30.667 -18.5 -54 -18.5c-22.667 0 -40.334 6.33301 -53.001 19zM355 790.999
c-12.667 12.667 -19 29.666 -19 50.999c0 22.667 6.33301 40.334 19 53.001s30.334 19 53.001 19s40.5 -6.33301 53.5 -19s19.5 -30 19.5 -52c0 -22.667 -6.33301 -40.167 -19 -52.5s-30.667 -18.5 -54 -18.5c-22.667 0 -40.334 6.33301 -53.001 19zM548 122.998v-123h-470
v724h456v-123h-318v-169h234v-124h-234v-185h332z" />
    <glyph glyph-name="Igrave" unicode="&#xcc;" horiz-adv-x="298" 
d="M-53 914v12h151l136 -133v-12h-114zM80 724h138v-724h-138v724z" />
    <glyph glyph-name="Iacute" unicode="&#xcd;" horiz-adv-x="298" 
d="M63 793l145 133h151v-12l-182 -133h-114v12zM80 724h138v-724h-138v724z" />
    <glyph glyph-name="Icircumflex" unicode="&#xce;" horiz-adv-x="298" 
d="M331 793v-12h-101l-83 76l-82 -76h-98v12l117 133h130zM80 724h138v-724h-138v724z" />
    <glyph glyph-name="Idieresis" unicode="&#xcf;" horiz-adv-x="298" 
d="M-8 791c-12.667 12.667 -19 29.666 -19 50.999c0 22.667 6.33301 40.334 19 53.001s30.334 19 53.001 19s40.5 -6.33301 53.5 -19s19.5 -30 19.5 -52c0 -22.667 -6.33301 -40.167 -19 -52.5s-30.667 -18.5 -54 -18.5c-22.667 0 -40.334 6.33301 -53.001 19zM199 790.999
c-12.667 12.667 -19 29.666 -19 50.999c0 22.667 6.33301 40.334 19 53.001s30.334 19 53.001 19s40.5 -6.33301 53.5 -19s19.5 -30 19.5 -52c0 -22.667 -6.33301 -40.167 -19 -52.5s-30.667 -18.5 -54 -18.5c-22.667 0 -40.334 6.33301 -53.001 19zM80 723.998h138v-724
h-138v724z" />
    <glyph glyph-name="Eth" unicode="&#xd0;" horiz-adv-x="694" 
d="M562.5 633c55.667 -60.667 83.5 -150.666 83.5 -269.999c0 -120.667 -27.833 -211.334 -83.5 -272.001s-136.834 -91 -243.501 -91h-240v314h-64v105h64v305h240c106.667 0 187.834 -30.333 243.501 -91zM504 363.001c0 158.667 -62.667 238 -188 238h-99v-182h153v-105
h-153v-191h98c126 0 189 80 189 240z" />
    <glyph glyph-name="Ntilde" unicode="&#xd1;" horiz-adv-x="726" 
d="M253 787h-75c0.666992 47.333 11 84.166 31 110.499s47.667 39.5 83 39.5c18 0 33.5 -3 46.5 -9s28.167 -14.667 45.5 -26c10 -7.33301 18.833 -12.833 26.5 -16.5s15.5 -5.5 23.5 -5.5c22 0 35 18.333 39 55h75c-0.666992 -47.333 -11 -84.166 -31 -110.499
s-47.667 -39.5 -83 -39.5c-18 0 -33.5 3 -46.5 9s-28.167 14.667 -45.5 26c-10 7.33301 -18.833 12.833 -26.5 16.5s-15.5 5.5 -23.5 5.5c-22 0 -35 -18.333 -39 -55zM648 724v-724h-133l-301 491v-491h-136v724h133l301 -489v489h136z" />
    <glyph glyph-name="Ograve" unicode="&#xd2;" horiz-adv-x="716" 
d="M156 914v12h151l136 -133v-12h-114zM127.5 81.5c-53 63 -79.5 156.5 -79.5 280.5s26.5 217.5 79.5 280.5s129.833 94.5 230.5 94.5s177.5 -31.5 230.5 -94.5s79.5 -156.5 79.5 -280.5s-26.5 -217.5 -79.5 -280.5s-129.833 -94.5 -230.5 -94.5s-177.5 31.5 -230.5 94.5z
M526 362c0 168 -56 252 -168 252s-168 -84 -168 -252s56 -252 168 -252s168 84 168 252z" />
    <glyph glyph-name="Oacute" unicode="&#xd3;" horiz-adv-x="716" 
d="M272 793l145 133h151v-12l-182 -133h-114v12zM127.5 81.5c-53 63 -79.5 156.5 -79.5 280.5s26.5 217.5 79.5 280.5s129.833 94.5 230.5 94.5s177.5 -31.5 230.5 -94.5s79.5 -156.5 79.5 -280.5s-26.5 -217.5 -79.5 -280.5s-129.833 -94.5 -230.5 -94.5
s-177.5 31.5 -230.5 94.5zM526 362c0 168 -56 252 -168 252s-168 -84 -168 -252s56 -252 168 -252s168 84 168 252z" />
    <glyph glyph-name="Ocircumflex" unicode="&#xd4;" horiz-adv-x="716" 
d="M274 781h-98v12l117 133h130l117 -133v-12h-101l-83 76zM588.5 642.5c53 -63 79.5 -156.5 79.5 -280.5s-26.5 -217.5 -79.5 -280.5s-129.833 -94.5 -230.5 -94.5s-177.5 31.5 -230.5 94.5s-79.5 156.5 -79.5 280.5s26.5 217.5 79.5 280.5s129.833 94.5 230.5 94.5
s177.5 -31.5 230.5 -94.5zM526 362c0 168 -56 252 -168 252s-168 -84 -168 -252s56 -252 168 -252s168 84 168 252z" />
    <glyph glyph-name="Otilde" unicode="&#xd5;" horiz-adv-x="716" 
d="M382.5 794c-13 6 -28.167 14.667 -45.5 26c-10 7.33301 -18.833 12.833 -26.5 16.5s-15.5 5.5 -23.5 5.5c-22 0 -35 -18.333 -39 -55h-75c0.666992 47.333 11 84.166 31 110.499s47.667 39.5 83 39.5c18 0 33.5 -3 46.5 -9s28.167 -14.667 45.5 -26
c10 -7.33301 18.833 -12.833 26.5 -16.5s15.5 -5.5 23.5 -5.5c22 0 35 18.333 39 55h75c-0.666992 -47.333 -11 -84.166 -31 -110.499s-47.667 -39.5 -83 -39.5c-18 0 -33.5 3 -46.5 9zM127.5 81.5c-53 63 -79.5 156.5 -79.5 280.5s26.5 217.5 79.5 280.5
s129.833 94.5 230.5 94.5s177.5 -31.5 230.5 -94.5s79.5 -156.5 79.5 -280.5s-26.5 -217.5 -79.5 -280.5s-129.833 -94.5 -230.5 -94.5s-177.5 31.5 -230.5 94.5zM526 362c0 168 -56 252 -168 252s-168 -84 -168 -252s56 -252 168 -252s168 84 168 252z" />
    <glyph glyph-name="Odieresis" unicode="&#xd6;" horiz-adv-x="716" 
d="M201 791c-12.667 12.667 -19 29.666 -19 50.999c0 22.667 6.33301 40.334 19 53.001s30.334 19 53.001 19s40.5 -6.33301 53.5 -19s19.5 -30 19.5 -52c0 -22.667 -6.33301 -40.167 -19 -52.5s-30.667 -18.5 -54 -18.5c-22.667 0 -40.334 6.33301 -53.001 19zM408 790.999
c-12.667 12.667 -19 29.666 -19 50.999c0 22.667 6.33301 40.334 19 53.001s30.334 19 53.001 19s40.5 -6.33301 53.5 -19s19.5 -30 19.5 -52c0 -22.667 -6.33301 -40.167 -19 -52.5s-30.667 -18.5 -54 -18.5c-22.667 0 -40.334 6.33301 -53.001 19zM127.5 81.498
c-53 63 -79.5 156.5 -79.5 280.5s26.5 217.5 79.5 280.5s129.833 94.5 230.5 94.5s177.5 -31.5 230.5 -94.5s79.5 -156.5 79.5 -280.5s-26.5 -217.5 -79.5 -280.5s-129.833 -94.5 -230.5 -94.5s-177.5 31.5 -230.5 94.5zM526 361.998c0 168 -56 252 -168 252
s-168 -84 -168 -252s56 -252 168 -252s168 84 168 252z" />
    <glyph glyph-name="multiply" unicode="&#xd7;" horiz-adv-x="579" 
d="M373 368l148 -155l-85 -87l-146 154l-147 -154l-85 87l148 155l-148 155l85 87l147 -154l146 154l85 -87z" />
    <glyph glyph-name="Oslash" unicode="&#xd8;" horiz-adv-x="716" 
d="M698 724l-91 -113c40.667 -63.333 61 -146.333 61 -249c0 -124 -26.5 -217.5 -79.5 -280.5s-129.833 -94.5 -230.5 -94.5c-75.333 0 -138.666 20 -189.999 60l-42 -57h-108v10l91 113c-40.667 63.333 -61 146.333 -61 249c0 124 26.5 217.5 79.5 280.5
s129.833 94.5 230.5 94.5c75.333 0 138.666 -20 189.999 -60l42 57h108v-10zM186 362c0 -55.333 4.66699 -99.667 14 -133l272 349c-26.667 26.667 -64.667 40 -114 40c-114.667 0 -172 -85.333 -172 -256zM530 361.999c0 55.333 -4.66699 99.667 -14 133l-272 -349
c26.667 -26.667 64.667 -40 114 -40c114.667 0 172 85.333 172 256z" />
    <glyph glyph-name="Ugrave" unicode="&#xd9;" horiz-adv-x="688" 
d="M142 914v12h151l136 -133v-12h-114zM143.5 55.5c-47 45.667 -70.5 110.167 -70.5 193.5v475h138v-465c0 -99.333 44 -149 132 -149c89.333 0 134 49.667 134 149v465h138v-475c0 -83.333 -23.667 -147.833 -71 -193.5s-114.333 -68.5 -201 -68.5
c-86 0 -152.5 22.833 -199.5 68.5z" />
    <glyph glyph-name="Uacute" unicode="&#xda;" horiz-adv-x="688" 
d="M258 793l145 133h151v-12l-182 -133h-114v12zM143.5 55.5c-47 45.667 -70.5 110.167 -70.5 193.5v475h138v-465c0 -99.333 44 -149 132 -149c89.333 0 134 49.667 134 149v465h138v-475c0 -83.333 -23.667 -147.833 -71 -193.5s-114.333 -68.5 -201 -68.5
c-86 0 -152.5 22.833 -199.5 68.5z" />
    <glyph glyph-name="Ucircumflex" unicode="&#xdb;" horiz-adv-x="688" 
d="M260 781h-98v12l117 133h130l117 -133v-12h-101l-83 76zM615 724v-475c0 -83.333 -23.667 -147.833 -71 -193.5s-114.333 -68.5 -201 -68.5c-86 0 -152.5 22.833 -199.5 68.5s-70.5 110.167 -70.5 193.5v475h138v-465c0 -99.333 44 -149 132 -149
c89.333 0 134 49.667 134 149v465h138z" />
    <glyph glyph-name="Udieresis" unicode="&#xdc;" horiz-adv-x="688" 
d="M187 791c-12.667 12.667 -19 29.666 -19 50.999c0 22.667 6.33301 40.334 19 53.001s30.334 19 53.001 19s40.5 -6.33301 53.5 -19s19.5 -30 19.5 -52c0 -22.667 -6.33301 -40.167 -19 -52.5s-30.667 -18.5 -54 -18.5c-22.667 0 -40.334 6.33301 -53.001 19zM394 790.999
c-12.667 12.667 -19 29.666 -19 50.999c0 22.667 6.33301 40.334 19 53.001s30.334 19 53.001 19s40.5 -6.33301 53.5 -19s19.5 -30 19.5 -52c0 -22.667 -6.33301 -40.167 -19 -52.5s-30.667 -18.5 -54 -18.5c-22.667 0 -40.334 6.33301 -53.001 19zM143.5 55.498
c-47 45.667 -70.5 110.167 -70.5 193.5v475h138v-465c0 -99.333 44 -149 132 -149c89.333 0 134 49.667 134 149v465h138v-475c0 -83.333 -23.667 -147.833 -71 -193.5s-114.333 -68.5 -201 -68.5c-86 0 -152.5 22.833 -199.5 68.5z" />
    <glyph glyph-name="Yacute" unicode="&#xdd;" horiz-adv-x="590" 
d="M322 781h-114v12l145 133h151v-12zM579 724l-216 -485v-239h-138v239l-214 485h147l138 -335l137 335h146z" />
    <glyph glyph-name="Thorn" unicode="&#xde;" horiz-adv-x="617" 
d="M520.5 551c42.333 -42.667 63.501 -102.667 63.501 -180c0 -78.667 -21.833 -139.5 -65.5 -182.5s-104.834 -64.167 -183.501 -63.5h-119v-125h-138v724h138v-109h126c76.667 0 136.167 -21.333 178.5 -64zM442.001 368c0 82.667 -35.667 124 -107 124h-119v-244h126
c66.667 0 100 40 100 120z" />
    <glyph glyph-name="germandbls" unicode="&#xdf;" horiz-adv-x="604" 
d="M575 216c0 -70.667 -19.832 -125.5 -59.499 -164.5s-95.834 -58.5 -168.501 -58.5c-30.667 0 -60.667 4.33301 -90 13l22 109c23.333 -6 46 -9 68 -9c66.667 0 100 32.667 100 98c0 88 -57.667 135.333 -173 142v102c34.667 16 60 34.833 76 56.5s24 48.167 24 79.5
c0 56 -25 84 -75 84c-60.667 0 -91 -40.333 -91 -121v-547h-136v547c0 76.667 19.333 135.834 58 177.501s93.667 62.5 165 62.5c65.333 0 115.833 -16.333 151.5 -49s53.5 -79 53.5 -139c0 -74 -30 -131 -90 -171c110 -26.667 165 -97.334 165 -212.001z" />
    <glyph glyph-name="agrave" unicode="&#xe0;" horiz-adv-x="536" 
d="M416 512c36.667 -31.333 55 -75.3311 55 -131.998v-380h-121v80c-32.667 -60.667 -86.334 -91 -161.001 -91c-52 0 -92.167 14.333 -120.5 43s-42.5 69 -42.5 121c0 65.333 24.5 113.166 73.5 143.499s128.167 46.166 237.5 47.499v20c0 50 -34 75 -102 75
c-41.333 0 -83.666 -9.33301 -126.999 -28l-34 104c62 29.333 124 44 186 44c67.333 0 119.333 -15.667 156 -47zM337 156.002v98c-64 -0.666992 -110.333 -8.16699 -139 -22.5s-43 -36.833 -43 -67.5c0 -40.667 23 -61 69 -61c43.333 0 81 17.667 113 53zM107 774.002v10
h141l87 -159v-10h-104z" />
    <glyph glyph-name="aacute" unicode="&#xe1;" horiz-adv-x="536" 
d="M416 512c36.667 -31.333 55 -75.3311 55 -131.998v-380h-121v80c-32.667 -60.667 -86.334 -91 -161.001 -91c-52 0 -92.167 14.333 -120.5 43s-42.5 69 -42.5 121c0 65.333 24.5 113.166 73.5 143.499s128.167 46.166 237.5 47.499v20c0 50 -34 75 -102 75
c-41.333 0 -83.666 -9.33301 -126.999 -28l-34 104c62 29.333 124 44 186 44c67.333 0 119.333 -15.667 156 -47zM337 156.002v98c-64 -0.666992 -110.333 -8.16699 -139 -22.5s-43 -36.833 -43 -67.5c0 -40.667 23 -61 69 -61c43.333 0 81 17.667 113 53zM183 625.002
l95 159h141v-10l-132 -159h-104v10z" />
    <glyph glyph-name="acircumflex" unicode="&#xe2;" horiz-adv-x="536" 
d="M416 512c36.667 -31.333 55 -75.3311 55 -131.998v-380h-121v80c-32.667 -60.667 -86.334 -91 -161.001 -91c-52 0 -92.167 14.333 -120.5 43s-42.5 69 -42.5 121c0 65.333 24.5 113.166 73.5 143.499s128.167 46.166 237.5 47.499v20c0 50 -34 75 -102 75
c-41.333 0 -83.666 -9.33301 -126.999 -28l-34 104c62 29.333 124 44 186 44c67.333 0 119.333 -15.667 156 -47zM337 156.002v98c-64 -0.666992 -110.333 -8.16699 -139 -22.5s-43 -36.833 -43 -67.5c0 -40.667 23 -61 69 -61c43.333 0 81 17.667 113 53zM421 625.002v-10
h-95l-71 88l-70 -88h-92v10l102 159h124z" />
    <glyph glyph-name="atilde" unicode="&#xe3;" horiz-adv-x="536" 
d="M416 512c36.667 -31.333 55 -75.3311 55 -131.998v-380h-121v80c-32.667 -60.667 -86.334 -91 -161.001 -91c-52 0 -92.167 14.333 -120.5 43s-42.5 69 -42.5 121c0 65.333 24.5 113.166 73.5 143.499s128.167 46.166 237.5 47.499v20c0 50 -34 75 -102 75
c-41.333 0 -83.666 -9.33301 -126.999 -28l-34 104c62 29.333 124 44 186 44c67.333 0 119.333 -15.667 156 -47zM337 156.002v98c-64 -0.666992 -110.333 -8.16699 -139 -22.5s-43 -36.833 -43 -67.5c0 -40.667 23 -61 69 -61c43.333 0 81 17.667 113 53zM281.5 624.002
c-13 6 -28.167 14.667 -45.5 26c-10 7.33301 -18.833 12.833 -26.5 16.5s-15.5 5.5 -23.5 5.5c-22 0 -35 -18.333 -39 -55h-75c0.666992 47.333 11 84.166 31 110.499s47.667 39.5 83 39.5c18 0 33.5 -3 46.5 -9s28.167 -14.667 45.5 -26
c10 -7.33301 18.833 -12.833 26.5 -16.5s15.5 -5.5 23.5 -5.5c22 0 35 18.333 39 55h75c-0.666992 -47.333 -11 -84.166 -31 -110.499s-47.667 -39.5 -83 -39.5c-18 0 -33.5 3 -46.5 9z" />
    <glyph glyph-name="adieresis" unicode="&#xe4;" horiz-adv-x="536" 
d="M106 633c-12.667 12.667 -19 29.666 -19 50.999c0 22.667 6.33301 40.334 19 53.001s30.334 19 53.001 19s40.5 -6.33301 53.5 -19s19.5 -30 19.5 -52c0 -22.667 -6.33301 -40.167 -19 -52.5s-30.667 -18.5 -54 -18.5c-22.667 0 -40.334 6.33301 -53.001 19zM301 632.999
c-12.667 12.667 -19 29.666 -19 50.999c0 22.667 6.33301 40.334 19 53.001s30.334 19 53.001 19s40.5 -6.33301 53.5 -19s19.5 -30 19.5 -52c0 -22.667 -6.33301 -40.167 -19 -52.5s-30.667 -18.5 -54 -18.5c-22.667 0 -40.334 6.33301 -53.001 19zM416 511.998
c36.667 -31.333 55 -75.3311 55 -131.998v-380h-121v80c-32.667 -60.667 -86.334 -91 -161.001 -91c-52 0 -92.167 14.333 -120.5 43s-42.5 69 -42.5 121c0 65.333 24.5 113.166 73.5 143.499s128.167 46.166 237.5 47.499v20c0 50 -34 75 -102 75
c-41.333 0 -83.666 -9.33301 -126.999 -28l-34 104c62 29.333 124 44 186 44c67.333 0 119.333 -15.667 156 -47zM337 156v98c-64 -0.666992 -110.333 -8.16699 -139 -22.5s-43 -36.833 -43 -67.5c0 -40.667 23 -61 69 -61c43.333 0 81 17.667 113 53z" />
    <glyph glyph-name="aring" unicode="&#xe5;" horiz-adv-x="536" 
d="M416 512c36.667 -31.333 55 -75.3311 55 -131.998v-380h-121v80c-32.667 -60.667 -86.334 -91 -161.001 -91c-52 0 -92.167 14.333 -120.5 43s-42.5 69 -42.5 121c0 65.333 24.5 113.166 73.5 143.499s128.167 46.166 237.5 47.499v20c0 50 -34 75 -102 75
c-41.333 0 -83.666 -9.33301 -126.999 -28l-34 104c62 29.333 124 44 186 44c67.333 0 119.333 -15.667 156 -47zM337 156.002v98c-64 -0.666992 -110.333 -8.16699 -139 -22.5s-43 -36.833 -43 -67.5c0 -40.667 23 -61 69 -61c43.333 0 81 17.667 113 53zM156.5 631.502
c-23.667 21 -35.5 50.5 -35.5 88.5s11.833 67.5 35.5 88.5s57.167 31.5 100.5 31.5s76.833 -10.5 100.5 -31.5s35.5 -50.5 35.5 -88.5s-11.833 -67.5 -35.5 -88.5s-57.167 -31.5 -100.5 -31.5s-76.833 10.5 -100.5 31.5zM310 720.002c0 36.667 -17.667 55 -53 55
s-53 -18.333 -53 -55s17.667 -55 53 -55s53 18.333 53 55z" />
    <glyph glyph-name="ae" unicode="&#xe6;" horiz-adv-x="828" 
d="M789 230l-325.998 0.000976562c11.333 -80 55.666 -120 132.999 -120c41.333 0 84.333 10.667 129 32l48 -101c-26.667 -16.667 -56.667 -29.667 -90 -39s-67.333 -14 -102 -14c-46.667 0 -87.334 8.66699 -122.001 26s-62.667 42.666 -84 75.999
c-28 -35.333 -57.167 -61 -87.5 -77s-64.166 -24 -101.499 -24c-50.667 0 -90 14 -118 42s-42 67.667 -42 119c0 64 24.167 110.833 72.5 140.5s125.833 45.167 232.5 46.5v27c0 50 -33 75 -99 75c-40.667 0 -82 -9.33301 -124 -28l-34 104c62 29.333 123 44 183 44
c70 0 120.667 -21.333 152 -64c18 20.667 40.333 36.5 67 47.5s56 16.5 88 16.5c73.333 0 130.166 -23 170.499 -69s60.5 -110.667 60.5 -194c0 -24.667 -2 -46.667 -6 -66zM462.002 321.001h198c-0.666992 38 -9.66699 67.333 -27 88s-41.333 31 -72 31
c-57.333 0 -90.333 -39.667 -99 -119zM341.002 168.001c-6.66699 25.333 -10.333 51.667 -11 79c-61.333 -0.666992 -105.833 -8 -133.5 -22s-41.5 -35.667 -41.5 -65c0 -38 22 -57 66 -57c45.333 0 85.333 21.667 120 65z" />
    <glyph glyph-name="ccedilla" unicode="&#xe7;" horiz-adv-x="483" 
d="M370.5 -71.5c19.667 -15 29.498 -36.167 29.498 -63.5c0 -33.333 -12 -59.166 -36 -77.499s-58 -27.5 -102 -27.5c-45.333 0 -86 8.66699 -122 26l21 62c35.333 -11.333 64 -17 86 -17c32.667 0 49 10.333 49 31c0 19.333 -14.333 29 -43 29c-14 0 -27 -2.33301 -39 -7
l-30 34l33 79c-58.667 14.667 -103.667 45 -135 91s-47 105 -47 177c0 58.667 10.667 110.167 32 154.5s51.5 78.666 90.5 102.999s84.167 36.5 135.5 36.5c30.667 0 60.5 -4.33301 89.5 -13s54.167 -20.667 75.5 -36l-48 -105c-47.333 20.667 -87 31 -119 31
c-37.333 0 -66.166 -14.333 -86.499 -43s-30.5 -69 -30.5 -121c0 -106.667 43.333 -160 130 -160c38 0 76 10 114 30l46 -104c-43.333 -33.333 -98.666 -50 -165.999 -50h-3l-29 -39c9.33301 1.33301 16.333 2 21 2c36 0 63.833 -7.5 83.5 -22.5z" />
    <glyph glyph-name="egrave" unicode="&#xe8;" horiz-adv-x="546" 
d="M507 230l-332 -0.000976562c11.333 -80 56.666 -120 135.999 -120c44 0 88 10.667 132 32l48 -101c-26.667 -16.667 -57 -29.667 -91 -39s-68.667 -14 -104 -14c-82.667 0 -146.5 24.833 -191.5 74.5s-67.5 119.834 -67.5 210.501c0 91.333 21.167 161.833 63.5 211.5
s101.833 74.5 178.5 74.5c74.667 0 132.334 -23 173.001 -69s61 -110.667 61 -194c0 -24.667 -2 -46.667 -6 -66zM174 320.999h204c-1.33301 38 -10.833 67.333 -28.5 88s-42.167 31 -73.5 31c-59.333 0 -93.333 -39.667 -102 -119zM128 773.999v10h141l87 -159v-10h-104z
" />
    <glyph glyph-name="eacute" unicode="&#xe9;" horiz-adv-x="546" 
d="M507 230l-332 -0.000976562c11.333 -80 56.666 -120 135.999 -120c44 0 88 10.667 132 32l48 -101c-26.667 -16.667 -57 -29.667 -91 -39s-68.667 -14 -104 -14c-82.667 0 -146.5 24.833 -191.5 74.5s-67.5 119.834 -67.5 210.501c0 91.333 21.167 161.833 63.5 211.5
s101.833 74.5 178.5 74.5c74.667 0 132.334 -23 173.001 -69s61 -110.667 61 -194c0 -24.667 -2 -46.667 -6 -66zM174 320.999h204c-1.33301 38 -10.833 67.333 -28.5 88s-42.167 31 -73.5 31c-59.333 0 -93.333 -39.667 -102 -119zM204 624.999l95 159h141v-10l-132 -159
h-104v10z" />
    <glyph glyph-name="ecircumflex" unicode="&#xea;" horiz-adv-x="546" 
d="M507 230l-332 -0.000976562c11.333 -80 56.666 -120 135.999 -120c44 0 88 10.667 132 32l48 -101c-26.667 -16.667 -57 -29.667 -91 -39s-68.667 -14 -104 -14c-82.667 0 -146.5 24.833 -191.5 74.5s-67.5 119.834 -67.5 210.501c0 91.333 21.167 161.833 63.5 211.5
s101.833 74.5 178.5 74.5c74.667 0 132.334 -23 173.001 -69s61 -110.667 61 -194c0 -24.667 -2 -46.667 -6 -66zM174 320.999h204c-1.33301 38 -10.833 67.333 -28.5 88s-42.167 31 -73.5 31c-59.333 0 -93.333 -39.667 -102 -119zM442 624.999v-10h-95l-71 88l-70 -88h-92
v10l102 159h124z" />
    <glyph glyph-name="edieresis" unicode="&#xeb;" horiz-adv-x="546" 
d="M127 633c-12.667 12.667 -19 29.666 -19 50.999c0 22.667 6.33301 40.334 19 53.001s30.334 19 53.001 19s40.5 -6.33301 53.5 -19s19.5 -30 19.5 -52c0 -22.667 -6.33301 -40.167 -19 -52.5s-30.667 -18.5 -54 -18.5c-22.667 0 -40.334 6.33301 -53.001 19zM322 632.999
c-12.667 12.667 -19 29.666 -19 50.999c0 22.667 6.33301 40.334 19 53.001s30.334 19 53.001 19s40.5 -6.33301 53.5 -19s19.5 -30 19.5 -52c0 -22.667 -6.33301 -40.167 -19 -52.5s-30.667 -18.5 -54 -18.5c-22.667 0 -40.334 6.33301 -53.001 19zM507 229.998
l-332 -0.000976562c11.333 -80 56.666 -120 135.999 -120c44 0 88 10.667 132 32l48 -101c-26.667 -16.667 -57 -29.667 -91 -39s-68.667 -14 -104 -14c-82.667 0 -146.5 24.833 -191.5 74.5s-67.5 119.834 -67.5 210.501c0 91.333 21.167 161.833 63.5 211.5
s101.833 74.5 178.5 74.5c74.667 0 132.334 -23 173.001 -69s61 -110.667 61 -194c0 -24.667 -2 -46.667 -6 -66zM174 320.997h204c-1.33301 38 -10.833 67.333 -28.5 88s-42.167 31 -73.5 31c-59.333 0 -93.333 -39.667 -102 -119z" />
    <glyph glyph-name="igrave" unicode="&#xec;" horiz-adv-x="284" 
d="M74 546h136v-546h-136v546zM-8 774v10h141l87 -159v-10h-104z" />
    <glyph glyph-name="iacute" unicode="&#xed;" horiz-adv-x="284" 
d="M74 546h136v-546h-136v546zM68 625l95 159h141v-10l-132 -159h-104v10z" />
    <glyph glyph-name="icircumflex" unicode="&#xee;" horiz-adv-x="284" 
d="M74 546h136v-546h-136v546zM306 625v-10h-95l-71 88l-70 -88h-92v10l102 159h124z" />
    <glyph glyph-name="idieresis" unicode="&#xef;" horiz-adv-x="284" 
d="M-5 633c-12.667 12.667 -19 29.666 -19 50.999c0 22.667 6.16699 40.334 18.5 53.001s29.833 19 52.5 19c22 0 39.167 -6.33301 51.5 -19s18.5 -30 18.5 -52c0 -22.667 -6.16699 -40.167 -18.5 -52.5s-29.5 -18.5 -51.5 -18.5s-39.333 6.33301 -52 19zM186 632.999
c-12.667 12.667 -19 29.666 -19 50.999c0 22.667 6.16699 40.334 18.5 53.001s29.833 19 52.5 19c22 0 39.167 -6.33301 51.5 -19s18.5 -30 18.5 -52c0 -22.667 -6.16699 -40.167 -18.5 -52.5s-29.5 -18.5 -51.5 -18.5s-39.333 6.33301 -52 19zM74 545.998h136v-546h-136
v546z" />
    <glyph glyph-name="eth" unicode="&#xf0;" horiz-adv-x="563" 
d="M484.5 515.5c26.333 -61.667 39.5 -134.833 39.5 -219.5c0 -103.333 -20.333 -180.666 -61 -231.999s-102 -77 -184 -77c-78.667 0 -139.167 23.333 -181.5 70s-63.5 115.667 -63.5 207c0 86 19.833 152.667 59.5 200s95.834 71 168.501 71
c43.333 0 78.333 -12.333 105 -37c-22 47.333 -55.667 89 -101 125l-118 -71l-40 70l89 45c-22.667 11.333 -46 21.333 -70 30l-28 10l30 85l28 -10c51.333 -18 96.666 -38.333 135.999 -61l104 64l40 -70l-76 -40c56 -44.667 97.167 -97.834 123.5 -159.501zM386 273.001
c0 46.667 -9.33301 82.833 -28 108.5s-44.667 38.5 -78 38.5c-71.333 0 -107 -52 -107 -156s35.333 -156 106 -156c71.333 0 107 55 107 165z" />
    <glyph glyph-name="ntilde" unicode="&#xf1;" horiz-adv-x="588" 
d="M478.5 512c28.333 -31.333 42.5 -75.333 42.5 -132v-380h-136v360c0 48.667 -26.333 73 -79 73c-18 0 -34.667 -3 -50 -9s-31.333 -15.333 -48 -28v-396h-136v546h123v-69c42.667 54.667 97.334 82 164.001 82c51.333 0 91.166 -15.667 119.499 -47zM321.5 624
c-13 6 -28.167 14.667 -45.5 26c-10 7.33301 -18.833 12.833 -26.5 16.5s-15.5 5.5 -23.5 5.5c-22 0 -35 -18.333 -39 -55h-75c0.666992 47.333 11 84.166 31 110.499s47.667 39.5 83 39.5c18 0 33.5 -3 46.5 -9s28.167 -14.667 45.5 -26
c10 -7.33301 18.833 -12.833 26.5 -16.5s15.5 -5.5 23.5 -5.5c22 0 35 18.333 39 55h75c-0.666992 -47.333 -11 -84.166 -31 -110.499s-47.667 -39.5 -83 -39.5c-18 0 -33.5 3 -46.5 9z" />
    <glyph glyph-name="ograve" unicode="&#xf2;" horiz-adv-x="563" 
d="M101.5 59c-41.667 48 -62.5 119.333 -62.5 214c0 94 21 165.167 63 213.5s102 72.5 180 72.5s137.833 -24 179.5 -72s62.5 -119.333 62.5 -214c0 -94 -21 -165.167 -63 -213.5s-102 -72.5 -180 -72.5s-137.833 24 -179.5 72zM385 273c0 110 -34.333 165 -103 165
c-69.333 0 -104 -55 -104 -165s34.333 -165 103 -165c69.333 0 104 55 104 165zM132 774v10h141l87 -159v-10h-104z" />
    <glyph glyph-name="oacute" unicode="&#xf3;" horiz-adv-x="563" 
d="M101.5 59c-41.667 48 -62.5 119.333 -62.5 214c0 94 21 165.167 63 213.5s102 72.5 180 72.5s137.833 -24 179.5 -72s62.5 -119.333 62.5 -214c0 -94 -21 -165.167 -63 -213.5s-102 -72.5 -180 -72.5s-137.833 24 -179.5 72zM385 273c0 110 -34.333 165 -103 165
c-69.333 0 -104 -55 -104 -165s34.333 -165 103 -165c69.333 0 104 55 104 165zM208 625l95 159h141v-10l-132 -159h-104v10z" />
    <glyph glyph-name="ocircumflex" unicode="&#xf4;" horiz-adv-x="563" 
d="M101.5 59c-41.667 48 -62.5 119.333 -62.5 214c0 94 21 165.167 63 213.5s102 72.5 180 72.5s137.833 -24 179.5 -72s62.5 -119.333 62.5 -214c0 -94 -21 -165.167 -63 -213.5s-102 -72.5 -180 -72.5s-137.833 24 -179.5 72zM385 273c0 110 -34.333 165 -103 165
c-69.333 0 -104 -55 -104 -165s34.333 -165 103 -165c69.333 0 104 55 104 165zM446 625v-10h-95l-71 88l-70 -88h-92v10l102 159h124z" />
    <glyph glyph-name="otilde" unicode="&#xf5;" horiz-adv-x="563" 
d="M101.5 59c-41.667 48 -62.5 119.333 -62.5 214c0 94 21 165.167 63 213.5s102 72.5 180 72.5s137.833 -24 179.5 -72s62.5 -119.333 62.5 -214c0 -94 -21 -165.167 -63 -213.5s-102 -72.5 -180 -72.5s-137.833 24 -179.5 72zM385 273c0 110 -34.333 165 -103 165
c-69.333 0 -104 -55 -104 -165s34.333 -165 103 -165c69.333 0 104 55 104 165zM306.5 624c-13 6 -28.167 14.667 -45.5 26c-10 7.33301 -18.833 12.833 -26.5 16.5s-15.5 5.5 -23.5 5.5c-22 0 -35 -18.333 -39 -55h-75c0.666992 47.333 11 84.166 31 110.499
s47.667 39.5 83 39.5c18 0 33.5 -3 46.5 -9s28.167 -14.667 45.5 -26c10 -7.33301 18.833 -12.833 26.5 -16.5s15.5 -5.5 23.5 -5.5c22 0 35 18.333 39 55h75c-0.666992 -47.333 -11 -84.166 -31 -110.499s-47.667 -39.5 -83 -39.5c-18 0 -33.5 3 -46.5 9z" />
    <glyph glyph-name="odieresis" unicode="&#xf6;" horiz-adv-x="563" 
d="M131 633c-12.667 12.667 -19 29.666 -19 50.999c0 22.667 6.33301 40.334 19 53.001s30.334 19 53.001 19s40.5 -6.33301 53.5 -19s19.5 -30 19.5 -52c0 -22.667 -6.33301 -40.167 -19 -52.5s-30.667 -18.5 -54 -18.5c-22.667 0 -40.334 6.33301 -53.001 19zM326 632.999
c-12.667 12.667 -19 29.666 -19 50.999c0 22.667 6.33301 40.334 19 53.001s30.334 19 53.001 19s40.5 -6.33301 53.5 -19s19.5 -30 19.5 -52c0 -22.667 -6.33301 -40.167 -19 -52.5s-30.667 -18.5 -54 -18.5c-22.667 0 -40.334 6.33301 -53.001 19zM101.5 58.998
c-41.667 48 -62.5 119.333 -62.5 214c0 94 21 165.167 63 213.5s102 72.5 180 72.5s137.833 -24 179.5 -72s62.5 -119.333 62.5 -214c0 -94 -21 -165.167 -63 -213.5s-102 -72.5 -180 -72.5s-137.833 24 -179.5 72zM385 272.998c0 110 -34.333 165 -103 165
c-69.333 0 -104 -55 -104 -165s34.333 -165 103 -165c69.333 0 104 55 104 165z" />
    <glyph glyph-name="divide" unicode="&#xf7;" horiz-adv-x="579" 
d="M235.5 509c-14.333 14 -21.5 32.333 -21.5 55s7.16699 41 21.5 55s32.5 21 54.5 21s40.167 -7 54.5 -21s21.5 -32.333 21.5 -55s-7.16699 -41 -21.5 -55s-32.5 -21 -54.5 -21s-40.167 7 -54.5 21zM54 427h471v-117h-471v117zM235.5 117c-14.333 14 -21.5 32.333 -21.5 55
s7.16699 41 21.5 55s32.5 21 54.5 21s40.167 -7 54.5 -21s21.5 -32.333 21.5 -55s-7.16699 -41 -21.5 -55s-32.5 -21 -54.5 -21s-40.167 7 -54.5 21z" />
    <glyph glyph-name="oslash" unicode="&#xf8;" horiz-adv-x="563" 
d="M554 546l-74 -88c29.333 -47.333 44 -109 44 -185c0 -94 -21 -165.167 -63 -213.5s-102 -72.5 -180 -72.5c-56 0 -103.333 13.667 -142 41l-27 -38h-103v10l74 88c-29.333 47.333 -44 109 -44 185c0 94 21 165.167 63 213.5s102 72.5 180 72.5
c56 0 103.333 -13.667 142 -41l27 38h103v-10zM172 273c0 -24 1.66699 -47 5 -69l173 217c-16 15.333 -38.667 23 -68 23c-73.333 0 -110 -57 -110 -171zM391 273c0 24 -1.66699 47 -5 69l-173 -217c16 -15.333 38.667 -23 68 -23c73.333 0 110 57 110 171z" />
    <glyph glyph-name="ugrave" unicode="&#xf9;" horiz-adv-x="580" 
d="M508 546v-546h-123v77c-40 -60 -93.667 -90 -161 -90c-50.667 0 -89.834 15.667 -117.501 47s-41.5 75.333 -41.5 132v380h136v-360c0 -48.667 25.333 -73 76 -73c18.667 0 35.334 3.5 50.001 10.5s29.667 18.167 45 33.5v389h136zM137 774v10h141l87 -159v-10h-104z" />
    <glyph glyph-name="uacute" unicode="&#xfa;" horiz-adv-x="580" 
d="M508 546v-546h-123v77c-40 -60 -93.667 -90 -161 -90c-50.667 0 -89.834 15.667 -117.501 47s-41.5 75.333 -41.5 132v380h136v-360c0 -48.667 25.333 -73 76 -73c18.667 0 35.334 3.5 50.001 10.5s29.667 18.167 45 33.5v389h136zM213 625l95 159h141v-10l-132 -159
h-104v10z" />
    <glyph glyph-name="ucircumflex" unicode="&#xfb;" horiz-adv-x="580" 
d="M508 546v-546h-123v77c-40 -60 -93.667 -90 -161 -90c-50.667 0 -89.834 15.667 -117.501 47s-41.5 75.333 -41.5 132v380h136v-360c0 -48.667 25.333 -73 76 -73c18.667 0 35.334 3.5 50.001 10.5s29.667 18.167 45 33.5v389h136zM451 625v-10h-95l-71 88l-70 -88h-92
v10l102 159h124z" />
    <glyph glyph-name="udieresis" unicode="&#xfc;" horiz-adv-x="580" 
d="M136 633c-12.667 12.667 -19 29.666 -19 50.999c0 22.667 6.33301 40.334 19 53.001s30.334 19 53.001 19s40.5 -6.33301 53.5 -19s19.5 -30 19.5 -52c0 -22.667 -6.33301 -40.167 -19 -52.5s-30.667 -18.5 -54 -18.5c-22.667 0 -40.334 6.33301 -53.001 19zM331 632.999
c-12.667 12.667 -19 29.666 -19 50.999c0 22.667 6.33301 40.334 19 53.001s30.334 19 53.001 19s40.5 -6.33301 53.5 -19s19.5 -30 19.5 -52c0 -22.667 -6.33301 -40.167 -19 -52.5s-30.667 -18.5 -54 -18.5c-22.667 0 -40.334 6.33301 -53.001 19zM508 545.998v-546h-123
v77c-40 -60 -93.667 -90 -161 -90c-50.667 0 -89.834 15.667 -117.501 47s-41.5 75.333 -41.5 132v380h136v-360c0 -48.667 25.333 -73 76 -73c18.667 0 35.334 3.5 50.001 10.5s29.667 18.167 45 33.5v389h136z" />
    <glyph glyph-name="yacute" unicode="&#xfd;" horiz-adv-x="523" 
d="M509 546l-165.001 -514.999c-20 -63.333 -52.167 -114.833 -96.5 -154.5s-105.833 -71.834 -184.5 -96.501l-46 114c46 16 82.333 32.333 109 49s48.334 36 65.001 58l-177 545h137l112 -402l110 402h136zM188.999 625.001l95 159h141v-10l-132 -159h-104v10z" />
    <glyph glyph-name="thorn" unicode="&#xfe;" horiz-adv-x="581" 
d="M490.5 484.5c34.333 -49.667 51.5 -119.833 51.5 -210.5c0 -91.333 -17.333 -162 -52 -212s-83.334 -75 -146.001 -75c-28 0 -53.667 5 -77 15s-43 24.333 -59 43v-252h-136v720v257h136v-281c32.667 46.667 78.334 70 137.001 70c62.667 0 111.167 -24.833 145.5 -74.5z
M403 269.001c0 109.333 -34.002 164.001 -102.002 164.001c-17.333 0 -33.333 -3.66699 -48 -11s-29.667 -19 -45 -35v-233c12.667 -14.667 27.334 -25.834 44.001 -33.501s34.334 -11.5 53.001 -11.5c65.333 0 98 53.333 98 160z" />
    <glyph glyph-name="ydieresis" unicode="&#xff;" horiz-adv-x="523" 
d="M112 633c-12.667 12.667 -19 29.666 -19 50.999c0 22.667 6.33301 40.334 19 53.001s30.334 19 53.001 19s40.5 -6.33301 53.5 -19s19.5 -30 19.5 -52c0 -22.667 -6.33301 -40.167 -19 -52.5s-30.667 -18.5 -54 -18.5c-22.667 0 -40.334 6.33301 -53.001 19zM307 632.999
c-12.667 12.667 -19 29.666 -19 50.999c0 22.667 6.33301 40.334 19 53.001s30.334 19 53.001 19s40.5 -6.33301 53.5 -19s19.5 -30 19.5 -52c0 -22.667 -6.33301 -40.167 -19 -52.5s-30.667 -18.5 -54 -18.5c-22.667 0 -40.334 6.33301 -53.001 19zM509 545.998
l-165.001 -514.999c-20 -63.333 -52.167 -114.833 -96.5 -154.5s-105.833 -71.834 -184.5 -96.501l-46 114c46 16 82.333 32.333 109 49s48.334 36 65.001 58l-177 545h137l112 -402l110 402h136z" />
    <glyph glyph-name="Amacron" unicode="&#x100;" horiz-adv-x="670" 
d="M499 806h-328v92h328v-92zM463 156h-258l-46 -156h-144l245 724h150l245 -724h-145zM428 276l-94 315l-93 -315h187z" />
    <glyph glyph-name="amacron" unicode="&#x101;" horiz-adv-x="536" 
d="M416 512c36.667 -31.333 55 -75.3311 55 -131.998v-380h-121v80c-32.667 -60.667 -86.334 -91 -161.001 -91c-52 0 -92.167 14.333 -120.5 43s-42.5 69 -42.5 121c0 65.333 24.5 113.166 73.5 143.499s128.167 46.166 237.5 47.499v20c0 50 -34 75 -102 75
c-41.333 0 -83.666 -9.33301 -126.999 -28l-34 104c62 29.333 124 44 186 44c67.333 0 119.333 -15.667 156 -47zM337 156.002v98c-64 -0.666992 -110.333 -8.16699 -139 -22.5s-43 -36.833 -43 -67.5c0 -40.667 23 -61 69 -61c43.333 0 81 17.667 113 53zM93 728.002h328
v-92h-328v92z" />
    <glyph glyph-name="Abreve" unicode="&#x102;" horiz-adv-x="670" 
d="M218 823.5c-28 29 -43.001 71.167 -45.001 126.5h78c6.66699 -48.667 35 -73 85 -73c50.667 0 79.334 24.333 86.001 73h75c-2 -55.333 -17 -97.5 -45 -126.5s-67 -43.5 -117 -43.5s-89 14.5 -117 43.5zM462.999 156h-258l-46 -156h-144l245 724h150l245 -724h-145z
M427.999 276l-94 315l-93 -315h187z" />
    <glyph glyph-name="abreve" unicode="&#x103;" horiz-adv-x="536" 
d="M416 512c36.667 -31.333 55 -75.3311 55 -131.998v-380h-121v80c-32.667 -60.667 -86.334 -91 -161.001 -91c-52 0 -92.167 14.333 -120.5 43s-42.5 69 -42.5 121c0 65.333 24.5 113.166 73.5 143.499s128.167 46.166 237.5 47.499v20c0 50 -34 75 -102 75
c-41.333 0 -83.666 -9.33301 -126.999 -28l-34 104c62 29.333 124 44 186 44c67.333 0 119.333 -15.667 156 -47zM337 156.002v98c-64 -0.666992 -110.333 -8.16699 -139 -22.5s-43 -36.833 -43 -67.5c0 -40.667 23 -61 69 -61c43.333 0 81 17.667 113 53zM140 653.502
c-28 29 -43.001 71.167 -45.001 126.5h78c6.66699 -48.667 35 -73 85 -73c50.667 0 79.334 24.333 86.001 73h75c-2 -55.333 -17 -97.5 -45 -126.5s-67 -43.5 -117 -43.5s-89 14.5 -117 43.5z" />
    <glyph glyph-name="Aogonek" unicode="&#x104;" horiz-adv-x="670" 
d="M706 -199c-16 -10 -34.333 -17.667 -55 -23s-41.667 -8 -63 -8c-39.333 0 -70 9 -92 27s-33 43.333 -33 76c0 26.667 7.5 51 22.5 73s36.167 40 63.5 54h-39l-47 156h-258l-46 -156h-144l245 724h150l245 -724c-54 -32 -81 -66 -81 -102c0 -26.667 15.333 -40 46 -40
c18 0 36.667 4.33301 56 13zM428 276l-94 315l-93 -315h187z" />
    <glyph glyph-name="aogonek" unicode="&#x105;" horiz-adv-x="536" 
d="M522 -199c-16 -10 -34.334 -17.665 -55.001 -22.998s-41.667 -8 -63 -8c-39.333 0 -70 9 -92 27s-33 43.333 -33 76c0 26.667 7.5 51 22.5 73s36.167 40 63.5 54h-13v84c-21.333 -33.333 -44.833 -57.5 -70.5 -72.5s-56.5 -22.5 -92.5 -22.5
c-52 0 -92.167 14.333 -120.5 43s-42.5 69 -42.5 121c0 65.333 24.5 113.166 73.5 143.499s128.167 46.166 237.5 47.499v20c0 50 -34 75 -102 75c-41.333 0 -83.666 -9.33301 -126.999 -28l-34 104c62 29.333 124 44 186 44c67.333 0 119.333 -15.667 156 -47
s55 -75.333 55 -132v-380c-54 -32 -81 -66 -81 -102c0 -26.667 15.333 -40 46 -40c18 0 36.667 4.33301 56 13zM336.999 156.002v98c-63.333 -0.666992 -109.5 -8.16699 -138.5 -22.5s-43.5 -36.833 -43.5 -67.5c0 -40.667 23 -61 69 -61c43.333 0 81 17.667 113 53z" />
    <glyph glyph-name="Cacute" unicode="&#x106;" horiz-adv-x="603" 
d="M266 793l145 133h151v-12l-182 -133h-114v12zM126 82c-58.667 62.667 -88.001 151 -88.001 265c0 80 13.333 149.333 40 208s64.834 103.667 114.501 135s108.167 47 175.5 47c37.333 0 74 -5 110 -15s67 -24.333 93 -43l-47 -105c-52 26 -104.667 39 -158 39
c-59.333 0 -105.166 -22.333 -137.499 -67s-48.5 -107.667 -48.5 -189c0 -162 66.333 -243 199 -243c61.333 0 111.666 11.667 150.999 35l47 -104c-22 -18 -51 -32 -87 -42s-75 -15 -117 -15c-106 0 -188.333 31.333 -247 94z" />
    <glyph glyph-name="cacute" unicode="&#x107;" horiz-adv-x="483" 
d="M104 60.5c-46 48.333 -69.002 116.501 -69.002 204.501c0 58.667 10.667 110.167 32 154.5s51.5 78.666 90.5 102.999s84.167 36.5 135.5 36.5c30.667 0 60.5 -4.33301 89.5 -13s54.167 -20.667 75.5 -36l-48 -105c-47.333 20.667 -87 31 -119 31
c-37.333 0 -66.166 -14.333 -86.499 -43s-30.5 -69 -30.5 -121c0 -106.667 43.333 -160 130 -160c38 0 76 10 114 30l46 -104c-43.333 -33.333 -98.666 -50 -165.999 -50c-83.333 0 -148 24.167 -194 72.5zM192.998 625.001l95 159h141v-10l-132 -159h-104v10z" />
    <glyph glyph-name="Ccircumflex" unicode="&#x108;" horiz-adv-x="603" 
d="M268 781h-98v12l117 133h130l117 -133v-12h-101l-83 76zM577 45c-22 -18 -51.001 -32 -87.001 -42s-75 -15 -117 -15c-106 0 -188.333 31.333 -247 94s-88 151 -88 265c0 80 13.333 149.333 40 208s64.834 103.667 114.501 135s108.167 47 175.5 47
c37.333 0 74 -5 110 -15s67 -24.333 93 -43l-47 -105c-52 26 -104.667 39 -158 39c-59.333 0 -105.166 -22.333 -137.499 -67s-48.5 -107.667 -48.5 -189c0 -162 66.333 -243 199 -243c61.333 0 111.666 11.667 150.999 35z" />
    <glyph glyph-name="ccircumflex" unicode="&#x109;" horiz-adv-x="483" 
d="M104 60.5c-46 48.333 -69.002 116.501 -69.002 204.501c0 58.667 10.667 110.167 32 154.5s51.5 78.666 90.5 102.999s84.167 36.5 135.5 36.5c30.667 0 60.5 -4.33301 89.5 -13s54.167 -20.667 75.5 -36l-48 -105c-47.333 20.667 -87 31 -119 31
c-37.333 0 -66.166 -14.333 -86.499 -43s-30.5 -69 -30.5 -121c0 -106.667 43.333 -160 130 -160c38 0 76 10 114 30l46 -104c-43.333 -33.333 -98.666 -50 -165.999 -50c-83.333 0 -148 24.167 -194 72.5zM430.998 625.001v-10h-95l-71 88l-70 -88h-92v10l102 159h124z" />
    <glyph glyph-name="Cdotaccent" unicode="&#x10a;" horiz-adv-x="603" 
d="M292.5 796.5c-14.333 13.667 -21.5 32.5 -21.5 56.5c0 24.667 7.16699 43.834 21.5 57.501s34.166 20.5 59.499 20.5s45.166 -6.83301 59.499 -20.5s21.5 -32.5 21.5 -56.5c0 -24.667 -7.16699 -43.834 -21.5 -57.501s-34.166 -20.5 -59.499 -20.5
s-45.166 6.83301 -59.499 20.5zM126 82c-58.667 62.667 -88.001 151 -88.001 265c0 80 13.333 149.333 40 208s64.834 103.667 114.501 135s108.167 47 175.5 47c37.333 0 74 -5 110 -15s67 -24.333 93 -43l-47 -105c-52 26 -104.667 39 -158 39
c-59.333 0 -105.166 -22.333 -137.499 -67s-48.5 -107.667 -48.5 -189c0 -162 66.333 -243 199 -243c61.333 0 111.666 11.667 150.999 35l47 -104c-22 -18 -51 -32 -87 -42s-75 -15 -117 -15c-106 0 -188.333 31.333 -247 94z" />
    <glyph glyph-name="cdotaccent" unicode="&#x10b;" horiz-adv-x="483" 
d="M104 60.5c-46 48.333 -69.002 116.501 -69.002 204.501c0 58.667 10.667 110.167 32 154.5s51.5 78.666 90.5 102.999s84.167 36.5 135.5 36.5c30.667 0 60.5 -4.33301 89.5 -13s54.167 -20.667 75.5 -36l-48 -105c-47.333 20.667 -87 31 -119 31
c-37.333 0 -66.166 -14.333 -86.499 -43s-30.5 -69 -30.5 -121c0 -106.667 43.333 -160 130 -160c38 0 76 10 114 30l46 -104c-43.333 -33.333 -98.666 -50 -165.999 -50c-83.333 0 -148 24.167 -194 72.5zM207.498 637.501c-14.333 13.667 -21.5 32.5 -21.5 56.5
c0 24.667 7.16699 43.834 21.5 57.501s34.166 20.5 59.499 20.5s45.166 -6.83301 59.499 -20.5s21.5 -32.5 21.5 -56.5c0 -24.667 -7.16699 -43.834 -21.5 -57.501s-34.166 -20.5 -59.499 -20.5s-45.166 6.83301 -59.499 20.5z" />
    <glyph glyph-name="Ccaron" unicode="&#x10c;" horiz-adv-x="603" 
d="M287 781l-117 133v12h101l83 -76l82 76h98v-12l-117 -133h-130zM577 45c-22 -18 -51.001 -32 -87.001 -42s-75 -15 -117 -15c-106 0 -188.333 31.333 -247 94s-88 151 -88 265c0 80 13.333 149.333 40 208s64.834 103.667 114.501 135s108.167 47 175.5 47
c37.333 0 74 -5 110 -15s67 -24.333 93 -43l-47 -105c-52 26 -104.667 39 -158 39c-59.333 0 -105.166 -22.333 -137.499 -67s-48.5 -107.667 -48.5 -189c0 -162 66.333 -243 199 -243c61.333 0 111.666 11.667 150.999 35z" />
    <glyph glyph-name="ccaron" unicode="&#x10d;" horiz-adv-x="483" 
d="M104 60.5c-46 48.333 -69.002 116.501 -69.002 204.501c0 58.667 10.667 110.167 32 154.5s51.5 78.666 90.5 102.999s84.167 36.5 135.5 36.5c30.667 0 60.5 -4.33301 89.5 -13s54.167 -20.667 75.5 -36l-48 -105c-47.333 20.667 -87 31 -119 31
c-37.333 0 -66.166 -14.333 -86.499 -43s-30.5 -69 -30.5 -121c0 -106.667 43.333 -160 130 -160c38 0 76 10 114 30l46 -104c-43.333 -33.333 -98.666 -50 -165.999 -50c-83.333 0 -148 24.167 -194 72.5zM430.998 784.001v-10l-102 -159h-124l-102 159v10h95l70 -88l71 88
h92z" />
    <glyph glyph-name="Dcaron" unicode="&#x10e;" horiz-adv-x="693" 
d="M275 781l-117 133v12h101l83 -76l82 76h98v-12l-117 -133h-130zM561.5 633c55.667 -60.667 83.5 -150.666 83.5 -269.999c0 -120.667 -27.833 -211.334 -83.5 -272.001s-136.834 -91 -243.501 -91h-240v724h240c106.667 0 187.834 -30.333 243.501 -91zM503 363.001
c0 158.667 -62.667 238 -188 238h-99v-478h98c126 0 189 80 189 240z" />
    <glyph glyph-name="dcaron" unicode="&#x10f;" horiz-adv-x="581" 
d="M373 770l135.999 -0.000976562v-737v-33h-123v78c-34 -60.667 -84 -91 -150 -91c-62.667 0 -111.167 24.833 -145.5 74.5s-51.5 119.834 -51.5 210.501c0 91.333 17.333 162 52 212s83.334 75 146.001 75c28 0 53.667 -5 77 -15s43 -24.333 59 -43v269zM670.999 769.999
v-10l-34 -220h-78v230h112zM327.999 123.999c14.667 7.33301 29.6689 18.999 45.002 34.999v233c-12.667 14.667 -27.334 25.834 -44.001 33.501s-34.334 11.5 -53.001 11.5c-65.333 0 -98 -53.333 -98 -160c0 -109.333 34 -164 102 -164c17.333 0 33.333 3.66699 48 11z
" />
    <glyph glyph-name="Dcroat" unicode="&#x110;" horiz-adv-x="694" 
d="M562.5 633c55.667 -60.667 83.5 -150.666 83.5 -269.999c0 -120.667 -27.833 -211.334 -83.5 -272.001s-136.834 -91 -243.501 -91h-240v314h-64v105h64v305h240c106.667 0 187.834 -30.333 243.501 -91zM504 363.001c0 158.667 -62.667 238 -188 238h-99v-182h153v-105
h-153v-191h98c126 0 189 80 189 240z" />
    <glyph glyph-name="dcroat" unicode="&#x111;" horiz-adv-x="583" 
d="M573 607l-62 -0.000976562v-607h-123v78c-34 -60.667 -84 -91 -150 -91c-63.333 0 -112.333 24.167 -147 72.5s-52 116.5 -52 204.5c0 88.667 17.5 157.334 52.5 206.001s84.167 73 147.5 73c28 0 53.667 -5 77 -15s43 -24.333 59 -43v122h-193v85h193v78h136v-78h62v-85
zM330 123.999c14.667 7.33301 29.6689 18.999 45.002 34.999v217c-12.667 14.667 -27.334 25.834 -44.001 33.501s-34.334 11.5 -53.001 11.5c-66.667 0 -100 -50.667 -100 -152c0 -104 34.667 -156 104 -156c17.333 0 33.333 3.66699 48 11z" />
    <glyph glyph-name="Emacron" unicode="&#x112;" horiz-adv-x="578" 
d="M469 806h-328v92h328v-92zM548 123v-123h-470v724h456v-123h-318v-169h234v-124h-234v-185h332z" />
    <glyph glyph-name="emacron" unicode="&#x113;" horiz-adv-x="546" 
d="M507 230l-332 -0.000976562c11.333 -80 56.666 -120 135.999 -120c44 0 88 10.667 132 32l48 -101c-26.667 -16.667 -57 -29.667 -91 -39s-68.667 -14 -104 -14c-82.667 0 -146.5 24.833 -191.5 74.5s-67.5 119.834 -67.5 210.501c0 91.333 21.167 161.833 63.5 211.5
s101.833 74.5 178.5 74.5c74.667 0 132.334 -23 173.001 -69s61 -110.667 61 -194c0 -24.667 -2 -46.667 -6 -66zM174 320.999h204c-1.33301 38 -10.833 67.333 -28.5 88s-42.167 31 -73.5 31c-59.333 0 -93.333 -39.667 -102 -119zM114 727.999h328v-92h-328v92z" />
    <glyph glyph-name="Ebreve" unicode="&#x114;" horiz-adv-x="578" 
d="M188 823.5c-28 29 -43.001 71.167 -45.001 126.5h78c6.66699 -48.667 35 -73 85 -73c50.667 0 79.334 24.333 86.001 73h75c-2 -55.333 -17 -97.5 -45 -126.5s-67 -43.5 -117 -43.5s-89 14.5 -117 43.5zM547.999 123v-123h-470v724h456v-123h-318v-169h234v-124h-234
v-185h332z" />
    <glyph glyph-name="ebreve" unicode="&#x115;" horiz-adv-x="546" 
d="M507 230l-332 -0.000976562c11.333 -80 56.666 -120 135.999 -120c44 0 88 10.667 132 32l48 -101c-26.667 -16.667 -57 -29.667 -91 -39s-68.667 -14 -104 -14c-82.667 0 -146.5 24.833 -191.5 74.5s-67.5 119.834 -67.5 210.501c0 91.333 21.167 161.833 63.5 211.5
s101.833 74.5 178.5 74.5c74.667 0 132.334 -23 173.001 -69s61 -110.667 61 -194c0 -24.667 -2 -46.667 -6 -66zM174 320.999h204c-1.33301 38 -10.833 67.333 -28.5 88s-42.167 31 -73.5 31c-59.333 0 -93.333 -39.667 -102 -119zM161 653.499
c-28 29 -43.001 71.167 -45.001 126.5h78c6.66699 -48.667 35 -73 85 -73c50.667 0 79.334 24.333 86.001 73h75c-2 -55.333 -17 -97.5 -45 -126.5s-67 -43.5 -117 -43.5s-89 14.5 -117 43.5z" />
    <glyph glyph-name="Edotaccent" unicode="&#x116;" horiz-adv-x="578" 
d="M245.5 796.5c-14.333 13.667 -21.5 32.5 -21.5 56.5c0 24.667 7.16699 43.834 21.5 57.501s34.166 20.5 59.499 20.5s45.166 -6.83301 59.499 -20.5s21.5 -32.5 21.5 -56.5c0 -24.667 -7.16699 -43.834 -21.5 -57.501s-34.166 -20.5 -59.499 -20.5
s-45.166 6.83301 -59.499 20.5zM548 123v-123h-470v724h456v-123h-318v-169h234v-124h-234v-185h332z" />
    <glyph glyph-name="edotaccent" unicode="&#x117;" horiz-adv-x="546" 
d="M507 230l-332 -0.000976562c11.333 -80 56.666 -120 135.999 -120c44 0 88 10.667 132 32l48 -101c-26.667 -16.667 -57 -29.667 -91 -39s-68.667 -14 -104 -14c-82.667 0 -146.5 24.833 -191.5 74.5s-67.5 119.834 -67.5 210.501c0 91.333 21.167 161.833 63.5 211.5
s101.833 74.5 178.5 74.5c74.667 0 132.334 -23 173.001 -69s61 -110.667 61 -194c0 -24.667 -2 -46.667 -6 -66zM174 320.999h204c-1.33301 38 -10.833 67.333 -28.5 88s-42.167 31 -73.5 31c-59.333 0 -93.333 -39.667 -102 -119zM218.5 637.499
c-14.333 13.667 -21.5 32.5 -21.5 56.5c0 24.667 7.16699 43.834 21.5 57.501s34.166 20.5 59.499 20.5s45.166 -6.83301 59.499 -20.5s21.5 -32.5 21.5 -56.5c0 -24.667 -7.16699 -43.834 -21.5 -57.501s-34.166 -20.5 -59.499 -20.5s-45.166 6.83301 -59.499 20.5z" />
    <glyph glyph-name="Eogonek" unicode="&#x118;" horiz-adv-x="578" 
d="M599 -199c-16 -10 -34.333 -17.667 -55 -23s-41.667 -8 -63 -8c-39.333 0 -70 9 -92 27s-33 43.333 -33 76c0 26.667 7.5 51 22.5 73s36.167 40 63.5 54h-364v724h456v-123h-318v-169h234v-124h-234v-185h332v-123c-54 -32 -81 -66 -81 -102c0 -26.667 15.333 -40 46 -40
c18 0 36.667 4.33301 56 13z" />
    <glyph glyph-name="eogonek" unicode="&#x119;" horiz-adv-x="546" 
d="M507 230l-332 -0.00195312c11.333 -80 56.666 -120 135.999 -120c44 0 88 10.667 132 32l48 -101c-16.667 -9.33301 -28.667 -15.666 -36 -18.999c-28 -13.333 -51.167 -31.833 -69.5 -55.5s-27.5 -46.5 -27.5 -68.5c0 -26.667 15.333 -40 46 -40
c18 0 36.667 4.33301 56 13l30 -70c-16 -10 -34.333 -17.667 -55 -23s-41.667 -8 -63 -8c-39.333 0 -70 9 -92 27s-33 43.333 -33 76c0 22 5.33301 42.833 16 62.5s25.667 37.167 45 52.5h-12c-82.667 0 -146.5 24.833 -191.5 74.5s-67.5 119.834 -67.5 210.501
c0 91.333 21.167 161.833 63.5 211.5s101.833 74.5 178.5 74.5c74.667 0 132.334 -23 173.001 -69s61 -110.667 61 -194c0 -24.667 -2 -46.667 -6 -66zM174 320.998h204c-1.33301 38 -10.833 67.333 -28.5 88s-42.167 31 -73.5 31c-59.333 0 -93.333 -39.667 -102 -119z" />
    <glyph glyph-name="Ecaron" unicode="&#x11a;" horiz-adv-x="578" 
d="M240 781l-117 133v12h101l83 -76l82 76h98v-12l-117 -133h-130zM548 123v-123h-470v724h456v-123h-318v-169h234v-124h-234v-185h332z" />
    <glyph glyph-name="ecaron" unicode="&#x11b;" horiz-adv-x="546" 
d="M507 230l-332 -0.000976562c11.333 -80 56.666 -120 135.999 -120c44 0 88 10.667 132 32l48 -101c-26.667 -16.667 -57 -29.667 -91 -39s-68.667 -14 -104 -14c-82.667 0 -146.5 24.833 -191.5 74.5s-67.5 119.834 -67.5 210.501c0 91.333 21.167 161.833 63.5 211.5
s101.833 74.5 178.5 74.5c74.667 0 132.334 -23 173.001 -69s61 -110.667 61 -194c0 -24.667 -2 -46.667 -6 -66zM174 320.999h204c-1.33301 38 -10.833 67.333 -28.5 88s-42.167 31 -73.5 31c-59.333 0 -93.333 -39.667 -102 -119zM442 783.999v-10l-102 -159h-124
l-102 159v10h95l70 -88l71 88h92z" />
    <glyph glyph-name="Gcircumflex" unicode="&#x11c;" horiz-adv-x="668" 
d="M277 781h-98v12l117 133h130l117 -133v-12h-101l-83 76zM610 415l0.000976562 -369.998c-27.333 -18.667 -60.5 -33 -99.5 -43s-79.5 -15 -121.5 -15c-108.667 0 -192.667 32.667 -252 98s-89 157.666 -89 276.999s29.667 211.666 89 276.999s143.333 98 252 98
c42.667 0 82.667 -5 120 -15s68.666 -24 93.999 -42l-40 -110c-62.667 29.333 -121.334 44 -176.001 44c-131.333 0 -197 -84 -197 -252s66.333 -252 199 -252c26.667 0 54.334 3.33301 83.001 10v173h-119v122h257z" />
    <glyph glyph-name="gcircumflex" unicode="&#x11d;" horiz-adv-x="583" 
d="M511 546l0.00195312 -524c0 -77.333 -21.833 -137 -65.5 -179s-105.5 -63 -185.5 -63c-32.667 0 -64.834 3.5 -96.501 10.5s-60.167 17.167 -85.5 30.5l38 107c44.667 -19.333 87.667 -29 129 -29c86.667 0 130 41 130 123v65c-32.667 -46.667 -78.334 -70 -137.001 -70
c-63.333 0 -112.333 23.5 -147 70.5s-52 113.5 -52 199.5c0 86.667 17.5 153.667 52.5 201s84.167 71 147.5 71c32 0 61 -6.5 87 -19.5s46.667 -31.833 62 -56.5v63h123zM330.002 154c14.667 7.33301 29.6689 18.999 45.002 34.999v203
c-12.667 14.667 -27.334 25.834 -44.001 33.501s-34.334 11.5 -53.001 11.5c-66.667 0 -100 -48.333 -100 -145c0 -99.333 34.667 -149 104 -149c17.333 0 33.333 3.66699 48 11zM452.004 624.999v-10h-95l-71 88l-70 -88h-92v10l102 159h124z" />
    <glyph glyph-name="Gbreve" unicode="&#x11e;" horiz-adv-x="668" 
d="M244 823.5c-28 29 -43.001 71.167 -45.001 126.5h78c6.66699 -48.667 35 -73 85 -73c50.667 0 79.334 24.333 86.001 73h75c-2 -55.333 -17 -97.5 -45 -126.5s-67 -43.5 -117 -43.5s-89 14.5 -117 43.5zM609.999 415l0.000976562 -369.998
c-27.333 -18.667 -60.5 -33 -99.5 -43s-79.5 -15 -121.5 -15c-108.667 0 -192.667 32.667 -252 98s-89 157.666 -89 276.999s29.667 211.666 89 276.999s143.333 98 252 98c42.667 0 82.667 -5 120 -15s68.666 -24 93.999 -42l-40 -110
c-62.667 29.333 -121.334 44 -176.001 44c-131.333 0 -197 -84 -197 -252s66.333 -252 199 -252c26.667 0 54.334 3.33301 83.001 10v173h-119v122h257z" />
    <glyph glyph-name="gbreve" unicode="&#x11f;" horiz-adv-x="583" 
d="M511 546l0.00195312 -524c0 -77.333 -21.833 -137 -65.5 -179s-105.5 -63 -185.5 -63c-32.667 0 -64.834 3.5 -96.501 10.5s-60.167 17.167 -85.5 30.5l38 107c44.667 -19.333 87.667 -29 129 -29c86.667 0 130 41 130 123v65c-32.667 -46.667 -78.334 -70 -137.001 -70
c-63.333 0 -112.333 23.5 -147 70.5s-52 113.5 -52 199.5c0 86.667 17.5 153.667 52.5 201s84.167 71 147.5 71c32 0 61 -6.5 87 -19.5s46.667 -31.833 62 -56.5v63h123zM330.002 154c14.667 7.33301 29.6689 18.999 45.002 34.999v203
c-12.667 14.667 -27.334 25.834 -44.001 33.501s-34.334 11.5 -53.001 11.5c-66.667 0 -100 -48.333 -100 -145c0 -99.333 34.667 -149 104 -149c17.333 0 33.333 3.66699 48 11zM171.004 653.499c-28 29 -43.001 71.167 -45.001 126.5h78c6.66699 -48.667 35 -73 85 -73
c50.667 0 79.334 24.333 86.001 73h75c-2 -55.333 -17 -97.5 -45 -126.5s-67 -43.5 -117 -43.5s-89 14.5 -117 43.5z" />
    <glyph glyph-name="Gdotaccent" unicode="&#x120;" horiz-adv-x="668" 
d="M301.5 796.5c-14.333 13.667 -21.5 32.5 -21.5 56.5c0 24.667 7.16699 43.834 21.5 57.501s34.166 20.5 59.499 20.5s45.166 -6.83301 59.499 -20.5s21.5 -32.5 21.5 -56.5c0 -24.667 -7.16699 -43.834 -21.5 -57.501s-34.166 -20.5 -59.499 -20.5
s-45.166 6.83301 -59.499 20.5zM610 415l0.000976562 -369.998c-27.333 -18.667 -60.5 -33 -99.5 -43s-79.5 -15 -121.5 -15c-108.667 0 -192.667 32.667 -252 98s-89 157.666 -89 276.999s29.667 211.666 89 276.999s143.333 98 252 98c42.667 0 82.667 -5 120 -15
s68.666 -24 93.999 -42l-40 -110c-62.667 29.333 -121.334 44 -176.001 44c-131.333 0 -197 -84 -197 -252s66.333 -252 199 -252c26.667 0 54.334 3.33301 83.001 10v173h-119v122h257z" />
    <glyph glyph-name="gdotaccent" unicode="&#x121;" horiz-adv-x="583" 
d="M511 546l0.00195312 -524c0 -77.333 -21.833 -137 -65.5 -179s-105.5 -63 -185.5 -63c-32.667 0 -64.834 3.5 -96.501 10.5s-60.167 17.167 -85.5 30.5l38 107c44.667 -19.333 87.667 -29 129 -29c86.667 0 130 41 130 123v65c-32.667 -46.667 -78.334 -70 -137.001 -70
c-63.333 0 -112.333 23.5 -147 70.5s-52 113.5 -52 199.5c0 86.667 17.5 153.667 52.5 201s84.167 71 147.5 71c32 0 61 -6.5 87 -19.5s46.667 -31.833 62 -56.5v63h123zM330.002 154c14.667 7.33301 29.6689 18.999 45.002 34.999v203
c-12.667 14.667 -27.334 25.834 -44.001 33.501s-34.334 11.5 -53.001 11.5c-66.667 0 -100 -48.333 -100 -145c0 -99.333 34.667 -149 104 -149c17.333 0 33.333 3.66699 48 11zM228.504 637.499c-14.333 13.667 -21.5 32.5 -21.5 56.5
c0 24.667 7.16699 43.834 21.5 57.501s34.166 20.5 59.499 20.5s45.166 -6.83301 59.499 -20.5s21.5 -32.5 21.5 -56.5c0 -24.667 -7.16699 -43.834 -21.5 -57.501s-34.166 -20.5 -59.499 -20.5s-45.166 6.83301 -59.499 20.5z" />
    <glyph glyph-name="Gcommaaccent" unicode="&#x122;" horiz-adv-x="668" 
d="M610 415l0.000976562 -369.998c-27.333 -18.667 -60.5 -33 -99.5 -43s-79.5 -15 -121.5 -15c-108.667 0 -192.667 32.667 -252 98s-89 157.666 -89 276.999s29.667 211.666 89 276.999s143.333 98 252 98c42.667 0 82.667 -5 120 -15s68.666 -24 93.999 -42l-40 -110
c-62.667 29.333 -121.334 44 -176.001 44c-131.333 0 -197 -84 -197 -252s66.333 -252 199 -252c26.667 0 54.334 3.33301 83.001 10v173h-119v122h257zM256.001 -237.998c16.667 18 28.333 36.166 35 54.499s10 40.833 10 67.5c0 16 -1.33301 32.667 -4 50h124
c2.66699 -17.333 4 -33.666 4 -48.999c0 -32 -9.5 -62 -28.5 -90s-49.5 -56.667 -91.5 -86z" />
    <glyph glyph-name="gcommaaccent" unicode="&#x123;" horiz-adv-x="583" 
d="M511 546l0.00195312 -524c0 -77.333 -21.833 -137 -65.5 -179s-105.5 -63 -185.5 -63c-32.667 0 -64.834 3.5 -96.501 10.5s-60.167 17.167 -85.5 30.5l38 107c44.667 -19.333 87.667 -29 129 -29c86.667 0 130 41 130 123v65c-32.667 -46.667 -78.334 -70 -137.001 -70
c-63.333 0 -112.333 23.5 -147 70.5s-52 113.5 -52 199.5c0 86.667 17.5 153.667 52.5 201s84.167 71 147.5 71c32 0 61 -6.5 87 -19.5s46.667 -31.833 62 -56.5v63h123zM330.002 154c14.667 7.33301 29.6689 18.999 45.002 34.999v203
c-12.667 14.667 -27.334 25.834 -44.001 33.501s-34.334 11.5 -53.001 11.5c-66.667 0 -100 -48.333 -100 -145c0 -99.333 34.667 -149 104 -149c17.333 0 33.333 3.66699 48 11zM388.004 775.999c-16.667 -18 -28.333 -36.166 -35 -54.499s-10 -40.833 -10 -67.5
c0 -16 1.33301 -32.667 4 -50h-124c-2.66699 17.333 -4 33.666 -4 48.999c0 32 9.5 62 28.5 90s49.5 56.667 91.5 86z" />
    <glyph glyph-name="Hcircumflex" unicode="&#x124;" horiz-adv-x="704" 
d="M268 781h-98v12l117 133h130l117 -133v-12h-101l-83 76zM626 724v-724h-138v306h-272v-306h-138v724h138v-295h272v295h138z" />
    <glyph glyph-name="hcircumflex" unicode="&#x125;" horiz-adv-x="590" 
d="M138 903l-82 -76h-98v12l117 133h130l117 -133v-12h-101zM480.5 512.5c28.333 -31 42.499 -75.167 42.499 -132.5v-380h-136v360c0 48.667 -26.667 73 -80 73c-18.667 0 -35.667 -3 -51 -9s-31.333 -15.333 -48 -28v-396h-136v770h136v-278
c40.667 44.667 91.334 67 152.001 67c52 0 92.167 -15.5 120.5 -46.5z" />
    <glyph glyph-name="Hbar" unicode="&#x126;" horiz-adv-x="704" 
d="M689 520h-63v-520h-138v306h-272v-306h-138v520h-63v102h63v102h138v-102h272v102h138v-102h63v-102zM488 520h-272v-91h272v91z" />
    <glyph glyph-name="hbar" unicode="&#x127;" horiz-adv-x="592" 
d="M482.5 494.5c28.333 -31 42.499 -75.167 42.499 -132.5v-362h-136v342c0 48.667 -27 73 -81 73c-19.333 0 -36.666 -3 -51.999 -9s-31.333 -15.333 -48 -28v-378h-136v603h-62v93h62v74h136v-74h198v-93h-198v-129c40.667 44.667 91.667 67 153 67
c52.667 0 93.167 -15.5 121.5 -46.5z" />
    <glyph glyph-name="Itilde" unicode="&#x128;" horiz-adv-x="298" 
d="M162.5 794.5c-11 6.33301 -21.833 15.166 -32.5 26.499c-6.66699 7.33301 -12.834 12.833 -18.501 16.5s-12.167 5.5 -19.5 5.5c-23.333 0 -37 -18.667 -41 -56h-74c0 47.333 10 84.166 30 110.499s48 39.5 84 39.5c18.667 0 33.5 -3.16699 44.5 -9.5
s21.833 -15.166 32.5 -26.499c6.66699 -7.33301 12.834 -12.833 18.501 -16.5s12.167 -5.5 19.5 -5.5c23.333 0 37 18.667 41 56h74c0 -47.333 -10 -84.166 -30 -110.499s-48 -39.5 -84 -39.5c-18.667 0 -33.5 3.16699 -44.5 9.5zM80 724h138v-724h-138v724z" />
    <glyph glyph-name="itilde" unicode="&#x129;" horiz-adv-x="284" 
d="M155.5 624.5c-11 6.33301 -21.833 15.166 -32.5 26.499c-6.66699 7.33301 -12.834 12.833 -18.501 16.5s-12.167 5.5 -19.5 5.5c-23.333 0 -37 -18.667 -41 -56h-74c0 47.333 10 84.166 30 110.499s48 39.5 84 39.5c18.667 0 33.5 -3.16699 44.5 -9.5
s21.833 -15.166 32.5 -26.499c6.66699 -7.33301 12.834 -12.833 18.501 -16.5s12.167 -5.5 19.5 -5.5c23.333 0 37 18.667 41 56h74c0 -47.333 -10 -84.166 -30 -110.499s-48 -39.5 -84 -39.5c-18.667 0 -33.5 3.16699 -44.5 9.5zM74 546h136v-546h-136v546z" />
    <glyph glyph-name="Imacron" unicode="&#x12a;" horiz-adv-x="298" 
d="M-15 898h328v-92h-328v92zM80 724h138v-724h-138v724z" />
    <glyph glyph-name="imacron" unicode="&#x12b;" horiz-adv-x="284" 
d="M12 728h260v-92h-260v92zM74 546h136v-546h-136v546z" />
    <glyph glyph-name="Ibreve" unicode="&#x12c;" horiz-adv-x="298" 
d="M32 823.5c-28 29 -43.001 71.167 -45.001 126.5h78c6.66699 -48.667 35 -73 85 -73c50.667 0 79.334 24.333 86.001 73h75c-2 -55.333 -17 -97.5 -45 -126.5s-67 -43.5 -117 -43.5s-89 14.5 -117 43.5zM79.999 724h138v-724h-138v724z" />
    <glyph glyph-name="ibreve" unicode="&#x12d;" horiz-adv-x="284" 
d="M74 546h136v-546h-136v546zM25 653.5c-28 29 -43.001 71.167 -45.001 126.5h78c6.66699 -48.667 35 -73 85 -73c50.667 0 79.334 24.333 86.001 73h75c-2 -55.333 -17 -97.5 -45 -126.5s-67 -43.5 -117 -43.5s-89 14.5 -117 43.5z" />
    <glyph glyph-name="Iogonek" unicode="&#x12e;" horiz-adv-x="298" 
d="M282 -199c-16 -10 -34.333 -17.667 -55 -23s-41.667 -8 -63 -8c-39.333 0 -70 9 -92 27s-33 43.333 -33 76c0 25.333 6.66699 49 20 71s32.333 40.667 57 56h-36v724h138v-724c-45.333 -33.333 -68 -67.333 -68 -102c0 -26.667 15.333 -40 46 -40
c18 0 36.667 4.33301 56 13z" />
    <glyph glyph-name="iogonek" unicode="&#x12f;" horiz-adv-x="284" 
d="M82.5 637.5c-14.333 13.667 -21.5 32.5 -21.5 56.5c0 24.667 7.16699 43.834 21.5 57.501s34.166 20.5 59.499 20.5s45.166 -6.83301 59.499 -20.5s21.5 -32.5 21.5 -56.5c0 -24.667 -7.16699 -43.834 -21.5 -57.501s-34.166 -20.5 -59.499 -20.5
s-45.166 6.83301 -59.499 20.5zM274 -199c-16 -10 -34.333 -17.667 -55 -23s-41.667 -8 -63 -8c-39.333 0 -70 9 -92 27s-33 43.333 -33 76c0 25.333 6.66699 49 20 71s32.333 40.667 57 56h-34v546h136v-546c-45.333 -33.333 -68 -67.333 -68 -102
c0 -26.667 15.333 -40 46 -40c18 0 36.667 4.33301 56 13z" />
    <glyph glyph-name="Idotaccent" unicode="&#x130;" horiz-adv-x="298" 
d="M89.5 796.5c-14.333 13.667 -21.5 32.5 -21.5 56.5c0 24.667 7.16699 43.834 21.5 57.501s34.166 20.5 59.499 20.5s45.166 -6.83301 59.499 -20.5s21.5 -32.5 21.5 -56.5c0 -24.667 -7.16699 -43.834 -21.5 -57.501s-34.166 -20.5 -59.499 -20.5
s-45.166 6.83301 -59.499 20.5zM80 724h138v-724h-138v724z" />
    <glyph glyph-name="dotlessi" unicode="&#x131;" horiz-adv-x="284" 
d="M74 546h136v-546h-136v546z" />
    <glyph glyph-name="IJ" unicode="&#x132;" horiz-adv-x="691" 
d="M78 724h138v-724h-138v724zM351 -4c-25.333 6 -48 14.333 -68 25l43 114c38 -16 69.667 -24 95 -24c48 0 72 28.667 72 86v527h138v-537c0 -63.333 -17.667 -112.5 -53 -147.5s-85.333 -52.5 -150 -52.5c-26 0 -51.667 3 -77 9z" />
    <glyph glyph-name="ij" unicode="&#x133;" horiz-adv-x="568" 
d="M74 546h136v-546h-136v546zM82.5 637.5c-14.333 13.667 -21.5 32.5 -21.5 56.5c0 24.667 7.16699 43.834 21.5 57.501s34.166 20.5 59.499 20.5s45.166 -6.83301 59.499 -20.5s21.5 -32.5 21.5 -56.5c0 -24.667 -7.16699 -43.834 -21.5 -57.501
s-34.166 -20.5 -59.499 -20.5s-45.166 6.83301 -59.499 20.5zM215 -112c39.333 13.333 69.166 26.832 89.499 40.499s34.333 29.834 42 48.501s11.5 44 11.5 76v493h136v-497c0 -51.333 -7 -93.333 -21 -126s-37.667 -60.167 -71 -82.5s-80.666 -43.5 -141.999 -63.5z
M366.5 637.499c-14.333 13.667 -21.5 32.5 -21.5 56.5c0 24.667 7.16699 43.834 21.5 57.501s34.166 20.5 59.499 20.5s45.166 -6.83301 59.499 -20.5s21.5 -32.5 21.5 -56.5c0 -24.667 -7.16699 -43.834 -21.5 -57.501s-34.166 -20.5 -59.499 -20.5
s-45.166 6.83301 -59.499 20.5z" />
    <glyph glyph-name="Jcircumflex" unicode="&#x134;" horiz-adv-x="472" 
d="M512 793v-12h-101l-83 76l-82 -76h-98v12l117 133h130zM261 724h137.999v-537c0 -63.333 -19.167 -112.5 -57.5 -147.5s-92.166 -52.5 -161.499 -52.5c-36 0 -69.667 4.83301 -101 14.5s-57.666 23.5 -78.999 41.5l49 105c45.333 -24.667 86.666 -37 123.999 -37
c58.667 0 88 28.667 88 86v527z" />
    <glyph glyph-name="jcircumflex" unicode="&#x135;" horiz-adv-x="284" 
d="M-69 -112c39.333 13.333 69.166 26.832 89.499 40.499s34.333 29.834 42 48.501s11.5 44 11.5 76v493h136v-497c0 -51.333 -7 -93.333 -21 -126s-37.667 -60.167 -71 -82.5s-80.666 -43.5 -141.999 -63.5zM306 624.999v-10h-95l-71 88l-70 -88h-92v10l102 159h124z" />
    <glyph glyph-name="Kcommaaccent" unicode="&#x136;" horiz-adv-x="636" 
d="M293 301l-77 -96v-205h-138v724h138v-341l255 341h163l-254 -315l270 -409h-163zM241 -238c16.667 18 28.333 36.166 35 54.499s10 40.833 10 67.5c0 16 -1.33301 32.667 -4 50h124c2.66699 -17.333 4 -33.666 4 -48.999c0 -32 -9.5 -62 -28.5 -90
s-49.5 -56.667 -91.5 -86z" />
    <glyph glyph-name="kcommaaccent" unicode="&#x137;" horiz-adv-x="565" 
d="M265 215l-57 -68v-147h-136v770h136v-450l181 226h155l-193 -229l208 -317h-155zM190 -238c16.667 18 28.333 36.166 35 54.499s10 40.833 10 67.5c0 16 -1.33301 32.667 -4 50h124c2.66699 -17.333 4 -33.666 4 -48.999c0 -32 -9.5 -62 -28.5 -90
s-49.5 -56.667 -91.5 -86z" />
    <glyph glyph-name="kgreenlandic" unicode="&#x138;" horiz-adv-x="565" 
d="M265 215l-57 -68v-147h-136v546h136v-226l181 226h155l-193 -229l208 -317h-155z" />
    <glyph glyph-name="Lacute" unicode="&#x139;" horiz-adv-x="531" 
d="M205 781h-114v12l145 133h151v-12zM507 124v-124h-429v724h138v-600h291z" />
    <glyph glyph-name="lacute" unicode="&#x13a;" horiz-adv-x="326" 
d="M52 839l145 133h151v-12l-182 -133h-114v12zM106.5 29c-24.333 24 -36.501 60.667 -36.501 110v631h136v-601c0 -19.333 3.66699 -33.333 11 -42s19.666 -13 36.999 -13c10.667 0 22.334 1 35.001 3l9 -115c-26 -6 -53 -9 -81 -9c-49.333 0 -86.166 12 -110.499 36z" />
    <glyph glyph-name="Lcommaaccent" unicode="&#x13b;" horiz-adv-x="531" 
d="M507 124v-124h-429v724h138v-600h291zM196 -238c16.667 18 28.333 36.166 35 54.499s10 40.833 10 67.5c0 16 -1.33301 32.667 -4 50h124c2.66699 -17.333 4 -33.666 4 -48.999c0 -32 -9.5 -62 -28.5 -90s-49.5 -56.667 -91.5 -86z" />
    <glyph glyph-name="lcommaaccent" unicode="&#x13c;" horiz-adv-x="326" 
d="M106.5 29c-24.333 24 -36.501 60.667 -36.501 110v631h136v-601c0 -19.333 3.66699 -33.333 11 -42s19.666 -13 36.999 -13c10.667 0 22.334 1 35.001 3l9 -115c-26 -6 -53 -9 -81 -9c-49.333 0 -86.166 12 -110.499 36zM72.999 -238c16.667 18 28.333 36.166 35 54.499
s10 40.833 10 67.5c0 16 -1.33301 32.667 -4 50h124c2.66699 -17.333 4 -33.666 4 -48.999c0 -32 -9.5 -62 -28.5 -90s-49.5 -56.667 -91.5 -86z" />
    <glyph glyph-name="Lcaron" unicode="&#x13d;" horiz-adv-x="531" 
d="M399 540h-78v230h112v-10zM507 124v-124h-429v724h138v-600h291z" />
    <glyph glyph-name="lcaron" unicode="&#x13e;" horiz-adv-x="328" 
d="M106.5 29c-24.333 24 -36.501 60.667 -36.501 110v631h136v-601c0 -19.333 3.66699 -33.333 11 -42s19.666 -13 36.999 -13c10.667 0 22.334 1 35.001 3l9 -115c-26 -6 -53 -9 -81 -9c-49.333 0 -86.166 12 -110.499 36zM264.999 770h112v-10l-34 -220h-78v230z" />
    <glyph glyph-name="Ldot" unicode="&#x13f;" horiz-adv-x="531" 
d="M507 124v-124h-429v724h138v-600h291zM346.5 355.5c-14.333 13.667 -21.5 32.5 -21.5 56.5c0 24.667 7.16699 43.834 21.5 57.501s34.166 20.5 59.499 20.5s45.166 -6.83301 59.499 -20.5s21.5 -32.5 21.5 -56.5c0 -24.667 -7.16699 -43.834 -21.5 -57.501
s-34.166 -20.5 -59.499 -20.5s-45.166 6.83301 -59.499 20.5z" />
    <glyph glyph-name="ldot" unicode="&#x140;" horiz-adv-x="397" 
d="M106.5 29c-24.333 24 -36.501 60.667 -36.501 110v631h136v-601c0 -19.333 3.66699 -33.333 11 -42s19.666 -13 36.999 -13c10.667 0 22.334 1 35.001 3l9 -115c-26 -6 -53 -9 -81 -9c-49.333 0 -86.166 12 -110.499 36zM276.499 343.5
c-14.333 13.667 -21.5 32.5 -21.5 56.5c0 24.667 7.16699 43.834 21.5 57.501s34.166 20.5 59.499 20.5s45.166 -6.83301 59.499 -20.5s21.5 -32.5 21.5 -56.5c0 -24.667 -7.16699 -43.834 -21.5 -57.501s-34.166 -20.5 -59.499 -20.5s-45.166 6.83301 -59.499 20.5z" />
    <glyph glyph-name="Lslash" unicode="&#x141;" horiz-adv-x="535" 
d="M511 124v-124h-429v232l-48 -29h-10v108l58 32v381h138v-304l182 106h10v-108l-192 -107v-187h291z" />
    <glyph glyph-name="lslash" unicode="&#x142;" horiz-adv-x="362" 
d="M230 383l-0.000976562 -214c0 -19.333 3.66699 -33.333 11 -42s19.666 -13 36.999 -13c10.667 0 22.334 1 35.001 3l9 -115c-26 -6 -53 -9 -81 -9c-49.333 0 -86.166 12 -110.499 36s-36.5 60.667 -36.5 110v163l-66 -41h-10v106l76 45v358h136v-277l87 53h10v-106z" />
    <glyph glyph-name="Nacute" unicode="&#x143;" horiz-adv-x="726" 
d="M391 781h-114v12l145 133h151v-12zM648 724v-724h-133l-301 491v-491h-136v724h133l301 -489v489h136z" />
    <glyph glyph-name="nacute" unicode="&#x144;" horiz-adv-x="588" 
d="M478.5 512c28.333 -31.333 42.5 -75.333 42.5 -132v-380h-136v360c0 48.667 -26.333 73 -79 73c-18 0 -34.667 -3 -50 -9s-31.333 -15.333 -48 -28v-396h-136v546h123v-69c42.667 54.667 97.334 82 164.001 82c51.333 0 91.166 -15.667 119.499 -47zM223 625l95 159h141
v-10l-132 -159h-104v10z" />
    <glyph glyph-name="Ncommaaccent" unicode="&#x145;" horiz-adv-x="726" 
d="M648 724v-724h-133l-301 491v-491h-136v724h133l301 -489v489h136zM258 -238c16.667 18 28.333 36.166 35 54.499s10 40.833 10 67.5c0 16 -1.33301 32.667 -4 50h124c2.66699 -17.333 4 -33.666 4 -48.999c0 -32 -9.5 -62 -28.5 -90s-49.5 -56.667 -91.5 -86z" />
    <glyph glyph-name="ncommaaccent" unicode="&#x146;" horiz-adv-x="588" 
d="M478.5 512c28.333 -31.333 42.5 -75.333 42.5 -132v-380h-136v360c0 48.667 -26.333 73 -79 73c-18 0 -34.667 -3 -50 -9s-31.333 -15.333 -48 -28v-396h-136v546h123v-69c42.667 54.667 97.334 82 164.001 82c51.333 0 91.166 -15.667 119.499 -47zM193 -238
c16.667 18 28.333 36.166 35 54.499s10 40.833 10 67.5c0 16 -1.33301 32.667 -4 50h124c2.66699 -17.333 4 -33.666 4 -48.999c0 -32 -9.5 -62 -28.5 -90s-49.5 -56.667 -91.5 -86z" />
    <glyph glyph-name="Ncaron" unicode="&#x147;" horiz-adv-x="726" 
d="M298 781l-117 133v12h101l83 -76l82 76h98v-12l-117 -133h-130zM648 724v-724h-133l-301 491v-491h-136v724h133l301 -489v489h136z" />
    <glyph glyph-name="ncaron" unicode="&#x148;" horiz-adv-x="588" 
d="M478.5 512c28.333 -31.333 42.5 -75.333 42.5 -132v-380h-136v360c0 48.667 -26.333 73 -79 73c-18 0 -34.667 -3 -50 -9s-31.333 -15.333 -48 -28v-396h-136v546h123v-69c42.667 54.667 97.334 82 164.001 82c51.333 0 91.166 -15.667 119.499 -47zM461 784v-10
l-102 -159h-124l-102 159v10h95l70 -88l71 88h92z" />
    <glyph glyph-name="napostrophe" unicode="&#x149;" horiz-adv-x="588" 
d="M478.5 512c28.333 -31.333 42.5 -75.333 42.5 -132v-380h-136v360c0 48.667 -26.333 73 -79 73c-18 0 -34.667 -3 -50 -9s-31.333 -15.333 -48 -28v-396h-136v546h123v-69c42.667 54.667 97.334 82 164.001 82c51.333 0 91.166 -15.667 119.499 -47zM-96 564
c21.333 22.667 36.334 45 45.001 67s13 49 13 81c0 24 -0.666992 43.333 -2 58h122c1.33301 -14.667 2 -33.667 2 -57c0 -37.333 -10.333 -72 -31 -104s-54.334 -64.333 -101.001 -97z" />
    <glyph glyph-name="Eng" unicode="&#x14a;" horiz-adv-x="727" 
d="M648 724v-724v-30c0 -60.667 -17.333 -107.5 -52 -140.5s-83.667 -49.5 -147 -49.5c-64 0 -117.333 17.333 -160 52l48 102c40 -22 75 -33 105 -33c46.667 0 70 26.333 70 79v25l-298 486v-491h-136v724h133l301 -489v489h136z" />
    <glyph glyph-name="eng" unicode="&#x14b;" horiz-adv-x="588" 
d="M478.5 512c28.333 -31.333 42.501 -75.333 42.501 -132v-380v-50c0 -54 -14.833 -95.833 -44.5 -125.5s-71.5 -44.5 -125.5 -44.5c-48.667 0 -91.667 13 -129 39l43 100c32 -13.333 57 -20 75 -20c15.333 0 26.666 4.83301 33.999 14.5s11 25.167 11 46.5v257v143
c0 48.667 -26.333 73 -79 73c-18 0 -34.667 -3 -50 -9s-31.333 -15.333 -48 -28v-396h-136v546h123v-69c42.667 54.667 97.334 82 164.001 82c51.333 0 91.166 -15.667 119.499 -47z" />
    <glyph glyph-name="Omacron" unicode="&#x14c;" horiz-adv-x="716" 
d="M194 898h328v-92h-328v92zM127.5 81.5c-53 63 -79.5 156.5 -79.5 280.5s26.5 217.5 79.5 280.5s129.833 94.5 230.5 94.5s177.5 -31.5 230.5 -94.5s79.5 -156.5 79.5 -280.5s-26.5 -217.5 -79.5 -280.5s-129.833 -94.5 -230.5 -94.5s-177.5 31.5 -230.5 94.5zM526 362
c0 168 -56 252 -168 252s-168 -84 -168 -252s56 -252 168 -252s168 84 168 252z" />
    <glyph glyph-name="omacron" unicode="&#x14d;" horiz-adv-x="563" 
d="M101.5 59c-41.667 48 -62.5 119.333 -62.5 214c0 94 21 165.167 63 213.5s102 72.5 180 72.5s137.833 -24 179.5 -72s62.5 -119.333 62.5 -214c0 -94 -21 -165.167 -63 -213.5s-102 -72.5 -180 -72.5s-137.833 24 -179.5 72zM385 273c0 110 -34.333 165 -103 165
c-69.333 0 -104 -55 -104 -165s34.333 -165 103 -165c69.333 0 104 55 104 165zM118 728h328v-92h-328v92z" />
    <glyph glyph-name="Obreve" unicode="&#x14e;" horiz-adv-x="716" 
d="M241 823.5c-28 29 -43.001 71.167 -45.001 126.5h78c6.66699 -48.667 35 -73 85 -73c50.667 0 79.334 24.333 86.001 73h75c-2 -55.333 -17 -97.5 -45 -126.5s-67 -43.5 -117 -43.5s-89 14.5 -117 43.5zM127.499 81.5c-53 63 -79.5 156.5 -79.5 280.5
s26.5 217.5 79.5 280.5s129.833 94.5 230.5 94.5s177.5 -31.5 230.5 -94.5s79.5 -156.5 79.5 -280.5s-26.5 -217.5 -79.5 -280.5s-129.833 -94.5 -230.5 -94.5s-177.5 31.5 -230.5 94.5zM525.999 362c0 168 -56 252 -168 252s-168 -84 -168 -252s56 -252 168 -252
s168 84 168 252z" />
    <glyph glyph-name="obreve" unicode="&#x14f;" horiz-adv-x="563" 
d="M101.5 59c-41.667 48 -62.5 119.333 -62.5 214c0 94 21 165.167 63 213.5s102 72.5 180 72.5s137.833 -24 179.5 -72s62.5 -119.333 62.5 -214c0 -94 -21 -165.167 -63 -213.5s-102 -72.5 -180 -72.5s-137.833 24 -179.5 72zM385 273c0 110 -34.333 165 -103 165
c-69.333 0 -104 -55 -104 -165s34.333 -165 103 -165c69.333 0 104 55 104 165zM165 653.5c-28 29 -43.001 71.167 -45.001 126.5h78c6.66699 -48.667 35 -73 85 -73c50.667 0 79.334 24.333 86.001 73h75c-2 -55.333 -17 -97.5 -45 -126.5s-67 -43.5 -117 -43.5
s-89 14.5 -117 43.5z" />
    <glyph glyph-name="Ohungarumlaut" unicode="&#x150;" horiz-adv-x="716" 
d="M206 793l93 133h125v-12l-128 -133h-90v12zM376 793l94 133h127v-12l-129 -133h-92v12zM127.5 81.5c-53 63 -79.5 156.5 -79.5 280.5s26.5 217.5 79.5 280.5s129.833 94.5 230.5 94.5s177.5 -31.5 230.5 -94.5s79.5 -156.5 79.5 -280.5s-26.5 -217.5 -79.5 -280.5
s-129.833 -94.5 -230.5 -94.5s-177.5 31.5 -230.5 94.5zM526 362c0 168 -56 252 -168 252s-168 -84 -168 -252s56 -252 168 -252s168 84 168 252z" />
    <glyph glyph-name="ohungarumlaut" unicode="&#x151;" horiz-adv-x="563" 
d="M101.5 59c-41.667 48 -62.5 119.333 -62.5 214c0 94 21 165.167 63 213.5s102 72.5 180 72.5s137.833 -24 179.5 -72s62.5 -119.333 62.5 -214c0 -94 -21 -165.167 -63 -213.5s-102 -72.5 -180 -72.5s-137.833 24 -179.5 72zM385 273c0 110 -34.333 165 -103 165
c-69.333 0 -104 -55 -104 -165s34.333 -165 103 -165c69.333 0 104 55 104 165zM149 625l54 159h121v-10l-89 -159h-86v10zM304 625l56 159h121v-10l-91 -159h-86v10z" />
    <glyph glyph-name="OE" unicode="&#x152;" horiz-adv-x="964" 
d="M934 123v-123h-452h-124c-100.667 -0 -177.5 30.333 -230.5 91s-79.5 151 -79.5 271s26.5 210.333 79.5 271s129.833 91 230.5 91h163h399v-123h-304v-169h220v-124h-220v-185h318zM482 123v478h-124c-112 0 -168 -79.667 -168 -239s56 -239 168 -239h124z" />
    <glyph glyph-name="oe" unicode="&#x153;" horiz-adv-x="881" 
d="M842 230l-325.997 0.000976562c11.333 -80 55.666 -120 132.999 -120c41.333 0 84.333 10.667 129 32l48 -101c-26.667 -16.667 -56.667 -29.667 -90 -39s-67.333 -14 -102 -14c-80 0 -142 24.667 -186 74c-40 -50 -96.667 -75 -170 -75c-75.333 0 -134 24.167 -176 72.5
s-63 119.5 -63 213.5s21.167 165.167 63.5 213.5s101.166 72.5 176.499 72.5c74.667 0 132 -26 172 -78c17.333 25.333 40.333 44.666 69 57.999s61 20 97 20c73.333 0 130.166 -23 170.499 -69s60.5 -110.667 60.5 -194c0 -24.667 -2 -46.667 -6 -66zM515.003 321.001h198
c-0.666992 38 -9.66699 67.333 -27 88s-41.333 31 -72 31c-57.333 0 -90.333 -39.667 -99 -119zM379.003 273.001c0 110 -33.333 165 -100 165c-67.333 0 -101 -55 -101 -165s33.333 -165 100 -165c67.333 0 101 55 101 165z" />
    <glyph glyph-name="Racute" unicode="&#x154;" horiz-adv-x="635" 
d="M346 781h-114v12l145 133h151v-12zM303 250l-87.001 -0.000976562v-250h-138v724h138h122c76.667 0 135.834 -20.5 177.501 -61.5s62.5 -99.167 62.5 -174.5c0 -55.333 -11.5 -101.666 -34.5 -138.999s-56.167 -64.333 -99.5 -81l179 -268h-165zM215.999 367.999h122
c65.333 0 98 39 98 117c0 78.667 -34 118 -102 118h-118v-235z" />
    <glyph glyph-name="racute" unicode="&#x155;" horiz-adv-x="406" 
d="M396 544l-25.999 -127c-20 6 -41.333 9 -64 9s-41.834 -3.83301 -57.501 -11.5s-29.167 -20.167 -40.5 -37.5v-377h-136v546h123v-86c30.667 64.667 77.667 97 141 97c22.667 0 42.667 -4.33301 60 -13zM161.001 625l95 159h141v-10l-132 -159h-104v10z" />
    <glyph glyph-name="Rcommaaccent" unicode="&#x156;" horiz-adv-x="635" 
d="M303 250l-87.001 -0.000976562v-250h-138v724h138h122c76.667 0 135.834 -20.5 177.501 -61.5s62.5 -99.167 62.5 -174.5c0 -55.333 -11.5 -101.666 -34.5 -138.999s-56.167 -64.333 -99.5 -81l179 -268h-165zM215.999 367.999h122c65.333 0 98 39 98 117
c0 78.667 -34 118 -102 118h-118v-235zM231.999 -238.001c16.667 18 28.333 36.166 35 54.499s10 40.833 10 67.5c0 16 -1.33301 32.667 -4 50h124c2.66699 -17.333 4 -33.666 4 -48.999c0 -32 -9.5 -62 -28.5 -90s-49.5 -56.667 -91.5 -86z" />
    <glyph glyph-name="rcommaaccent" unicode="&#x157;" horiz-adv-x="406" 
d="M396 544l-25.999 -127c-20 6 -41.333 9 -64 9s-41.834 -3.83301 -57.501 -11.5s-29.167 -20.167 -40.5 -37.5v-377h-136v546h123v-86c30.667 64.667 77.667 97 141 97c22.667 0 42.667 -4.33301 60 -13zM35.001 -238c16.667 18 28.333 36.166 35 54.499
s10 40.833 10 67.5c0 16 -1.33301 32.667 -4 50h124c2.66699 -17.333 4 -33.666 4 -48.999c0 -32 -9.5 -62 -28.5 -90s-49.5 -56.667 -91.5 -86z" />
    <glyph glyph-name="Rcaron" unicode="&#x158;" horiz-adv-x="635" 
d="M253 781l-117 133v12h101l83 -76l82 76h98v-12l-117 -133h-130zM303 250l-87.001 -0.000976562v-250h-138v724h138h122c76.667 0 135.834 -20.5 177.501 -61.5s62.5 -99.167 62.5 -174.5c0 -55.333 -11.5 -101.666 -34.5 -138.999s-56.167 -64.333 -99.5 -81l179 -268
h-165zM215.999 367.999h122c65.333 0 98 39 98 117c0 78.667 -34 118 -102 118h-118v-235z" />
    <glyph glyph-name="rcaron" unicode="&#x159;" horiz-adv-x="406" 
d="M396 544l-25.999 -127c-20 6 -41.333 9 -64 9s-41.834 -3.83301 -57.501 -11.5s-29.167 -20.167 -40.5 -37.5v-377h-136v546h123v-86c30.667 64.667 77.667 97 141 97c22.667 0 42.667 -4.33301 60 -13zM399.001 784v-10l-102 -159h-124l-102 159v10h95l70 -88l71 88h92z
" />
    <glyph glyph-name="Sacute" unicode="&#x15a;" horiz-adv-x="564" 
d="M184 793l145 133h151v-12l-182 -133h-114v12zM139.5 5.5c-41.667 11.667 -78.5 27.835 -110.5 48.502l44 108c63.333 -36.667 128.333 -55 195 -55c83.333 0 125 28.667 125 86c0 24 -7.66699 43.667 -23 59s-40 27.666 -74 36.999l-82 23
c-62 17.333 -106.833 42 -134.5 74s-41.5 75 -41.5 129c0 70 21.333 124.333 64 163s102.334 58 179.001 58c36.667 0 74.667 -4.33301 114 -13s76.666 -21 111.999 -37l-45 -108c-70 26 -131 39 -183 39c-72.667 0 -109 -26.333 -109 -79c0 -24 7.66699 -43.5 23 -58.5
s40 -27.167 74 -36.5l82 -23c62.667 -17.333 107.667 -42 135 -74s41 -75.333 41 -130c0 -72.667 -22.5 -128.834 -67.5 -168.501s-108.167 -59.5 -189.5 -59.5c-44 0 -86.833 5.83301 -128.5 17.5z" />
    <glyph glyph-name="sacute" unicode="&#x15b;" horiz-adv-x="471" 
d="M113.5 2.5c-35.667 9.66699 -66.834 23.165 -93.501 40.498l47 110c49.333 -30.667 101.666 -46 156.999 -46c58 0 87 16.333 87 49c0 13.333 -5.16699 24.333 -15.5 33s-27.166 15.667 -50.499 21l-71 17c-51.333 12 -88.333 30.333 -111 55s-34 58.334 -34 101.001
c0 55.333 18.167 98.333 54.5 129s87.5 46 153.5 46c33.333 0 66.666 -4.16699 99.999 -12.5s63.333 -19.833 90 -34.5l-50 -108c-49.333 24 -96.666 36 -141.999 36c-50.667 0 -76 -14.333 -76 -43c0 -12.667 5.33301 -23.167 16 -31.5s27.334 -15.166 50.001 -20.499
l71 -17c50.667 -12 87.5 -30.5 110.5 -55.5s34.5 -59.167 34.5 -102.5c0 -57.333 -19 -101.833 -57 -133.5s-91.333 -47.5 -160 -47.5c-38 0 -74.833 4.83301 -110.5 14.5zM154 624.998l95 159h141v-10l-132 -159h-104v10z" />
    <glyph glyph-name="Scircumflex" unicode="&#x15c;" horiz-adv-x="564" 
d="M186 781h-98v12l117 133h130l117 -133v-12h-101l-83 76zM484 346c27.333 -32 41 -75.332 41 -129.999c0 -72.667 -22.5 -128.834 -67.5 -168.501s-108.167 -59.5 -189.5 -59.5c-44 0 -86.833 5.83301 -128.5 17.5s-78.5 27.834 -110.5 48.501l44 108
c63.333 -36.667 128.333 -55 195 -55c83.333 0 125 28.667 125 86c0 24 -7.66699 43.667 -23 59s-40 27.666 -74 36.999l-82 23c-62 17.333 -106.833 42 -134.5 74s-41.5 75 -41.5 129c0 70 21.333 124.333 64 163s102.334 58 179.001 58c36.667 0 74.667 -4.33301 114 -13
s76.666 -21 111.999 -37l-45 -108c-70 26 -131 39 -183 39c-72.667 0 -109 -26.333 -109 -79c0 -24 7.66699 -43.5 23 -58.5s40 -27.167 74 -36.5l82 -23c62.667 -17.333 107.667 -42 135 -74z" />
    <glyph glyph-name="scircumflex" unicode="&#x15d;" horiz-adv-x="471" 
d="M113.5 2.5c-35.667 9.66699 -66.834 23.165 -93.501 40.498l47 110c49.333 -30.667 101.666 -46 156.999 -46c58 0 87 16.333 87 49c0 13.333 -5.16699 24.333 -15.5 33s-27.166 15.667 -50.499 21l-71 17c-51.333 12 -88.333 30.333 -111 55s-34 58.334 -34 101.001
c0 55.333 18.167 98.333 54.5 129s87.5 46 153.5 46c33.333 0 66.666 -4.16699 99.999 -12.5s63.333 -19.833 90 -34.5l-50 -108c-49.333 24 -96.666 36 -141.999 36c-50.667 0 -76 -14.333 -76 -43c0 -12.667 5.33301 -23.167 16 -31.5s27.334 -15.166 50.001 -20.499
l71 -17c50.667 -12 87.5 -30.5 110.5 -55.5s34.5 -59.167 34.5 -102.5c0 -57.333 -19 -101.833 -57 -133.5s-91.333 -47.5 -160 -47.5c-38 0 -74.833 4.83301 -110.5 14.5zM392 624.998v-10h-95l-71 88l-70 -88h-92v10l102 159h124z" />
    <glyph glyph-name="Scedilla" unicode="&#x15e;" horiz-adv-x="564" 
d="M468 57.5c-38 -39 -92 -61.499 -162 -67.499l-30 -41c9.33301 1.33301 16.333 2 21 2c36 0 63.833 -7.5 83.5 -22.5s29.5 -36.167 29.5 -63.5c0 -33.333 -12 -59.166 -36 -77.499s-58 -27.5 -102 -27.5c-45.333 0 -86 8.66699 -122 26l21 62
c35.333 -11.333 64 -17 86 -17c32.667 0 49 10.333 49 31c0 19.333 -14.333 29 -43 29c-14 0 -27 -2.33301 -39 -7l-30 34l30 72c-76.667 7.33301 -141.667 28.666 -195 63.999l44 108c63.333 -36.667 128.333 -55 195 -55c83.333 0 125 28.667 125 86
c0 24 -7.66699 43.667 -23 59s-40 27.666 -74 36.999l-82 23c-62 17.333 -106.833 42 -134.5 74s-41.5 75 -41.5 129c0 70 21.333 124.333 64 163s102.334 58 179.001 58c36.667 0 74.667 -4.33301 114 -13s76.666 -21 111.999 -37l-45 -108c-70 26 -131 39 -183 39
c-72.667 0 -109 -26.333 -109 -79c0 -24 7.66699 -43.5 23 -58.5s40 -27.167 74 -36.5l82 -23c62.667 -17.333 107.667 -42 135 -74s41 -75.333 41 -130c0 -66.667 -19 -119.5 -57 -158.5z" />
    <glyph glyph-name="scedilla" unicode="&#x15f;" horiz-adv-x="471" 
d="M394 44c-31.333 -30.667 -76.001 -48.6689 -134.001 -54.002l-30 -41c9.33301 1.33301 16.333 2 21 2c36 0 63.833 -7.5 83.5 -22.5s29.5 -36.167 29.5 -63.5c0 -33.333 -12 -59.166 -36 -77.499s-58 -27.5 -102 -27.5c-45.333 0 -86 8.66699 -122 26l21 62
c35.333 -11.333 64 -17 86 -17c32.667 0 49 10.333 49 31c0 19.333 -14.333 29 -43 29c-14 0 -27 -2.33301 -39 -7l-30 34l30 72c-63.333 7.33301 -116 25 -158 53l47 110c49.333 -30.667 101.666 -46 156.999 -46c58 0 87 16.333 87 49c0 13.333 -5.16699 24.333 -15.5 33
s-27.166 15.667 -50.499 21l-71 17c-51.333 12 -88.333 30.333 -111 55s-34 58.334 -34 101.001c0 55.333 18.167 98.333 54.5 129s87.5 46 153.5 46c33.333 0 66.666 -4.16699 99.999 -12.5s63.333 -19.833 90 -34.5l-50 -108c-49.333 24 -96.666 36 -141.999 36
c-50.667 0 -76 -14.333 -76 -43c0 -12.667 5.33301 -23.167 16 -31.5s27.334 -15.166 50.001 -20.499l71 -17c50.667 -12 87.5 -30.5 110.5 -55.5s34.5 -59.167 34.5 -102.5c0 -52.667 -15.667 -94.334 -47 -125.001z" />
    <glyph glyph-name="Scaron" unicode="&#x160;" horiz-adv-x="564" 
d="M205 781l-117 133v12h101l83 -76l82 76h98v-12l-117 -133h-130zM484 346c27.333 -32 41 -75.332 41 -129.999c0 -72.667 -22.5 -128.834 -67.5 -168.501s-108.167 -59.5 -189.5 -59.5c-44 0 -86.833 5.83301 -128.5 17.5s-78.5 27.834 -110.5 48.501l44 108
c63.333 -36.667 128.333 -55 195 -55c83.333 0 125 28.667 125 86c0 24 -7.66699 43.667 -23 59s-40 27.666 -74 36.999l-82 23c-62 17.333 -106.833 42 -134.5 74s-41.5 75 -41.5 129c0 70 21.333 124.333 64 163s102.334 58 179.001 58c36.667 0 74.667 -4.33301 114 -13
s76.666 -21 111.999 -37l-45 -108c-70 26 -131 39 -183 39c-72.667 0 -109 -26.333 -109 -79c0 -24 7.66699 -43.5 23 -58.5s40 -27.167 74 -36.5l82 -23c62.667 -17.333 107.667 -42 135 -74z" />
    <glyph glyph-name="scaron" unicode="&#x161;" horiz-adv-x="471" 
d="M113.5 2.5c-35.667 9.66699 -66.834 23.165 -93.501 40.498l47 110c49.333 -30.667 101.666 -46 156.999 -46c58 0 87 16.333 87 49c0 13.333 -5.16699 24.333 -15.5 33s-27.166 15.667 -50.499 21l-71 17c-51.333 12 -88.333 30.333 -111 55s-34 58.334 -34 101.001
c0 55.333 18.167 98.333 54.5 129s87.5 46 153.5 46c33.333 0 66.666 -4.16699 99.999 -12.5s63.333 -19.833 90 -34.5l-50 -108c-49.333 24 -96.666 36 -141.999 36c-50.667 0 -76 -14.333 -76 -43c0 -12.667 5.33301 -23.167 16 -31.5s27.334 -15.166 50.001 -20.499
l71 -17c50.667 -12 87.5 -30.5 110.5 -55.5s34.5 -59.167 34.5 -102.5c0 -57.333 -19 -101.833 -57 -133.5s-91.333 -47.5 -160 -47.5c-38 0 -74.833 4.83301 -110.5 14.5zM392 783.998v-10l-102 -159h-124l-102 159v10h95l70 -88l71 88h92z" />
    <glyph glyph-name="uni0162" unicode="&#x162;" horiz-adv-x="530" 
d="M301 0l-38 -51.001c9.33301 1.33301 16.333 2 21 2c36 0 63.833 -7.5 83.5 -22.5s29.5 -36.167 29.5 -63.5c0 -33.333 -12 -59.166 -36 -77.499s-58 -27.5 -102 -27.5c-45.333 0 -86 8.66699 -122 26l21 62c35.333 -11.333 64 -17 86 -17c32.667 0 49 10.333 49 31
c0 19.333 -14.333 29 -43 29c-14 0 -27 -2.33301 -39 -7l-30 34l34 82h-19v600h-180v124h318h180v-124h-180v-600h-33z" />
    <glyph glyph-name="uni0163" unicode="&#x163;" horiz-adv-x="404" 
d="M337.5 -71.5c19.667 -15 29.5 -36.168 29.5 -63.501c0 -33.333 -12 -59.166 -36 -77.499s-58 -27.5 -102 -27.5c-45.333 0 -86 8.66699 -122 26l21 62c35.333 -11.333 64 -17 86 -17c32.667 0 49 10.333 49 31c0 19.333 -14.333 29 -43 29c-14 0 -27 -2.33301 -39 -7
l-30 34l37 90c-62.667 24 -94 77.333 -94 160v261h-83v117h84v148h135v-148h149v-117h-149v-236c0 -28 6.16699 -48.333 18.5 -61s31.833 -19 58.5 -19c18.667 0 38 2.66699 58 8l21 -115c-33.333 -9.33301 -67 -14 -101 -14h-20l-32 -43c9.33301 1.33301 16.333 2 21 2
c36 0 63.833 -7.5 83.5 -22.5z" />
    <glyph glyph-name="Tcaron" unicode="&#x164;" horiz-adv-x="530" 
d="M200 781l-117 133v12h101l83 -76l82 76h98v-12l-117 -133h-130zM514 600h-180v-600h-138v600h-180v124h318h180v-124z" />
    <glyph glyph-name="tcaron" unicode="&#x165;" horiz-adv-x="404" 
d="M271 770h112v-10l-25 -163h-87v173zM94 168v261h-83v117h84v148h135v-148h149v-117h-149v-236c0 -28 6.16699 -48.333 18.5 -61s31.833 -19 58.5 -19c18.667 0 38 2.66699 58 8l21 -115c-33.333 -9.33301 -67 -14 -101 -14c-127.333 0 -191 58.667 -191 176z" />
    <glyph glyph-name="Tbar" unicode="&#x166;" horiz-adv-x="530" 
d="M334 600v-211h120v-105h-120v-284h-138v284h-120v105h120v211h-180v124h318h180v-124h-180z" />
    <glyph glyph-name="tbar" unicode="&#x167;" horiz-adv-x="404" 
d="M386 6c-33.333 -9.33301 -67 -14 -101 -14c-127.333 0 -191 58.667 -191 176v86h-83v95h83v80h-83v117h84v148h135v-148h149v-117h-149v-80h149v-95h-149v-61c0 -28 6.16699 -48.333 18.5 -61s31.833 -19 58.5 -19c18.667 0 38 2.66699 58 8z" />
    <glyph glyph-name="Utilde" unicode="&#x168;" horiz-adv-x="688" 
d="M368.5 794c-13 6 -28.167 14.667 -45.5 26c-10 7.33301 -18.833 12.833 -26.5 16.5s-15.5 5.5 -23.5 5.5c-22 0 -35 -18.333 -39 -55h-75c0.666992 47.333 11 84.166 31 110.499s47.667 39.5 83 39.5c18 0 33.5 -3 46.5 -9s28.167 -14.667 45.5 -26
c10 -7.33301 18.833 -12.833 26.5 -16.5s15.5 -5.5 23.5 -5.5c22 0 35 18.333 39 55h75c-0.666992 -47.333 -11 -84.166 -31 -110.499s-47.667 -39.5 -83 -39.5c-18 0 -33.5 3 -46.5 9zM143.5 55.5c-47 45.667 -70.5 110.167 -70.5 193.5v475h138v-465
c0 -99.333 44 -149 132 -149c89.333 0 134 49.667 134 149v465h138v-475c0 -83.333 -23.667 -147.833 -71 -193.5s-114.333 -68.5 -201 -68.5c-86 0 -152.5 22.833 -199.5 68.5z" />
    <glyph glyph-name="utilde" unicode="&#x169;" horiz-adv-x="580" 
d="M508 546v-546h-123v77c-40 -60 -93.667 -90 -161 -90c-50.667 0 -89.834 15.667 -117.501 47s-41.5 75.333 -41.5 132v380h136v-360c0 -48.667 25.333 -73 76 -73c18.667 0 35.334 3.5 50.001 10.5s29.667 18.167 45 33.5v389h136zM311.5 624
c-13 6 -28.167 14.667 -45.5 26c-10 7.33301 -18.833 12.833 -26.5 16.5s-15.5 5.5 -23.5 5.5c-22 0 -35 -18.333 -39 -55h-75c0.666992 47.333 11 84.166 31 110.499s47.667 39.5 83 39.5c18 0 33.5 -3 46.5 -9s28.167 -14.667 45.5 -26
c10 -7.33301 18.833 -12.833 26.5 -16.5s15.5 -5.5 23.5 -5.5c22 0 35 18.333 39 55h75c-0.666992 -47.333 -11 -84.166 -31 -110.499s-47.667 -39.5 -83 -39.5c-18 0 -33.5 3 -46.5 9z" />
    <glyph glyph-name="Umacron" unicode="&#x16a;" horiz-adv-x="688" 
d="M180 898h328v-92h-328v92zM143.5 55.5c-47 45.667 -70.5 110.167 -70.5 193.5v475h138v-465c0 -99.333 44 -149 132 -149c89.333 0 134 49.667 134 149v465h138v-475c0 -83.333 -23.667 -147.833 -71 -193.5s-114.333 -68.5 -201 -68.5c-86 0 -152.5 22.833 -199.5 68.5z
" />
    <glyph glyph-name="umacron" unicode="&#x16b;" horiz-adv-x="580" 
d="M508 546v-546h-123v77c-40 -60 -93.667 -90 -161 -90c-50.667 0 -89.834 15.667 -117.501 47s-41.5 75.333 -41.5 132v380h136v-360c0 -48.667 25.333 -73 76 -73c18.667 0 35.334 3.5 50.001 10.5s29.667 18.167 45 33.5v389h136zM123 728h328v-92h-328v92z" />
    <glyph glyph-name="Ubreve" unicode="&#x16c;" horiz-adv-x="688" 
d="M227 823.5c-28 29 -43.001 71.167 -45.001 126.5h78c6.66699 -48.667 35 -73 85 -73c50.667 0 79.334 24.333 86.001 73h75c-2 -55.333 -17 -97.5 -45 -126.5s-67 -43.5 -117 -43.5s-89 14.5 -117 43.5zM143.499 55.5c-47 45.667 -70.5 110.167 -70.5 193.5v475h138v-465
c0 -99.333 44 -149 132 -149c89.333 0 134 49.667 134 149v465h138v-475c0 -83.333 -23.667 -147.833 -71 -193.5s-114.333 -68.5 -201 -68.5c-86 0 -152.5 22.833 -199.5 68.5z" />
    <glyph glyph-name="ubreve" unicode="&#x16d;" horiz-adv-x="580" 
d="M508 546v-546h-123v77c-40 -60 -93.667 -90 -161 -90c-50.667 0 -89.834 15.667 -117.501 47s-41.5 75.333 -41.5 132v380h136v-360c0 -48.667 25.333 -73 76 -73c18.667 0 35.334 3.5 50.001 10.5s29.667 18.167 45 33.5v389h136zM170 653.5
c-28 29 -43.001 71.167 -45.001 126.5h78c6.66699 -48.667 35 -73 85 -73c50.667 0 79.334 24.333 86.001 73h75c-2 -55.333 -17 -97.5 -45 -126.5s-67 -43.5 -117 -43.5s-89 14.5 -117 43.5z" />
    <glyph glyph-name="Uring" unicode="&#x16e;" horiz-adv-x="688" 
d="M243 796.5c-24 21 -36 50.5 -36 88.5s12 67.5 36 88.5s57.667 31.5 101 31.5s77 -10.5 101 -31.5s36 -50.5 36 -88.5s-12 -67.5 -36 -88.5s-57.667 -31.5 -101 -31.5s-77 10.5 -101 31.5zM397 885c0 36 -17.667 54 -53 54s-53 -18 -53 -54s17.667 -54 53 -54s53 18 53 54
zM143.5 55.5c-47 45.667 -70.5 110.167 -70.5 193.5v475h138v-465c0 -99.333 44 -149 132 -149c89.333 0 134 49.667 134 149v465h138v-475c0 -83.333 -23.667 -147.833 -71 -193.5s-114.333 -68.5 -201 -68.5c-86 0 -152.5 22.833 -199.5 68.5z" />
    <glyph glyph-name="uring" unicode="&#x16f;" horiz-adv-x="580" 
d="M508 546v-546h-123v77c-40 -60 -93.667 -90 -161 -90c-50.667 0 -89.834 15.667 -117.501 47s-41.5 75.333 -41.5 132v380h136v-360c0 -48.667 25.333 -73 76 -73c18.667 0 35.334 3.5 50.001 10.5s29.667 18.167 45 33.5v389h136zM186.5 631.5
c-23.667 21 -35.5 50.5 -35.5 88.5s11.833 67.5 35.5 88.5s57.167 31.5 100.5 31.5s76.833 -10.5 100.5 -31.5s35.5 -50.5 35.5 -88.5s-11.833 -67.5 -35.5 -88.5s-57.167 -31.5 -100.5 -31.5s-76.833 10.5 -100.5 31.5zM340 720c0 36.667 -17.667 55 -53 55
s-53 -18.333 -53 -55s17.667 -55 53 -55s53 18.333 53 55z" />
    <glyph glyph-name="Uhungarumlaut" unicode="&#x170;" horiz-adv-x="688" 
d="M192 793l93 133h125v-12l-128 -133h-90v12zM362 793l94 133h127v-12l-129 -133h-92v12zM143.5 55.5c-47 45.667 -70.5 110.167 -70.5 193.5v475h138v-465c0 -99.333 44 -149 132 -149c89.333 0 134 49.667 134 149v465h138v-475c0 -83.333 -23.667 -147.833 -71 -193.5
s-114.333 -68.5 -201 -68.5c-86 0 -152.5 22.833 -199.5 68.5z" />
    <glyph glyph-name="uhungarumlaut" unicode="&#x171;" horiz-adv-x="580" 
d="M508 546v-546h-123v77c-40 -60 -93.667 -90 -161 -90c-50.667 0 -89.834 15.667 -117.501 47s-41.5 75.333 -41.5 132v380h136v-360c0 -48.667 25.333 -73 76 -73c18.667 0 35.334 3.5 50.001 10.5s29.667 18.167 45 33.5v389h136zM154 625l54 159h121v-10l-89 -159h-86
v10zM309 625l56 159h121v-10l-91 -159h-86v10z" />
    <glyph glyph-name="Uogonek" unicode="&#x172;" horiz-adv-x="688" 
d="M434.5 -45c-12.333 -20 -18.501 -39 -18.501 -57c0 -26.667 15.333 -40 46 -40c18 0 36.667 4.33301 56 13l30 -70c-16 -10 -34.333 -17.667 -55 -23s-41.667 -8 -63 -8c-39.333 0 -70 9 -92 27s-33 43.333 -33 76c0 42 17.667 80 53 114h-15
c-86 0 -152.5 22.833 -199.5 68.5s-70.5 110.167 -70.5 193.5v475h138v-465c0 -99.333 44 -149 132 -149c89.333 0 134 49.667 134 149v465h138v-475c0 -49.333 -7.66699 -90 -23 -122s-41.666 -63 -78.999 -93l-27 -22c-22 -18 -39.167 -37 -51.5 -57z" />
    <glyph glyph-name="uogonek" unicode="&#x173;" horiz-adv-x="580" 
d="M559 -199c-16 -10 -34.333 -17.667 -55 -23s-41.667 -8 -63 -8c-39.333 0 -70 9 -92 27s-33 43.333 -33 76c0 26 7.16699 49.833 21.5 71.5s34.833 39.5 61.5 53.5h-12v83c-22.667 -32.667 -47 -56.5 -73 -71.5s-56 -22.5 -90 -22.5
c-50.667 0 -89.834 15.667 -117.501 47s-41.5 75.333 -41.5 132v380h136v-360c0 -48.667 25.333 -73 76 -73c18.667 0 35.334 3.5 50.001 10.5s29.667 18.167 45 33.5v389h136v-546c-54 -32 -81 -66 -81 -102c0 -26.667 15.333 -40 46 -40c18 0 36.667 4.33301 56 13z" />
    <glyph glyph-name="Wcircumflex" unicode="&#x174;" horiz-adv-x="898" 
d="M363 781h-98v12l117 133h130l117 -133v-12h-101l-83 76zM877 724l-172 -724h-150l-107 536l-106 -536h-150l-171 724h142l106 -561l106 560h148l108 -561l105 562h141z" />
    <glyph glyph-name="wcircumflex" unicode="&#x175;" horiz-adv-x="791" 
d="M775 546l-148 -546h-146l-86 383l-84 -383h-146l-149 546h136l88 -403l87 403h138l90 -403l85 403h135zM561 625v-10h-95l-71 88l-70 -88h-92v10l102 159h124z" />
    <glyph glyph-name="Ycircumflex" unicode="&#x176;" horiz-adv-x="590" 
d="M210 781h-98v12l117 133h130l117 -133v-12h-101l-83 76zM579 724l-216 -485v-239h-138v239l-214 485h147l138 -335l137 335h146z" />
    <glyph glyph-name="ycircumflex" unicode="&#x177;" horiz-adv-x="523" 
d="M509 546l-165.001 -514.999c-20 -63.333 -52.167 -114.833 -96.5 -154.5s-105.833 -71.834 -184.5 -96.501l-46 114c46 16 82.333 32.333 109 49s48.334 36 65.001 58l-177 545h137l112 -402l110 402h136zM426.999 625.001v-10h-95l-71 88l-70 -88h-92v10l102 159h124z
" />
    <glyph glyph-name="Ydieresis" unicode="&#x178;" horiz-adv-x="590" 
d="M137 791c-12.667 12.667 -19 29.666 -19 50.999c0 22.667 6.33301 40.334 19 53.001s30.334 19 53.001 19s40.5 -6.33301 53.5 -19s19.5 -30 19.5 -52c0 -22.667 -6.33301 -40.167 -19 -52.5s-30.667 -18.5 -54 -18.5c-22.667 0 -40.334 6.33301 -53.001 19zM344 790.999
c-12.667 12.667 -19 29.666 -19 50.999c0 22.667 6.33301 40.334 19 53.001s30.334 19 53.001 19s40.5 -6.33301 53.5 -19s19.5 -30 19.5 -52c0 -22.667 -6.33301 -40.167 -19 -52.5s-30.667 -18.5 -54 -18.5c-22.667 0 -40.334 6.33301 -53.001 19zM579 723.998l-216 -485
v-239h-138v239l-214 485h147l138 -335l137 335h146z" />
    <glyph glyph-name="Zacute" unicode="&#x179;" horiz-adv-x="555" 
d="M304 781h-114v12l145 133h151v-12zM520 121v-121h-487v122l325 481h-311v121h467v-121l-325 -482h331z" />
    <glyph glyph-name="zacute" unicode="&#x17a;" horiz-adv-x="472" 
d="M442 115v-115h-414v115l256 316h-246v115h398v-115l-256 -316h262zM159 625l95 159h141v-10l-132 -159h-104v10z" />
    <glyph glyph-name="Zdotaccent" unicode="&#x17b;" horiz-adv-x="555" 
d="M216.5 796.5c-14.333 13.667 -21.5 32.5 -21.5 56.5c0 24.667 7.16699 43.834 21.5 57.501s34.166 20.5 59.499 20.5s45.166 -6.83301 59.499 -20.5s21.5 -32.5 21.5 -56.5c0 -24.667 -7.16699 -43.834 -21.5 -57.501s-34.166 -20.5 -59.499 -20.5
s-45.166 6.83301 -59.499 20.5zM520 121v-121h-487v122l325 481h-311v121h467v-121l-325 -482h331z" />
    <glyph glyph-name="zdotaccent" unicode="&#x17c;" horiz-adv-x="472" 
d="M442 115v-115h-414v115l256 316h-246v115h398v-115l-256 -316h262zM173.5 637.5c-14.333 13.667 -21.5 32.5 -21.5 56.5c0 24.667 7.16699 43.834 21.5 57.501s34.166 20.5 59.499 20.5s45.166 -6.83301 59.499 -20.5s21.5 -32.5 21.5 -56.5
c0 -24.667 -7.16699 -43.834 -21.5 -57.501s-34.166 -20.5 -59.499 -20.5s-45.166 6.83301 -59.499 20.5z" />
    <glyph glyph-name="Zcaron" unicode="&#x17d;" horiz-adv-x="555" 
d="M211 781l-117 133v12h101l83 -76l82 76h98v-12l-117 -133h-130zM520 121v-121h-487v122l325 481h-311v121h467v-121l-325 -482h331z" />
    <glyph glyph-name="zcaron" unicode="&#x17e;" horiz-adv-x="472" 
d="M442 115v-115h-414v115l256 316h-246v115h398v-115l-256 -316h262zM397 784v-10l-102 -159h-124l-102 159v10h95l70 -88l71 88h92z" />
    <glyph glyph-name="longs" unicode="&#x17f;" horiz-adv-x="299" 
d="M344 782l-0.000976562 -118c-19.333 2.66699 -39.666 4 -60.999 4c-50.667 0 -76 -27 -76 -81v-41v-546h-135v564v23c0 63.333 18.5 112.5 55.5 147.5s88.833 52.5 155.5 52.5c22.667 0 43 -1.66699 61 -5z" />
    <glyph glyph-name="uni0180" unicode="&#x180;" horiz-adv-x="583" 
d="M492 470.5c34.667 -48.333 51.999 -116.499 51.999 -204.499c0 -88.667 -17.5 -157.334 -52.5 -206.001s-84.167 -73 -147.5 -73c-32 0 -61 6.5 -87 19.5s-46.667 31.833 -62 56.5v-63h-123v603h-62v93h62v74h136v-74h198v-93h-198v-130
c32.667 46.667 78.334 70 137.001 70c63.333 0 112.333 -24.167 147 -72.5zM404.999 261.001c0 104 -34.6689 156.001 -104.002 156.001c-17.333 0 -33.333 -3.66699 -48 -11s-29.667 -19 -45 -35v-217c12.667 -14.667 27.334 -25.834 44.001 -33.501
s34.334 -11.5 53.001 -11.5c66.667 0 100 50.667 100 152z" />
    <glyph glyph-name="uni0181" unicode="&#x181;" horiz-adv-x="729" 
d="M691 218c0 -69.333 -20.833 -122.999 -62.5 -160.999s-100.167 -57 -175.5 -57h-219h-75v600c-19.333 0 -33.833 -4.66699 -43.5 -14s-14.5 -24.333 -14.5 -45c0 -10 1 -26 3 -48h-122c-2.66699 14 -4 29.667 -4 47c0 58.667 15.833 104 47.5 136s76.167 48 133.5 48h137
h124c73.333 0 130 -18 170 -54s60 -87 60 -153c0 -66.667 -31 -111.667 -93 -135c89.333 -26.667 134 -81.334 134 -164.001zM296 602.001v-173h124c60 0 90 28.333 90 85c0 58.667 -32.333 88 -97 88h-117zM550 215.001c0 64 -32.333 96 -97 96h-157v-189h164
c60 0 90 31 90 93z" />
    <glyph glyph-name="uni0182" unicode="&#x182;" horiz-adv-x="627" 
d="M523.5 418c43.667 -40 65.5 -99.667 65.5 -179c0 -78.667 -21.5 -138.167 -64.5 -178.5s-104.5 -60.5 -184.5 -60.5h-262v724h138h316v-105h-316v-141h119c82 0 144.833 -20 188.5 -60zM447 242c0 78 -35 117 -105 117h-126v-236h117c76 0 114 39.667 114 119z" />
    <glyph glyph-name="uni0183" unicode="&#x183;" horiz-adv-x="581" 
d="M490.5 484.5c34.333 -49.667 51.5 -119.833 51.5 -210.5c0 -91.333 -17.333 -162 -52 -212s-83.334 -75 -146.001 -75c-32 0 -61 6.5 -87 19.5s-46.667 31.833 -62 56.5v-63h-123v513v257h136h264v-108h-264v-173c32.667 46.667 78.334 70 137.001 70
c62.667 0 111.167 -24.833 145.5 -74.5zM403 269.001c0 109.333 -34.002 164.001 -102.002 164.001c-17.333 0 -33.333 -3.66699 -48 -11s-29.667 -19 -45 -35v-233c12.667 -14.667 27.334 -25.834 44.001 -33.501s34.334 -11.5 53.001 -11.5c65.333 0 98 53.333 98 160z
" />
    <glyph glyph-name="uni0184" unicode="&#x184;" horiz-adv-x="608" 
d="M531.5 416.5c44.333 -42.333 66.501 -101.833 66.501 -178.5c0 -75.333 -21.833 -133.833 -65.5 -175.5s-104.834 -62.5 -183.501 -62.5h-262v482l-69 63v53l110 126h97v-199v-45h119c80.667 0 143.167 -21.167 187.5 -63.5zM456.001 241c0 77.333 -35 116 -105 116h-126
v-234h117c76 0 114 39.333 114 118z" />
    <glyph glyph-name="uni0185" unicode="&#x185;" horiz-adv-x="583" 
d="M492.5 484.5c34.333 -49.667 51.5 -119.833 51.5 -210.5c0 -91.333 -17.333 -162 -52 -212s-83.334 -75 -146.001 -75c-32 0 -61 6.5 -87 19.5s-46.667 31.833 -62 56.5v-63h-123v513v18l-62 68v45l103 126h95v-193v-88c32.667 46.667 78.334 70 137.001 70
c62.667 0 111.167 -24.833 145.5 -74.5zM405 269.001c0 109.333 -34.002 164.001 -102.002 164.001c-17.333 0 -33.333 -3.66699 -48 -11s-29.667 -19 -45 -35v-233c12.667 -14.667 27.334 -25.834 44.001 -33.501s34.334 -11.5 53.001 -11.5c65.333 0 98 53.333 98 160z
" />
    <glyph glyph-name="uni0186" unicode="&#x186;" horiz-adv-x="603" 
d="M477 642c58.667 -62.667 88.001 -151 88.001 -265c0 -80 -13.333 -149.333 -40 -208s-64.834 -103.667 -114.501 -135s-108.167 -47 -175.5 -47c-37.333 0 -74 5 -110 15s-67 24.333 -93 43l47 105c52 -26 104.667 -39 158 -39c59.333 0 105.166 22.333 137.499 67
s48.5 107.667 48.5 189c0 162 -66.333 243 -199 243c-61.333 0 -111.666 -11.667 -150.999 -35l-47 104c22 18 51 32 87 42s75 15 117 15c106 0 188.333 -31.333 247 -94z" />
    <glyph glyph-name="uni0187" unicode="&#x187;" horiz-adv-x="693" 
d="M687 859l-0.000976562 -111.001c-22 2 -38 3 -48 3c-23.333 0 -40.5 -5.66699 -51.5 -17s-16.5 -28.666 -16.5 -51.999v-21v-87h-47c-52 26 -104.667 39 -158 39c-59.333 0 -105.166 -22.333 -137.499 -67s-48.5 -107.667 -48.5 -189c0 -162 66.333 -243 199 -243
c61.333 0 111.666 11.667 150.999 35l47 -104c-22 -18 -51 -32 -87 -42s-75 -15 -117 -15c-106 0 -188.333 31.333 -247 94s-88 151 -88 265c0 80 13.333 149.333 40 208s64.834 103.667 114.501 135s108.167 47 175.5 47c30 0 60.667 -3.66699 92 -11
c7.33301 44 26.5 77.833 57.5 101.5s71.833 35.5 122.5 35.5c17.333 0 33 -1.33301 47 -4z" />
    <glyph glyph-name="uni0188" unicode="&#x188;" horiz-adv-x="574" 
d="M575 685l-0.00292969 -108.998c-22 2 -38 3 -48 3c-23.333 0 -40.666 -5.83301 -51.999 -17.5s-17 -29.5 -17 -53.5v-103h-48c-47.333 20.667 -87 31 -119 31c-37.333 0 -66.166 -14.333 -86.499 -43s-30.5 -69 -30.5 -121c0 -106.667 43.333 -160 130 -160
c38 0 76 10 114 30l46 -104c-43.333 -33.333 -98.666 -50 -165.999 -50c-83.333 0 -148 24.167 -194 72.5s-69 116.5 -69 204.5c0 58.667 10.667 110.167 32 154.5s51.5 78.666 90.5 102.999s84.167 36.5 135.5 36.5c16.667 0 35 -1.66699 55 -5
c8 43.333 27.5 76.666 58.5 99.999s71.5 35 121.5 35c17.333 0 33 -1.33301 47 -4z" />
    <glyph glyph-name="uni0189" unicode="&#x189;" horiz-adv-x="694" 
d="M562.5 633c55.667 -60.667 83.5 -150.666 83.5 -269.999c0 -120.667 -27.833 -211.334 -83.5 -272.001s-136.834 -91 -243.501 -91h-240v314h-64v105h64v305h240c106.667 0 187.834 -30.333 243.501 -91zM504 363.001c0 158.667 -62.667 238 -188 238h-99v-182h153v-105
h-153v-191h98c126 0 189 80 189 240z" />
    <glyph glyph-name="uni018A" unicode="&#x18a;" horiz-adv-x="774" 
d="M642.5 633c55.667 -60.667 83.5 -150.666 83.5 -269.999c0 -120.667 -27.833 -211.334 -83.5 -272.001s-136.834 -91 -243.501 -91h-240v600c-19.333 0 -33.833 -4.66699 -43.5 -14s-14.5 -24.333 -14.5 -45c0 -10 1 -26 3 -48h-122c-2.66699 14 -4 29.667 -4 47
c0 58.667 15.833 104 47.5 136s76.167 48 133.5 48h240c106.667 0 187.834 -30.333 243.501 -91zM584 363.001c0 158.667 -62.667 238 -188 238h-99v-478h98c126 0 189 80 189 240z" />
    <glyph glyph-name="uni018B" unicode="&#x18b;" horiz-adv-x="627" 
d="M549 0h-262c-80 0 -141.5 20.167 -184.5 60.5s-64.5 99.833 -64.5 178.5c0 79.333 21.833 139 65.5 179s106.5 60 188.5 60h119v141h-316v105h454v-724zM411 359h-126c-70 0 -105 -39 -105 -117c0 -79.333 38 -119 114 -119h117v236z" />
    <glyph glyph-name="uni018C" unicode="&#x18c;" horiz-adv-x="581" 
d="M509 33l-0.000976562 -33.001h-123v78c-34 -60.667 -84 -91 -150 -91c-62.667 0 -111.167 24.833 -145.5 74.5s-51.5 119.834 -51.5 210.501c0 91.333 17.333 162 52 212s83.334 75 146.001 75c28 0 53.667 -5 77 -15s43 -24.333 59 -43v161h-264v108h400v-737z
M327.999 123.999c14.667 7.33301 29.6689 18.999 45.002 34.999v233c-12.667 14.667 -27.334 25.834 -44.001 33.501s-34.334 11.5 -53.001 11.5c-65.333 0 -98 -53.333 -98 -160c0 -109.333 34 -164 102 -164c17.333 0 33.333 3.66699 48 11z" />
    <glyph glyph-name="uni018D" unicode="&#x18d;" horiz-adv-x="563" 
d="M78 -173l45 103.001c45.333 -22 87.666 -33 126.999 -33c45.333 0 68 15.333 68 46c0 11.333 -4 20.833 -12 28.5s-24.333 19.5 -49 35.5l-36 24c-44 30 -77.833 55.5 -101.5 76.5s-43 48 -58 81s-22.5 74.833 -22.5 125.5c0 36.667 8 73.667 24 111
s42.333 68.833 79 94.5s84 38.5 142 38.5c53.333 0 98 -11.333 134 -34s62.667 -52.5 80 -89.5s26 -76.5 26 -118.5c0 -54 -11.167 -103.5 -33.5 -148.5s-62.166 -79.167 -119.499 -102.5c30 -20 51.167 -39.5 63.5 -58.5s18.5 -41.5 18.5 -67.5
c0 -50.667 -18 -89.834 -54 -117.501s-87 -41.5 -153 -41.5c-66.667 0 -122.667 15.667 -168 47zM353.5 191.501c20.333 29 30.499 66.4971 30.499 112.497c0 40 -8.16699 74 -24.5 102s-42.166 42 -77.499 42c-32.667 0 -58.167 -13.667 -76.5 -41
s-27.5 -61.666 -27.5 -102.999s8.33301 -75.166 25 -101.499s42.667 -49.166 78 -68.499c28 9.33301 52.167 28.5 72.5 57.5z" />
    <glyph glyph-name="uni018E" unicode="&#x18e;" horiz-adv-x="578" 
d="M500 724v-724h-470v123h332v185h-234v124h234v169h-318v123h456z" />
    <glyph glyph-name="uni018F" unicode="&#x18f;" horiz-adv-x="689" 
d="M556.5 642c56.333 -62.667 84.502 -156.333 84.502 -281c0 -123.333 -25.833 -216.333 -77.5 -279s-126.834 -94 -225.501 -94c-96.667 0 -171.667 30.667 -225 92s-80 147.666 -80 258.999c0 32.667 2.33301 58.334 7 77.001h460
c-7.33301 61.333 -27.5 108.333 -60.5 141s-76.5 49 -130.5 49c-58 0 -121 -14.333 -189 -43l-51 109c32 20.667 69 36.5 111 47.5s85.667 16.5 131 16.5c107.333 0 189.166 -31.333 245.499 -94zM500.002 296.001h-325.999c5.33301 -58.667 22.166 -103.667 50.499 -135
s66.833 -47 115.5 -47c94 0 147.333 60.667 160 182z" />
    <glyph glyph-name="uni0190" unicode="&#x190;" horiz-adv-x="576" 
d="M566 46c-32 -19.333 -70.501 -33.833 -115.501 -43.5s-90.167 -14.5 -135.5 -14.5c-86.667 0 -156.167 18.667 -208.5 56s-78.5 94 -78.5 170c0 86.667 45.333 143.667 136 171c-72 30.667 -108 83 -108 157c0 64.667 23.167 113.334 69.5 146.001s109.5 49 189.5 49
c80.667 0 155.334 -17.667 224.001 -53l-45 -108c-56 28 -111 42 -165 42c-41.333 0 -73.666 -7.83301 -96.999 -23.5s-35 -39.834 -35 -72.501c0 -27.333 10.167 -49.5 30.5 -66.5s49.833 -25.5 88.5 -25.5h121v-114h-129c-44 0 -78 -6.83301 -102 -20.5
s-36 -38.5 -36 -74.5c0 -37.333 13 -65 39 -83s65 -27 117 -27c30.667 0 63.167 3.83301 97.5 11.5s65.166 18.167 92.499 31.5z" />
    <glyph glyph-name="uni0191" unicode="&#x191;" horiz-adv-x="540" 
d="M216 601v-189h252v-124h-252v-288v-58c0 -106.667 -55.333 -160 -166 -160c-30 0 -57.333 5 -82 15l20 115c18 -4.66699 35.667 -7 53 -7c12.667 0 22 3.66699 28 11s9 19.333 9 36v214v558h448v-123h-310z" />
    <glyph glyph-name="florin" unicode="&#x192;" horiz-adv-x="579" 
d="M350 510l-10.001 -94.001h154v-117h-166l-33 -317c-6 -61.333 -27.667 -109 -65 -143s-87 -51 -149 -51c-25.333 0 -50.666 3.66699 -75.999 11l20 134c17.333 -4.66699 36.333 -7 57 -7c46 0 72 26.333 78 79l31 294h-102v117h114l12 117
c6.66699 64.667 29 114.834 67 150.501s88.667 53.5 152 53.5c28.667 0 55.667 -3.83301 81 -11.5s46.333 -18.167 63 -31.5l-69 -115c-23.333 13.333 -47 20 -71 20c-52.667 0 -82 -29.667 -88 -89z" />
    <glyph glyph-name="uni0193" unicode="&#x193;" horiz-adv-x="759" 
d="M719 859l0.000976562 -110.999c-22 2 -38 3 -48 3c-23.333 0 -40.5 -5.66699 -51.5 -17s-16.5 -28.666 -16.5 -51.999v-21v-91h-40c-62.667 29.333 -121.334 44 -176.001 44c-131.333 0 -197 -84 -197 -252s66.333 -252 199 -252c26.667 0 54.334 3.33301 83.001 10v173
h-119v122h257v-370c-27.333 -18.667 -60.5 -33 -99.5 -43s-79.5 -15 -121.5 -15c-108.667 0 -192.667 32.667 -252 98s-89 157.666 -89 276.999s29.667 211.666 89 276.999s143.333 98 252 98c35.333 0 69.666 -3.66699 102.999 -11c7.33301 44 26.5 77.833 57.5 101.5
s71.833 35.5 122.5 35.5c17.333 0 33 -1.33301 47 -4z" />
    <glyph glyph-name="uni0194" unicode="&#x194;" horiz-adv-x="634" 
d="M431 57c10 -25.333 17 -46.166 21 -62.499s6 -31.833 6 -46.5c0 -40.667 -12.167 -72.167 -36.5 -94.5s-58.833 -33.5 -103.5 -33.5c-44 0 -78.167 11.167 -102.5 33.5s-36.5 53.833 -36.5 94.5c0 15.333 2 31.166 6 47.499s11 36.833 21 61.5l52 132l-239 535h145
l154 -385l153 385h144l-238 -532zM345 -40c0 22.667 -6.33301 48.333 -19 77l-9 20l-9 -20c-12.667 -28 -19 -53.667 -19 -77c0 -28.667 9.66699 -43 29 -43c18 0 27 14.333 27 43z" />
    <glyph glyph-name="uni0195" unicode="&#x195;" horiz-adv-x="908" 
d="M836 272c0 -90.667 -20.002 -160.834 -60.002 -210.501s-96.667 -74.5 -170 -74.5c-69.333 0 -123.166 18.5 -161.499 55.5s-57.5 88.833 -57.5 155.5v162c0 48.667 -26.667 73 -80 73c-18.667 0 -35.667 -3 -51 -9s-31.333 -15.333 -48 -28v-396h-136v770h136v-278
c40.667 44.667 91.334 67 152.001 67c52 0 92.167 -15.5 120.5 -46.5s42.5 -75.167 42.5 -132.5v-169c0 -68.667 27.667 -103 83 -103c63.333 0 95 53.667 95 161c0 49.333 -2.83301 92.833 -8.5 130.5s-16.167 86.5 -31.5 146.5h137
c25.333 -95.333 38 -186.666 38 -273.999z" />
    <glyph glyph-name="uni0196" unicode="&#x196;" horiz-adv-x="316" 
d="M78 135l-0.000976562 589h138v-559c0 -17.333 3 -29.833 9 -37.5s15.667 -11.5 29 -11.5c10.667 0 22.334 1 35.001 3l9 -118c-26 -6 -53 -9 -81 -9c-92.667 0 -139 47.667 -139 143z" />
    <glyph glyph-name="uni0197" unicode="&#x197;" horiz-adv-x="330" 
d="M320 320h-86v-320h-138v320h-86v105h86v299h138v-299h86v-105z" />
    <glyph glyph-name="uni0198" unicode="&#x198;" horiz-adv-x="635" 
d="M378 412l271.999 -411.999h-163l-195 302l-76 -96v-206h-138v724h138v-340l178 248c28.667 40 55.834 68.167 81.501 84.5s55.834 24.5 90.501 24.5c27.333 0 50.666 -4.83301 69.999 -14.5s37 -24.834 53 -45.501l-73 -89c-16.667 16 -33.667 24 -51 24
c-10.667 0 -20.5 -3.33301 -29.5 -10s-20.5 -19 -34.5 -37z" />
    <glyph glyph-name="uni0199" unicode="&#x199;" horiz-adv-x="565" 
d="M265 215l-57 -68v-147h-136v546v97c0 96 51.667 144 155 144c30.667 0 58.334 -5 83.001 -15l-19 -107c-18 3.33301 -33.667 5 -47 5c-12.667 0 -21.834 -2.83301 -27.501 -8.5s-8.5 -15.167 -8.5 -28.5v-254v-59l181 226h155l-193 -229l208 -317h-155z" />
    <glyph glyph-name="uni019A" unicode="&#x19a;" horiz-adv-x="363" 
d="M236 356l-0.000976562 -187c0 -19.333 3.66699 -33.333 11 -42s19.666 -13 36.999 -13c10.667 0 22.334 1 35.001 3l9 -115c-26 -6 -53 -9 -81 -9c-49.333 0 -86.166 12 -110.499 36s-36.5 60.667 -36.5 110v217h-82v95h82v319h136v-319h92v-95h-92z" />
    <glyph glyph-name="uni019B" unicode="&#x19b;" horiz-adv-x="523" 
d="M373 0l-110 402l-112 -402h-137l177 545c-0.666992 0.666992 -4.33398 5.33398 -11.001 14.001l-128 -60h-10v75l75 35c-27.333 15.333 -60.666 29.666 -99.999 42.999l46 114c78 -24.667 139.667 -56.667 185 -96l119 55h10v-75l-80 -37c19.333 -28 35 -60.667 47 -98
l165 -515h-136z" />
    <glyph glyph-name="uni019C" unicode="&#x19c;" horiz-adv-x="896" 
d="M818 724v-724h-124v69c-42.667 -54.667 -95.667 -82 -159 -82c-34 0 -63 7.33301 -87 22s-42 36 -54 64c-45.333 -57.333 -98.666 -86 -159.999 -86c-48.667 0 -86.834 15.667 -114.501 47s-41.5 75.333 -41.5 132v558h138v-538c0 -48.667 23.667 -73 71 -73
c15.333 0 30.166 3 44.499 9s29.5 15.333 45.5 28v16v558h138v-538c0 -48.667 24.333 -73 73 -73c30.667 0 61.334 12 92.001 36v575h138z" />
    <glyph glyph-name="uni019D" unicode="&#x19d;" horiz-adv-x="726" 
d="M648 724l0.000976562 -724h-133l-301 491v-491v-58c0 -106.667 -55 -160 -165 -160c-30.667 0 -58.334 5 -83.001 15l20 115c18 -4.66699 36 -7 54 -7c13.333 0 23 3.66699 29 11s9 19.333 9 36v214v558h133l301 -489v489h136z" />
    <glyph glyph-name="uni019E" unicode="&#x19e;" horiz-adv-x="588" 
d="M478.5 512c28.333 -31.333 42.5 -75.333 42.5 -132v-380v-207h-136v272v295c0 48.667 -26.333 73 -79 73c-18 0 -34.667 -3 -50 -9s-31.333 -15.333 -48 -28v-396h-136v546h123v-69c42.667 54.667 97.334 82 164.001 82c51.333 0 91.166 -15.667 119.499 -47z" />
    <glyph glyph-name="uni019F" unicode="&#x19f;" horiz-adv-x="716" 
d="M588.5 642.5c53 -63 79.5 -156.5 79.5 -280.5s-26.5 -217.5 -79.5 -280.5s-129.833 -94.5 -230.5 -94.5s-177.5 31.5 -230.5 94.5s-79.5 156.5 -79.5 280.5s26.5 217.5 79.5 280.5s129.833 94.5 230.5 94.5s177.5 -31.5 230.5 -94.5zM191 425h334.001
c-12.667 126 -68.334 189 -167.001 189c-98 0 -153.667 -63 -167 -189zM526.001 305h-336c12 -130 68 -195 168 -195s156 65 168 195z" />
    <glyph glyph-name="Ohorn" unicode="&#x1a0;" horiz-adv-x="716" 
d="M685 691.5c-19.333 -25 -51.667 -40.833 -97 -47.5c53.333 -64.667 80 -158.667 80 -282c0 -124 -26.5 -217.5 -79.5 -280.5s-129.833 -94.5 -230.5 -94.5s-177.5 31.5 -230.5 94.5s-79.5 156.5 -79.5 280.5s26.5 217.5 79.5 280.5s129.833 94.5 230.5 94.5
c36.667 0 71.667 -4.66699 105 -14c22.667 -6 41.667 -9 57 -9c29.333 0 49.5 6.16699 60.5 18.5s16.5 35.5 16.5 69.5c0 16.667 -1.66699 37 -5 61h117c3.33301 -20 5 -39.667 5 -59c0 -50 -9.66699 -87.5 -29 -112.5zM525.999 362c0 168 -56 252 -168 252
s-168 -84 -168 -252s56 -252 168 -252s168 84 168 252z" />
    <glyph glyph-name="ohorn" unicode="&#x1a1;" horiz-adv-x="573" 
d="M567 522.5c-20 -23 -53.333 -37.5 -100 -43.5c38 -48 57 -116.667 57 -206c0 -94 -21 -165.167 -63 -213.5s-102 -72.5 -180 -72.5s-137.833 24 -179.5 72s-62.5 119.333 -62.5 214c0 94 21 165.167 63 213.5s102 72.5 180 72.5c24.667 0 47 -2.33301 67 -7
c22.667 -4 42 -6 58 -6c29.333 0 49.5 5.5 60.5 16.5s16.5 31.5 16.5 61.5c0 16.667 -1.66699 37 -5 61h113c3.33301 -20 5 -39.667 5 -59c0 -46 -10 -80.5 -30 -103.5zM385 273c0 110 -34.333 165 -103 165c-69.333 0 -104 -55 -104 -165s34.333 -165 103 -165
c69.333 0 104 55 104 165z" />
    <glyph glyph-name="uni01A2" unicode="&#x1a2;" horiz-adv-x="913" 
d="M835 724v-932h-138v809h-81v-557c-36 -17.333 -76.5 -30.833 -121.5 -40.5s-90.5 -14.5 -136.5 -14.5c-100.667 0 -177.5 31.333 -230.5 94s-79.5 155.667 -79.5 279s26.5 216.333 79.5 279s129.833 94 230.5 94c14 0 33 -1 57 -3c76.667 -5.33301 143.667 -8 201 -8h219
zM478 124v482c-49.333 4 -89.333 6 -120 6c-112 0 -168 -83.333 -168 -250s56 -250 168 -250c44 0 84 4 120 12z" />
    <glyph glyph-name="uni01A3" unicode="&#x1a3;" horiz-adv-x="764" 
d="M692 546l-0.000976562 -752h-136v631h-67v-404c-31.333 -10 -65.166 -17.833 -101.499 -23.5s-71.833 -8.5 -106.5 -8.5c-78 0 -137.833 23.833 -179.5 71.5s-62.5 118.5 -62.5 212.5s21 164.833 63 212.5s102 71.5 180 71.5c9.33301 0 29.333 -1.33301 60 -4
c54.667 -4.66699 103.667 -7 147 -7h203zM352.999 116v316l-40 3l-31 1c-69.333 2 -104 -52.333 -104 -163c0 -108.667 34.333 -163 103 -163c26 0 50 2 72 6z" />
    <glyph glyph-name="uni01A4" unicode="&#x1a4;" horiz-adv-x="680" 
d="M607 659c42 -43.333 62.999 -104.333 62.999 -183c0 -79.333 -21.667 -140.833 -65 -184.5s-104.666 -65.5 -183.999 -65.5h-124v-226h-138v600c-19.333 0 -33.833 -4.66699 -43.5 -14s-14.5 -24.333 -14.5 -45c0 -10 1 -26 3 -48h-122c-2.66699 14 -4 29.667 -4 47
c0 58.667 15.833 104 47.5 136s76.167 48 133.5 48h138h131c77.333 0 137 -21.667 179 -65zM527.999 473c0 85.333 -35.667 128 -107 128h-124v-252h131c66.667 0 100 41.333 100 124z" />
    <glyph glyph-name="uni01A5" unicode="&#x1a5;" horiz-adv-x="581" 
d="M490.5 484.5c34.333 -49.667 51.5 -119.833 51.5 -210.5c0 -91.333 -17.333 -162 -52 -212s-83.334 -75 -146.001 -75c-28 0 -53.667 5 -77 15s-43 24.333 -59 43v-252h-136v610v143v97c0 96 51.667 144 155 144c30.667 0 58.334 -5 83.001 -15l-19 -108
c-21.333 4 -37 6 -47 6c-12.667 0 -21.834 -2.83301 -27.501 -8.5s-8.5 -15.167 -8.5 -28.5v-144c32.667 46.667 78.334 70 137.001 70c62.667 0 111.167 -24.833 145.5 -74.5zM403 269.001c0 109.333 -34.002 164.001 -102.002 164.001c-17.333 0 -33.333 -3.66699 -48 -11
s-29.667 -19 -45 -35v-233c12.667 -14.667 27.334 -25.834 44.001 -33.501s34.334 -11.5 53.001 -11.5c65.333 0 98 53.333 98 160z" />
    <glyph glyph-name="uni01A6" unicode="&#x1a6;" horiz-adv-x="600" 
d="M324 207l-107.999 0.000976562v-207h-138v724h138v-81h121c75.333 0 133.666 -18.833 174.999 -56.5s62 -91.167 62 -160.5c0 -46.667 -9.66699 -86.334 -29 -119.001s-47.333 -57.667 -84 -75l229 -342h-170zM216.001 325.001h121c63.333 0 95 32.333 95 97
c0 66.667 -33 100 -99 100h-117v-197z" />
    <glyph glyph-name="uni01A7" unicode="&#x1a7;" horiz-adv-x="564" 
d="M106.5 47.5c-45 39.667 -67.5 95.833 -67.5 168.5c0 54.667 13.667 98 41 130s72.333 56.667 135 74l82 23c34 9.33301 58.667 21.5 74 36.5s23 34.5 23 58.5c0 52.667 -36.333 79 -109 79c-52 0 -113 -13 -183 -39l-45 108c35.333 16 72.666 28.333 111.999 37
s77.333 13 114 13c76.667 0 136.334 -19.333 179.001 -58s64 -93 64 -163c0 -54 -13.833 -97 -41.5 -129s-72.5 -56.667 -134.5 -74l-82 -23c-34 -9.33301 -58.667 -21.666 -74 -36.999s-23 -35 -23 -59c0 -57.333 41.667 -86 125 -86c66.667 0 131.667 18.333 195 55
l44 -108c-32 -20.667 -68.833 -36.834 -110.5 -48.501s-84.5 -17.5 -128.5 -17.5c-81.333 0 -144.5 19.833 -189.5 59.5z" />
    <glyph glyph-name="uni01A8" unicode="&#x1a8;" horiz-adv-x="471" 
d="M87 35.5c-38 31.667 -56.999 76.1689 -56.999 133.502c0 43.333 11.5 77.5 34.5 102.5s59.833 43.5 110.5 55.5l71 17c22.667 5.33301 39.334 12.166 50.001 20.499s16 18.833 16 31.5c0 28.667 -25.333 43 -76 43c-46 0 -93.333 -12 -142 -36l-50 108
c26.667 14.667 56.667 26.167 90 34.5s66.666 12.5 99.999 12.5c66 0 117.167 -15.333 153.5 -46s54.5 -73.667 54.5 -129c0 -42.667 -11.333 -76.334 -34 -101.001s-59.667 -43 -111 -55l-71 -17c-23.333 -5.33301 -40.166 -12.333 -50.499 -21s-15.5 -19.667 -15.5 -33
c0 -32.667 29 -49 87 -49c55.333 0 107.666 15.333 156.999 46l47 -110c-26.667 -17.333 -57.834 -30.833 -93.501 -40.5s-72.5 -14.5 -110.5 -14.5c-68.667 0 -122 15.833 -160 47.5z" />
    <glyph glyph-name="uni01A9" unicode="&#x1a9;" horiz-adv-x="593" 
d="M42 121l209 246l-209 236v121h519v-121h-349l212 -236l-212 -246h349v-121h-519v121z" />
    <glyph glyph-name="uni01AA" unicode="&#x1aa;" horiz-adv-x="355" 
d="M420 -106l0.00292969 -118.001c-18 -3.33301 -38.333 -5 -61 -5c-66.667 0 -118.5 17.5 -155.5 52.5s-55.5 84.167 -55.5 147.5v41v505c-14.667 -13.333 -38.334 -20 -71.001 -20c-42 0 -74.5 11.833 -97.5 35.5s-34.5 57.167 -34.5 100.5
c0 48.667 14.833 86.5 44.5 113.5s71.5 40.5 125.5 40.5c53.333 0 94.666 -13.167 123.999 -39.5s44 -63.166 44 -110.499v-637v-29c0 -54 25.333 -81 76 -81c21.333 0 41.666 1.33301 60.999 4zM145.003 605.999c9.33301 9.33301 14.001 21.667 14.001 37
c0 14.667 -4 25.667 -12 33s-19.667 11 -35 11c-32 0 -48 -16 -48 -48c0 -31.333 14.667 -47 44 -47c15.333 0 27.666 4.66699 36.999 14z" />
    <glyph glyph-name="uni01AB" unicode="&#x1ab;" horiz-adv-x="404" 
d="M386 -72c0 -96.667 -50.333 -145 -151 -145c-30.667 0 -59.667 5 -87 15l19 108c18.667 -3.33301 35.667 -5 51 -5c14.667 0 25.167 2.83301 31.5 8.5s9.5 15.167 9.5 28.5v55c-110 8 -165 66.333 -165 175v261h-83v117h84v148h135v-148h149v-117h-149v-236
c0 -28 6.16699 -48.333 18.5 -61s31.833 -19 58.5 -19c18.667 0 38 2.66699 58 8l21 -114v-79z" />
    <glyph glyph-name="uni01AC" unicode="&#x1ac;" horiz-adv-x="530" 
d="M514 600l-180 0.000976562v-600h-138v600h-35c-19.333 0 -33.833 -4.66699 -43.5 -14s-14.5 -24.333 -14.5 -45c0 -10 1 -26 3 -48h-122c-2.66699 14 -4 29.667 -4 47c0 57.333 15.333 102.166 46 134.499s74 48.833 130 49.5h178h180v-124z" />
    <glyph glyph-name="uni01AD" unicode="&#x1ad;" horiz-adv-x="404" 
d="M386 6c-33.333 -9.33301 -67.001 -14 -101.001 -14c-127.333 0 -191 58.667 -191 176v261h-83v117h84v41c0 63.333 19.167 112.5 57.5 147.5s92.833 52.5 163.5 52.5c22.667 0 43 -1.66699 61 -5v-118c-19.333 2.66699 -39.666 4 -60.999 4c-57.333 0 -86 -27 -86 -81
v-41h149v-117h-149v-236c0 -28 6.16699 -48.333 18.5 -61s31.833 -19 58.5 -19c18.667 0 38 2.66699 58 8z" />
    <glyph glyph-name="uni01AE" unicode="&#x1ae;" horiz-adv-x="530" 
d="M343 -84c6 -7.33301 15.333 -11 28 -11c17.333 0 35 2.33301 53 7l20 -115c-24.667 -10 -52 -15 -82 -15c-110.667 0 -166 53.333 -166 160v224v434h-180v124h318h180v-124h-180v-648c0 -16.667 3 -28.667 9 -36z" />
    <glyph glyph-name="Uhorn" unicode="&#x1af;" horiz-adv-x="688" 
d="M708 698c-18.667 -24 -49.667 -39.333 -93 -46v-403c0 -83.333 -23.667 -147.833 -71 -193.5s-114.333 -68.5 -201 -68.5c-86 0 -152.5 22.833 -199.5 68.5s-70.5 110.167 -70.5 193.5v475h138v-465c0 -99.333 44 -149 132 -149c89.333 0 134 49.667 134 149v465h65
c29.333 0 49.5 5.5 60.5 16.5s16.5 31.5 16.5 61.5c0 16.667 -1.66699 37 -5 61h117c3.33301 -20 5 -39.667 5 -59c0 -46.667 -9.33301 -82 -28 -106z" />
    <glyph glyph-name="uhorn" unicode="&#x1b0;" horiz-adv-x="580" 
d="M599.5 520.5c-18.333 -23.667 -48.833 -38.832 -91.5 -45.499v-475h-123v77c-40 -60 -93.667 -90 -161 -90c-50.667 0 -89.834 15.667 -117.501 47s-41.5 75.333 -41.5 132v380h136v-360c0 -48.667 25.333 -73 76 -73c18.667 0 35.334 3.5 50.001 10.5
s29.667 18.167 45 33.5v389h65c29.333 0 49.5 5.5 60.5 16.5s16.5 31.5 16.5 61.5c0 16.667 -1.66699 37 -5 61h113c3.33301 -20 5 -39.667 5 -59c0 -46.667 -9.16699 -81.834 -27.5 -105.501z" />
    <glyph glyph-name="uni01B1" unicode="&#x1b1;" horiz-adv-x="736" 
d="M201.5 29c-46.333 27.333 -81.5 66.5 -105.5 117.5s-36 111.5 -36 181.5c0 117.333 39.333 213 118 287h-130v109h262v-123c-38 -34.667 -65.5 -73 -82.5 -115s-25.5 -92 -25.5 -150c0 -151.333 55.333 -227 166 -227s166 75.667 166 227c0 58 -8.5 108 -25.5 150
s-44.5 80.333 -82.5 115v123h262v-109h-130c78.667 -74 118 -169.667 118 -287c0 -70 -12 -130.5 -36 -181.5s-59.167 -90.167 -105.5 -117.5s-101.833 -41 -166.5 -41s-120.167 13.667 -166.5 41z" />
    <glyph glyph-name="uni01B2" unicode="&#x1b2;" horiz-adv-x="688" 
d="M615 577v-224v-104c0 -83.333 -23.667 -147.833 -71 -193.5s-114.333 -68.5 -201 -68.5c-86 0 -152.5 22.833 -199.5 68.5s-70.5 110.167 -70.5 193.5v475h138v-465c0 -99.333 44 -149 132 -149c89.333 0 134 49.667 134 149v265v43c0 16.667 -3 28.667 -9 36
s-15.333 11 -28 11c-17.333 0 -35 -2.33301 -53 -7l-20 115c24.667 10 52 15 82 15c110.667 0 166 -53.333 166 -160z" />
    <glyph glyph-name="uni01B3" unicode="&#x1b3;" horiz-adv-x="655" 
d="M694 581l-110.999 -20c-2.66699 19.333 -6.5 33.333 -11.5 42s-11.833 13 -20.5 13c-7.33301 0 -13.833 -3 -19.5 -9s-11.834 -16.333 -18.501 -31l-150 -337v-239h-138v239l-214 485h147l138 -335l89 217c20 48 43 82.833 69 104.5s58.333 32.5 97 32.5
c87.333 0 135 -54 143 -162z" />
    <glyph glyph-name="uni01B4" unicode="&#x1b4;" horiz-adv-x="632" 
d="M668 508l-108.999 -19.999c-2.66699 18.667 -6.33398 32.167 -11.001 40.5s-11.334 12.5 -20.001 12.5c-7.33301 0 -13.833 -4.33301 -19.5 -13s-12.167 -23.667 -19.5 -45l-145 -452c-20.667 -63.333 -53.167 -114.833 -97.5 -154.5s-105.5 -71.834 -183.5 -96.501
l-46 114c46 16 82.333 32.333 109 49s48.334 36 65.001 58l-177 545h137l112 -402l102 373c26.667 98.667 81 148 163 148c85.333 0 132 -52.333 140 -157z" />
    <glyph glyph-name="uni01B5" unicode="&#x1b5;" horiz-adv-x="555" 
d="M520 121v-121h-487v122l138 205h-96v103h166l117 173h-311v121h467v-121l-117 -173h81v-103h-150l-139 -206h331z" />
    <glyph glyph-name="uni01B6" unicode="&#x1b6;" horiz-adv-x="472" 
d="M442 115v-115h-414v115l94 116h-71v93h146l87 107h-246v115h398v-115l-87 -107h74v-93h-149l-94 -116h262z" />
    <glyph glyph-name="uni01B7" unicode="&#x1b7;" horiz-adv-x="597" 
d="M561 228c0 -53.333 -13.832 -98.001 -41.499 -134.001s-64.667 -62.833 -111 -80.5s-97.5 -26.5 -153.5 -26.5c-94.667 0 -176.334 18.667 -245.001 56l49 110c66 -28 130.333 -42 193 -42c52.667 0 93.667 10.5 123 31.5s44 50.167 44 87.5
c0 42.667 -17.667 71.667 -53 87s-88.333 23 -159 23h-43v101l182 162h-301v121h470v-124l-182 -161c152 -17.333 228 -87.666 228 -210.999z" />
    <glyph glyph-name="uni01B8" unicode="&#x1b8;" horiz-adv-x="597" 
d="M587 43c-68.667 -37.333 -150.333 -55.999 -245 -55.999c-56 0 -107.167 8.83301 -153.5 26.5s-83.333 44.5 -111 80.5s-41.5 80.667 -41.5 134c0 123.333 76 193.666 228 210.999l-182 161v124h470v-121h-301l182 -162v-101h-43c-70.667 0 -123.667 -7.66699 -159 -23
s-53 -44.333 -53 -87c0 -37.333 14.667 -66.5 44 -87.5s70.333 -31.5 123 -31.5c62.667 0 127 14 193 42z" />
    <glyph glyph-name="uni01B9" unicode="&#x1b9;" horiz-adv-x="503" 
d="M499 -178c-30 -15.333 -61.332 -26.1689 -93.999 -32.502s-68 -9.5 -106 -9.5c-50 0 -95.833 8.83301 -137.5 26.5s-75 44.334 -100 80.001s-37.5 78.834 -37.5 129.501c0 68 18.833 118.5 56.5 151.5s89.5 53.5 155.5 61.5l-172 202v115h409v-115h-255l167 -197v-96h-50
c-114.667 0 -172 -39.667 -172 -119c0 -41.333 13 -72.5 39 -93.5s62 -31.5 108 -31.5c49.333 0 96.666 11 141.999 33z" />
    <glyph glyph-name="uni01BA" unicode="&#x1ba;" horiz-adv-x="467" 
d="M360 -59l45 -109.004c-35.333 -16 -72.333 -28.333 -111 -37s-75.667 -13 -111 -13c-64 0 -113.167 14.667 -147.5 44s-51.5 70.666 -51.5 123.999c0 56.667 17 95.5 51 116.5s80.667 32.5 140 34.5c34 0.666992 64 5.33398 90 14.001s39 27 39 55
c0 22.667 -12.167 38.834 -36.5 48.501s-64.833 14.5 -121.5 14.5h-37v95l133 103h-238v115h398v-116l-144 -102c123.333 -12 185 -65.333 185 -160c0 -52 -15 -91.167 -45 -117.5s-63.333 -43.166 -100 -50.499s-76.667 -11.666 -120 -12.999
c-21.333 -0.666992 -37.5 -3.66699 -48.5 -9s-16.5 -16.666 -16.5 -33.999c0 -33.333 24.333 -50 73 -50c47.333 0 105.333 15.667 174 47z" />
    <glyph glyph-name="uni01BB" unicode="&#x1bb;" horiz-adv-x="537" 
d="M357 299l-165.001 -180.001h298v-119h-462v120l159 179h-139v103h230c26 30 44.167 54.167 54.5 72.5s15.5 35.833 15.5 52.5c0 26.667 -9 47.5 -27 62.5s-43.333 22.5 -76 22.5c-26.667 0 -54.167 -4.66699 -82.5 -14s-55.5 -22.333 -81.5 -39l-61 103
c30 22.667 66.667 40.834 110 54.501s86 20.5 128 20.5c45.333 0 85.333 -8.33301 120 -25s61.334 -40.167 80.001 -70.5s28 -65.5 28 -105.5c0 -22.667 -3.5 -44.667 -10.5 -66s-18.5 -44 -34.5 -68h49v-103h-133z" />
    <glyph glyph-name="uni01BC" unicode="&#x1bc;" horiz-adv-x="554" 
d="M448 397.5c44.667 -40.333 67 -93.833 67 -160.5c0 -50 -11 -93.833 -33 -131.5s-53 -66.834 -93 -87.501s-86.333 -31 -139 -31c-40.667 0 -80.5 5.83301 -119.5 17.5s-70.833 27.167 -95.5 46.5l50 109c28 -15.333 56.5 -27.166 85.5 -35.499s55.5 -12.5 79.5 -12.5
c39.333 0 70 10.833 92 32.5s33 51.5 33 89.5c0 71.333 -47 110.333 -141 117l-147 10v244h-78v119h156h316v-119h-258v-134l36 -3c81.333 -6.66699 144.333 -30.167 189 -70.5z" />
    <glyph glyph-name="uni01BD" unicode="&#x1bd;" horiz-adv-x="477" 
d="M447 168c0 -57.333 -20.332 -101.832 -60.999 -133.499s-97.667 -47.5 -171 -47.5c-38 0 -74.167 4.16699 -108.5 12.5s-63.5 20.166 -87.5 35.499l47 106c24 -10.667 48.833 -19 74.5 -25s50.5 -9 74.5 -9c62 0 93 20.667 93 62c0 20.667 -8.33301 36.167 -25 46.5
s-43.334 16.833 -80.001 19.5l-136 9v185h-67v117h136h285v-117h-222v-85l21 -1c151.333 -10 227 -68.333 227 -175z" />
    <glyph glyph-name="uni01BE" unicode="&#x1be;" horiz-adv-x="503" 
d="M134.5 3.5c-37 10.333 -68.833 24.166 -95.5 41.499l47 110c51.333 -32 105 -48 161 -48c58 0 87 16.333 87 49c0 14.667 -5.66699 26.334 -17 35.001s-29 18.334 -53 29.001c-24.667 11.333 -45.167 22.166 -61.5 32.499s-30.333 25.333 -42 45s-17.5 44.5 -17.5 74.5
v57h-83v117h84v148h135v-148h149v-117h-149v-53c0 -14.667 5.66699 -26.5 17 -35.5s29 -19.167 53 -30.5c23.333 -10.667 42.833 -21.167 58.5 -31.5s29 -24.5 40 -42.5s16.5 -40.333 16.5 -67c0 -57.333 -19 -101.833 -57 -133.5s-91.333 -47.5 -160 -47.5
c-38 0 -75.5 5.16699 -112.5 15.5z" />
    <glyph glyph-name="uni01BF" unicode="&#x1bf;" horiz-adv-x="569" 
d="M485 502c30 -38 45 -91.333 45 -160c0 -43.333 -7.16699 -81.833 -21.5 -115.5s-38.5 -67 -72.5 -100s-82 -70.5 -144 -112.5l-84 -56v-165h-136v753h123v-86c37.333 66 91.333 99 162 99c55.333 0 98 -19 128 -57zM365.5 233.5c17 25.667 25.5 56.833 25.5 93.5
c0 70.667 -26 106 -78 106c-18 0 -35.5 -4.5 -52.5 -13.5s-34.5 -23.5 -52.5 -43.5v-272l64 44c45.333 31.333 76.5 59.833 93.5 85.5z" />
    <glyph glyph-name="uni01C0" unicode="&#x1c0;" horiz-adv-x="278" 
d="M80 770h118v-770h-118v770z" />
    <glyph glyph-name="uni01C1" unicode="&#x1c1;" horiz-adv-x="447" 
d="M80 770h118v-770h-118v770zM249 770h118v-770h-118v770z" />
    <glyph glyph-name="uni01C2" unicode="&#x1c2;" horiz-adv-x="354" 
d="M233 444v-117h111v-115h-111v-212h-118v212h-105v115h105v117h-105v115h105v211h118v-211h111v-115h-111z" />
    <glyph glyph-name="uni01C3" unicode="&#x1c3;" horiz-adv-x="364" 
d="M106 770h150l-20 -561h-108zM120.5 8.5c-15 14.333 -22.5 33.832 -22.5 58.499c0 25.333 7.33301 45 22 59s35.334 21 62.001 21c26 0 46.5 -7.16699 61.5 -21.5s22.5 -33.5 22.5 -57.5c0 -25.333 -7.33301 -45.166 -22 -59.499s-35.334 -21.5 -62.001 -21.5
c-26 0 -46.5 7.16699 -61.5 21.5z" />
    <glyph glyph-name="uni01C4" unicode="&#x1c4;" horiz-adv-x="1228" 
d="M884 781l-117 133v12h101l83 -76l82 76h98v-12l-117 -133h-130zM561.5 633c55.667 -60.667 83.5 -150.666 83.5 -269.999c0 -120.667 -27.833 -211.334 -83.5 -272.001s-136.834 -91 -243.501 -91h-240v724h240c106.667 0 187.834 -30.333 243.501 -91zM1193 121.001
v-121h-487v122l325 481h-311v121h467v-121l-325 -482h331zM503 363.001c0 158.667 -62.667 238 -188 238h-99v-478h98c126 0 189 80 189 240z" />
    <glyph glyph-name="uni01C5" unicode="&#x1c5;" horiz-adv-x="1155" 
d="M851 611l-117 133v12h101l83 -76l82 76h98v-12l-117 -133h-130zM561.5 633c55.667 -60.667 83.5 -150.666 83.5 -269.999c0 -120.667 -27.833 -211.334 -83.5 -272.001s-136.834 -91 -243.501 -91h-240v724h240c106.667 0 187.834 -30.333 243.501 -91zM503 363.001
c0 158.667 -62.667 238 -188 238h-99v-478h98c126 0 189 80 189 240zM1125 115.001v-115h-414v115l256 316h-246v115h398v-115l-256 -316h262z" />
    <glyph glyph-name="uni01C6" unicode="&#x1c6;" horiz-adv-x="1053" 
d="M509 770l-0.000976562 -737.001v-33h-123v78c-34 -60.667 -84 -91 -150 -91c-62.667 0 -111.167 24.833 -145.5 74.5s-51.5 119.834 -51.5 210.501c0 91.333 17.333 162 52 212s83.334 75 146.001 75c28 0 53.667 -5 77 -15s43 -24.333 59 -43v269h136zM327.999 123.999
c14.667 7.33301 29.6689 18.999 45.002 34.999v233c-12.667 14.667 -27.334 25.834 -44.001 33.501s-34.334 11.5 -53.001 11.5c-65.333 0 -98 -53.333 -98 -160c0 -109.333 34 -164 102 -164c17.333 0 33.333 3.66699 48 11zM1023 114.998v-115h-414v115l256 316h-246v115
h398v-115l-256 -316h262zM978.001 783.998v-10l-102 -159h-124l-102 159v10h95l70 -88l71 88h92z" />
    <glyph glyph-name="uni01C7" unicode="&#x1c7;" horiz-adv-x="987" 
d="M216 124h291v-124h-429v724h138v-600zM914 724v-537c0 -63.333 -17.667 -112.5 -53 -147.5s-85.333 -52.5 -150 -52.5c-30.667 0 -59.667 3.5 -87 10.5s-51.333 17.167 -72 30.5l49 110c38 -18 72.333 -27 103 -27c48 0 72 28.667 72 86v527h138z" />
    <glyph glyph-name="uni01C8" unicode="&#x1c8;" horiz-adv-x="815" 
d="M507 124v-124h-429v724h138v-600h291zM462 -112c39.333 13.333 69.166 26.832 89.499 40.499s34.333 29.834 42 48.501s11.5 44 11.5 76v493h136v-497c0 -51.333 -7 -93.333 -21 -126s-37.667 -60.167 -71 -82.5s-80.666 -43.5 -141.999 -63.5zM613.5 637.499
c-14.333 13.667 -21.5 32.5 -21.5 56.5c0 24.667 7.16699 43.834 21.5 57.501s34.166 20.5 59.499 20.5s45.166 -6.83301 59.499 -20.5s21.5 -32.5 21.5 -56.5c0 -24.667 -7.16699 -43.834 -21.5 -57.501s-34.166 -20.5 -59.499 -20.5s-45.166 6.83301 -59.499 20.5z" />
    <glyph glyph-name="uni01C9" unicode="&#x1c9;" horiz-adv-x="605" 
d="M106.5 29c-24.333 24 -36.501 60.667 -36.501 110v631h136v-601c0 -19.333 3.66699 -33.333 11 -42s19.666 -13 36.999 -13c10.667 0 22.334 1 35.001 3l9 -115c-26 -6 -53 -9 -81 -9c-49.333 0 -86.166 12 -110.499 36zM251.999 -112
c39.333 13.333 69.166 26.832 89.499 40.499s34.333 29.834 42 48.501s11.5 44 11.5 76v493h136v-497c0 -51.333 -7 -93.333 -21 -126s-37.667 -60.167 -71 -82.5s-80.666 -43.5 -141.999 -63.5zM403.499 637.499c-14.333 13.667 -21.5 32.5 -21.5 56.5
c0 24.667 7.16699 43.834 21.5 57.501s34.166 20.5 59.499 20.5s45.166 -6.83301 59.499 -20.5s21.5 -32.5 21.5 -56.5c0 -24.667 -7.16699 -43.834 -21.5 -57.501s-34.166 -20.5 -59.499 -20.5s-45.166 6.83301 -59.499 20.5z" />
    <glyph glyph-name="uni01CA" unicode="&#x1ca;" horiz-adv-x="1132" 
d="M512 724h136v-724h-133l-301 491v-491h-136v724h133l301 -489v489zM1059 724v-537c0 -63.333 -17.667 -112.5 -53 -147.5s-85.333 -52.5 -150 -52.5c-30.667 0 -59.667 3.5 -87 10.5s-51.333 17.167 -72 30.5l49 110c38 -18 72.333 -27 103 -27c48 0 72 28.667 72 86v527
h138z" />
    <glyph glyph-name="uni01CB" unicode="&#x1cb;" horiz-adv-x="1010" 
d="M648 724v-724h-133l-301 491v-491h-136v724h133l301 -489v489h136zM657 -112c39.333 13.333 69.166 26.832 89.499 40.499s34.333 29.834 42 48.501s11.5 44 11.5 76v493h136v-497c0 -51.333 -7 -93.333 -21 -126s-37.667 -60.167 -71 -82.5
s-80.666 -43.5 -141.999 -63.5zM808.5 637.499c-14.333 13.667 -21.5 32.5 -21.5 56.5c0 24.667 7.16699 43.834 21.5 57.501s34.166 20.5 59.499 20.5s45.166 -6.83301 59.499 -20.5s21.5 -32.5 21.5 -56.5c0 -24.667 -7.16699 -43.834 -21.5 -57.501
s-34.166 -20.5 -59.499 -20.5s-45.166 6.83301 -59.499 20.5z" />
    <glyph glyph-name="uni01CC" unicode="&#x1cc;" horiz-adv-x="872" 
d="M478.5 512c28.333 -31.333 42.5 -75.333 42.5 -132v-380h-136v360c0 48.667 -26.333 73 -79 73c-18 0 -34.667 -3 -50 -9s-31.333 -15.333 -48 -28v-396h-136v546h123v-69c42.667 54.667 97.334 82 164.001 82c51.333 0 91.166 -15.667 119.499 -47zM519 -112
c39.333 13.333 69.166 26.832 89.499 40.499s34.333 29.834 42 48.501s11.5 44 11.5 76v493h136v-497c0 -51.333 -7 -93.333 -21 -126s-37.667 -60.167 -71 -82.5s-80.666 -43.5 -141.999 -63.5zM670.5 637.499c-14.333 13.667 -21.5 32.5 -21.5 56.5
c0 24.667 7.16699 43.834 21.5 57.501s34.166 20.5 59.499 20.5s45.166 -6.83301 59.499 -20.5s21.5 -32.5 21.5 -56.5c0 -24.667 -7.16699 -43.834 -21.5 -57.501s-34.166 -20.5 -59.499 -20.5s-45.166 6.83301 -59.499 20.5z" />
    <glyph glyph-name="uni01CD" unicode="&#x1cd;" horiz-adv-x="670" 
d="M270 781l-117 133v12h101l83 -76l82 76h98v-12l-117 -133h-130zM463 156h-258l-46 -156h-144l245 724h150l245 -724h-145zM428 276l-94 315l-93 -315h187z" />
    <glyph glyph-name="uni01CE" unicode="&#x1ce;" horiz-adv-x="536" 
d="M416 512c36.667 -31.333 55 -75.3311 55 -131.998v-380h-121v80c-32.667 -60.667 -86.334 -91 -161.001 -91c-52 0 -92.167 14.333 -120.5 43s-42.5 69 -42.5 121c0 65.333 24.5 113.166 73.5 143.499s128.167 46.166 237.5 47.499v20c0 50 -34 75 -102 75
c-41.333 0 -83.666 -9.33301 -126.999 -28l-34 104c62 29.333 124 44 186 44c67.333 0 119.333 -15.667 156 -47zM337 156.002v98c-64 -0.666992 -110.333 -8.16699 -139 -22.5s-43 -36.833 -43 -67.5c0 -40.667 23 -61 69 -61c43.333 0 81 17.667 113 53zM421 784.002v-10
l-102 -159h-124l-102 159v10h95l70 -88l71 88h92z" />
    <glyph glyph-name="uni01CF" unicode="&#x1cf;" horiz-adv-x="298" 
d="M331 926v-12l-117 -133h-130l-117 133v12h101l83 -76l82 76h98zM80 724h138v-724h-138v724z" />
    <glyph glyph-name="uni01D0" unicode="&#x1d0;" horiz-adv-x="284" 
d="M74 546h136v-546h-136v546zM306 784v-10l-102 -159h-124l-102 159v10h95l70 -88l71 88h92z" />
    <glyph glyph-name="uni01D1" unicode="&#x1d1;" horiz-adv-x="716" 
d="M293 781l-117 133v12h101l83 -76l82 76h98v-12l-117 -133h-130zM588.5 642.5c53 -63 79.5 -156.5 79.5 -280.5s-26.5 -217.5 -79.5 -280.5s-129.833 -94.5 -230.5 -94.5s-177.5 31.5 -230.5 94.5s-79.5 156.5 -79.5 280.5s26.5 217.5 79.5 280.5s129.833 94.5 230.5 94.5
s177.5 -31.5 230.5 -94.5zM526 362c0 168 -56 252 -168 252s-168 -84 -168 -252s56 -252 168 -252s168 84 168 252z" />
    <glyph glyph-name="uni01D2" unicode="&#x1d2;" horiz-adv-x="563" 
d="M101.5 59c-41.667 48 -62.5 119.333 -62.5 214c0 94 21 165.167 63 213.5s102 72.5 180 72.5s137.833 -24 179.5 -72s62.5 -119.333 62.5 -214c0 -94 -21 -165.167 -63 -213.5s-102 -72.5 -180 -72.5s-137.833 24 -179.5 72zM385 273c0 110 -34.333 165 -103 165
c-69.333 0 -104 -55 -104 -165s34.333 -165 103 -165c69.333 0 104 55 104 165zM446 784v-10l-102 -159h-124l-102 159v10h95l70 -88l71 88h92z" />
    <glyph glyph-name="uni01D3" unicode="&#x1d3;" horiz-adv-x="688" 
d="M279 781l-117 133v12h101l83 -76l82 76h98v-12l-117 -133h-130zM615 724v-475c0 -83.333 -23.667 -147.833 -71 -193.5s-114.333 -68.5 -201 -68.5c-86 0 -152.5 22.833 -199.5 68.5s-70.5 110.167 -70.5 193.5v475h138v-465c0 -99.333 44 -149 132 -149
c89.333 0 134 49.667 134 149v465h138z" />
    <glyph glyph-name="uni01D4" unicode="&#x1d4;" horiz-adv-x="580" 
d="M508 546v-546h-123v77c-40 -60 -93.667 -90 -161 -90c-50.667 0 -89.834 15.667 -117.501 47s-41.5 75.333 -41.5 132v380h136v-360c0 -48.667 25.333 -73 76 -73c18.667 0 35.334 3.5 50.001 10.5s29.667 18.167 45 33.5v389h136zM451 784v-10l-102 -159h-124l-102 159
v10h95l70 -88l71 88h92z" />
    <glyph glyph-name="uni01D5" unicode="&#x1d5;" horiz-adv-x="688" 
d="M181 1010h328v-91h-328v91zM197.5 774.5c-12.333 12.333 -18.5 29.167 -18.5 50.5c0 22 6.16699 39 18.5 51s29.5 18 51.5 18s39.167 -6 51.5 -18s18.5 -28.667 18.5 -50c0 -22.667 -6.16699 -40 -18.5 -52s-29.5 -18 -51.5 -18s-39.167 6.16699 -51.5 18.5z
M387.5 774.501c-12.333 12.333 -18.5 29.167 -18.5 50.5c0 22 6.16699 39 18.5 51s29.5 18 51.5 18s39.167 -6 51.5 -18s18.5 -28.667 18.5 -50c0 -22.667 -6.16699 -40 -18.5 -52s-29.5 -18 -51.5 -18s-39.167 6.16699 -51.5 18.5zM143.5 55.502
c-47 45.667 -70.5 110.167 -70.5 193.5v475h138v-465c0 -99.333 44 -149 132 -149c89.333 0 134 49.667 134 149v465h138v-475c0 -83.333 -23.667 -147.833 -71 -193.5s-114.333 -68.5 -201 -68.5c-86 0 -152.5 22.833 -199.5 68.5z" />
    <glyph glyph-name="uni01D6" unicode="&#x1d6;" horiz-adv-x="580" 
d="M452 749h-328v91h328v-91zM140.5 604.5c-12.333 12.333 -18.5 29.167 -18.5 50.5c0 22 6.16699 39 18.5 51s29.5 18 51.5 18s39.167 -6 51.5 -18s18.5 -28.667 18.5 -50c0 -22.667 -6.16699 -40 -18.5 -52s-29.5 -18 -51.5 -18s-39.167 6.16699 -51.5 18.5z
M330.5 706.001c12.333 12 29.5 18.001 51.5 18.001s39.167 -6 51.5 -18s18.5 -28.667 18.5 -50c0 -22.667 -6.16699 -40 -18.5 -52s-29.5 -18 -51.5 -18s-39.167 6.16699 -51.5 18.5s-18.5 29.166 -18.5 50.499c0 22 6.16699 39 18.5 51zM508 546.002v-546h-123v77
c-40 -60 -93.667 -90 -161 -90c-50.667 0 -89.834 15.667 -117.501 47s-41.5 75.333 -41.5 132v380h136v-360c0 -48.667 25.333 -73 76 -73c18.667 0 35.334 3.5 50.001 10.5s29.667 18.167 45 33.5v389h136z" />
    <glyph glyph-name="uni01D7" unicode="&#x1d7;" horiz-adv-x="688" 
d="M296 919l73 127h119v-10l-102 -127h-90v10zM197.5 774.5c-12.333 12.333 -18.5 29.167 -18.5 50.5c0 22 6.16699 39 18.5 51s29.5 18 51.5 18s39.167 -6 51.5 -18s18.5 -28.667 18.5 -50c0 -22.667 -6.16699 -40 -18.5 -52s-29.5 -18 -51.5 -18
s-39.167 6.16699 -51.5 18.5zM387.5 774.501c-12.333 12.333 -18.5 29.167 -18.5 50.5c0 22 6.16699 39 18.5 51s29.5 18 51.5 18s39.167 -6 51.5 -18s18.5 -28.667 18.5 -50c0 -22.667 -6.16699 -40 -18.5 -52s-29.5 -18 -51.5 -18s-39.167 6.16699 -51.5 18.5z
M143.5 55.502c-47 45.667 -70.5 110.167 -70.5 193.5v475h138v-465c0 -99.333 44 -149 132 -149c89.333 0 134 49.667 134 149v465h138v-475c0 -83.333 -23.667 -147.833 -71 -193.5s-114.333 -68.5 -201 -68.5c-86 0 -152.5 22.833 -199.5 68.5z" />
    <glyph glyph-name="uni01D8" unicode="&#x1d8;" horiz-adv-x="580" 
d="M329 739h-90v10l73 127h119v-10zM140.5 604.5c-12.333 12.333 -18.5 29.167 -18.5 50.5c0 22 6.16699 39 18.5 51s29.5 18 51.5 18s39.167 -6 51.5 -18s18.5 -28.667 18.5 -50c0 -22.667 -6.16699 -40 -18.5 -52s-29.5 -18 -51.5 -18s-39.167 6.16699 -51.5 18.5z
M330.5 706.001c12.333 12 29.5 18.001 51.5 18.001s39.167 -6 51.5 -18s18.5 -28.667 18.5 -50c0 -22.667 -6.16699 -40 -18.5 -52s-29.5 -18 -51.5 -18s-39.167 6.16699 -51.5 18.5s-18.5 29.166 -18.5 50.499c0 22 6.16699 39 18.5 51zM508 546.002v-546h-123v77
c-40 -60 -93.667 -90 -161 -90c-50.667 0 -89.834 15.667 -117.501 47s-41.5 75.333 -41.5 132v380h136v-360c0 -48.667 25.333 -73 76 -73c18.667 0 35.334 3.5 50.001 10.5s29.667 18.167 45 33.5v389h136z" />
    <glyph glyph-name="uni01D9" unicode="&#x1d9;" horiz-adv-x="688" 
d="M285 915l-106 121v10h89l79 -68l78 68h86v-10l-106 -121h-120zM197.5 774.5c-12.333 12.333 -18.5 29.167 -18.5 50.5c0 22 6.16699 39 18.5 51s29.5 18 51.5 18s39.167 -6 51.5 -18s18.5 -28.667 18.5 -50c0 -22.667 -6.16699 -40 -18.5 -52s-29.5 -18 -51.5 -18
s-39.167 6.16699 -51.5 18.5zM387.5 876.001c12.333 12 29.5 18.001 51.5 18.001s39.167 -6 51.5 -18s18.5 -28.667 18.5 -50c0 -22.667 -6.16699 -40 -18.5 -52s-29.5 -18 -51.5 -18s-39.167 6.16699 -51.5 18.5s-18.5 29.166 -18.5 50.499c0 22 6.16699 39 18.5 51z
M615 724.002v-475c0 -83.333 -23.667 -147.833 -71 -193.5s-114.333 -68.5 -201 -68.5c-86 0 -152.5 22.833 -199.5 68.5s-70.5 110.167 -70.5 193.5v475h138v-465c0 -99.333 44 -149 132 -149c89.333 0 134 49.667 134 149v465h138z" />
    <glyph glyph-name="uni01DA" unicode="&#x1da;" horiz-adv-x="580" 
d="M226 732l-104 139v10h95l73 -77l72 77h92v-10l-104 -139h-124zM140.5 604.5c-12.333 12.333 -18.5 29.167 -18.5 50.5c0 22 6.16699 39 18.5 51s29.5 18 51.5 18s39.167 -6 51.5 -18s18.5 -28.667 18.5 -50c0 -22.667 -6.16699 -40 -18.5 -52s-29.5 -18 -51.5 -18
s-39.167 6.16699 -51.5 18.5zM330.5 706.001c12.333 12 29.5 18.001 51.5 18.001s39.167 -6 51.5 -18s18.5 -28.667 18.5 -50c0 -22.667 -6.16699 -40 -18.5 -52s-29.5 -18 -51.5 -18s-39.167 6.16699 -51.5 18.5s-18.5 29.166 -18.5 50.499c0 22 6.16699 39 18.5 51z
M508 546.002v-546h-123v77c-40 -60 -93.667 -90 -161 -90c-50.667 0 -89.834 15.667 -117.501 47s-41.5 75.333 -41.5 132v380h136v-360c0 -48.667 25.333 -73 76 -73c18.667 0 35.334 3.5 50.001 10.5s29.667 18.167 45 33.5v389h136z" />
    <glyph glyph-name="uni01DB" unicode="&#x1db;" horiz-adv-x="688" 
d="M208 1036v10h119l67 -127v-10h-90zM197.5 774.5c-12.333 12.333 -18.5 29.167 -18.5 50.5c0 22 6.16699 39 18.5 51s29.5 18 51.5 18s39.167 -6 51.5 -18s18.5 -28.667 18.5 -50c0 -22.667 -6.16699 -40 -18.5 -52s-29.5 -18 -51.5 -18s-39.167 6.16699 -51.5 18.5z
M387.5 774.501c-12.333 12.333 -18.5 29.167 -18.5 50.5c0 22 6.16699 39 18.5 51s29.5 18 51.5 18s39.167 -6 51.5 -18s18.5 -28.667 18.5 -50c0 -22.667 -6.16699 -40 -18.5 -52s-29.5 -18 -51.5 -18s-39.167 6.16699 -51.5 18.5zM143.5 55.502
c-47 45.667 -70.5 110.167 -70.5 193.5v475h138v-465c0 -99.333 44 -149 132 -149c89.333 0 134 49.667 134 149v465h138v-475c0 -83.333 -23.667 -147.833 -71 -193.5s-114.333 -68.5 -201 -68.5c-86 0 -152.5 22.833 -199.5 68.5z" />
    <glyph glyph-name="uni01DC" unicode="&#x1dc;" horiz-adv-x="580" 
d="M247 739l-96 127v10h119l67 -127v-10h-90zM140.5 604.5c-12.333 12.333 -18.5 29.167 -18.5 50.5c0 22 6.16699 39 18.5 51s29.5 18 51.5 18s39.167 -6 51.5 -18s18.5 -28.667 18.5 -50c0 -22.667 -6.16699 -40 -18.5 -52s-29.5 -18 -51.5 -18
s-39.167 6.16699 -51.5 18.5zM330.5 706.001c12.333 12 29.5 18.001 51.5 18.001s39.167 -6 51.5 -18s18.5 -28.667 18.5 -50c0 -22.667 -6.16699 -40 -18.5 -52s-29.5 -18 -51.5 -18s-39.167 6.16699 -51.5 18.5s-18.5 29.166 -18.5 50.499c0 22 6.16699 39 18.5 51z
M508 546.002v-546h-123v77c-40 -60 -93.667 -90 -161 -90c-50.667 0 -89.834 15.667 -117.501 47s-41.5 75.333 -41.5 132v380h136v-360c0 -48.667 25.333 -73 76 -73c18.667 0 35.334 3.5 50.001 10.5s29.667 18.167 45 33.5v389h136z" />
    <glyph glyph-name="uni01DD" unicode="&#x1dd;" horiz-adv-x="546" 
d="M441.5 483.5c45 -49.667 67.501 -119.833 67.501 -210.5s-21 -161 -63 -211s-101.667 -75 -179 -75c-74.667 0 -132.334 23 -173.001 69s-61 110.667 -61 194c0 25.333 2 47.333 6 66h332c-10.667 80 -56 120 -136 120c-44 0 -88 -10.667 -132 -32l-48 101
c26.667 16.667 57 29.667 91 39s68.667 14 104 14c82.667 0 146.5 -24.833 191.5 -74.5zM372.001 225.001h-204c1.33301 -38 10.833 -67.333 28.5 -88s42.167 -31 73.5 -31c59.333 0 93.333 39.667 102 119z" />
    <glyph glyph-name="uni01DE" unicode="&#x1de;" horiz-adv-x="670" 
d="M499 955h-328v92h328v-92zM178 791c-12.667 12.667 -19 29.666 -19 50.999c0 22.667 6.33301 40.334 19 53.001s30.334 19 53.001 19s40.5 -6.33301 53.5 -19s19.5 -30 19.5 -52c0 -22.667 -6.33301 -40.167 -19 -52.5s-30.667 -18.5 -54 -18.5
c-22.667 0 -40.334 6.33301 -53.001 19zM491.5 894.999c13 -12.667 19.5 -30.001 19.5 -52.001c0 -22.667 -6.33301 -40.167 -19 -52.5s-30.667 -18.5 -54 -18.5c-22.667 0 -40.334 6.33301 -53.001 19s-19 29.667 -19 51c0 22.667 6.33301 40.334 19 53.001
s30.334 19 53.001 19s40.5 -6.33301 53.5 -19zM463 155.998h-258l-46 -156h-144l245 724h150l245 -724h-145zM428 275.998l-94 315l-93 -315h187z" />
    <glyph glyph-name="uni01DF" unicode="&#x1df;" horiz-adv-x="536" 
d="M421 798h-328v92h328v-92zM106 633c-12.667 12.667 -19 29.666 -19 50.999c0 22.667 6.33301 40.334 19 53.001s30.334 19 53.001 19s40.5 -6.33301 53.5 -19s19.5 -30 19.5 -52c0 -22.667 -6.33301 -40.167 -19 -52.5s-30.667 -18.5 -54 -18.5
c-22.667 0 -40.334 6.33301 -53.001 19zM407.5 736.999c13 -12.667 19.5 -30.001 19.5 -52.001c0 -22.667 -6.33301 -40.167 -19 -52.5s-30.667 -18.5 -54 -18.5c-22.667 0 -40.334 6.33301 -53.001 19s-19 29.667 -19 51c0 22.667 6.33301 40.334 19 53.001
s30.334 19 53.001 19s40.5 -6.33301 53.5 -19zM416 511.998c36.667 -31.333 55 -75.3311 55 -131.998v-380h-121v80c-32.667 -60.667 -86.334 -91 -161.001 -91c-52 0 -92.167 14.333 -120.5 43s-42.5 69 -42.5 121c0 65.333 24.5 113.166 73.5 143.499
s128.167 46.166 237.5 47.499v20c0 50 -34 75 -102 75c-41.333 0 -83.666 -9.33301 -126.999 -28l-34 104c62 29.333 124 44 186 44c67.333 0 119.333 -15.667 156 -47zM337 156v98c-64 -0.666992 -110.333 -8.16699 -139 -22.5s-43 -36.833 -43 -67.5
c0 -40.667 23 -61 69 -61c43.333 0 81 17.667 113 53z" />
    <glyph glyph-name="uni01E0" unicode="&#x1e0;" horiz-adv-x="670" 
d="M499 955h-328v92h328v-92zM275.5 910.5c14.333 13.667 34.166 20.5 59.499 20.5s45.166 -6.83301 59.499 -20.5s21.5 -32.5 21.5 -56.5c0 -24.667 -7.16699 -43.834 -21.5 -57.501s-34.166 -20.5 -59.499 -20.5s-45.166 6.83301 -59.499 20.5s-21.5 32.5 -21.5 56.5
c0 24.667 7.16699 43.834 21.5 57.501zM463 156h-258l-46 -156h-144l245 724h150l245 -724h-145zM428 276l-94 315l-93 -315h187z" />
    <glyph glyph-name="uni01E1" unicode="&#x1e1;" horiz-adv-x="536" 
d="M416 512c36.667 -31.333 55 -75.3311 55 -131.998v-380h-121v80c-32.667 -60.667 -86.334 -91 -161.001 -91c-52 0 -92.167 14.333 -120.5 43s-42.5 69 -42.5 121c0 65.333 24.5 113.166 73.5 143.499s128.167 46.166 237.5 47.499v20c0 50 -34 75 -102 75
c-41.333 0 -83.666 -9.33301 -126.999 -28l-34 104c62 29.333 124 44 186 44c67.333 0 119.333 -15.667 156 -47zM337 156.002v98c-64 -0.666992 -110.333 -8.16699 -139 -22.5s-43 -36.833 -43 -67.5c0 -40.667 23 -61 69 -61c43.333 0 81 17.667 113 53zM197.5 637.502
c-14.333 13.667 -21.5 32.5 -21.5 56.5c0 24.667 7.16699 43.834 21.5 57.501s34.166 20.5 59.499 20.5s45.166 -6.83301 59.499 -20.5s21.5 -32.5 21.5 -56.5c0 -24.667 -7.16699 -43.834 -21.5 -57.501s-34.166 -20.5 -59.499 -20.5s-45.166 6.83301 -59.499 20.5z
M93 899.002h328v-92h-328v92z" />
    <glyph glyph-name="uni01E2" unicode="&#x1e2;" horiz-adv-x="932" 
d="M670 806h-328v92h328v-92zM902 123v-123h-452v147h-237l-73 -147h-146l369 724h138h387v-123h-304v-169h220v-124h-220v-185h318zM450 267v355l-177 -355h177z" />
    <glyph glyph-name="uni01E3" unicode="&#x1e3;" horiz-adv-x="828" 
d="M789 230l-325.998 0.000976562c11.333 -80 55.666 -120 132.999 -120c41.333 0 84.333 10.667 129 32l48 -101c-26.667 -16.667 -56.667 -29.667 -90 -39s-67.333 -14 -102 -14c-46.667 0 -87.334 8.66699 -122.001 26s-62.667 42.666 -84 75.999
c-28 -35.333 -57.167 -61 -87.5 -77s-64.166 -24 -101.499 -24c-50.667 0 -90 14 -118 42s-42 67.667 -42 119c0 64 24.167 110.833 72.5 140.5s125.833 45.167 232.5 46.5v27c0 50 -33 75 -99 75c-40.667 0 -82 -9.33301 -124 -28l-34 104c62 29.333 123 44 183 44
c70 0 120.667 -21.333 152 -64c18 20.667 40.333 36.5 67 47.5s56 16.5 88 16.5c73.333 0 130.166 -23 170.499 -69s60.5 -110.667 60.5 -194c0 -24.667 -2 -46.667 -6 -66zM462.002 321.001h198c-0.666992 38 -9.66699 67.333 -27 88s-41.333 31 -72 31
c-57.333 0 -90.333 -39.667 -99 -119zM341.002 168.001c-6.66699 25.333 -10.333 51.667 -11 79c-61.333 -0.666992 -105.833 -8 -133.5 -22s-41.5 -35.667 -41.5 -65c0 -38 22 -57 66 -57c45.333 0 85.333 21.667 120 65zM262.003 728.002h328v-92h-328v92z" />
    <glyph glyph-name="uni01E4" unicode="&#x1e4;" horiz-adv-x="666" 
d="M678 155l-67.999 0.00195312v-110c-27.333 -18.667 -60.5 -33 -99.5 -43s-79.5 -15 -121.5 -15c-108.667 0 -192.667 32.667 -252 98s-89 157.666 -89 276.999s29.667 211.666 89 276.999s143.333 98 252 98c42.667 0 82.667 -5 120 -15s68.666 -24 93.999 -42l-40 -110
c-62.667 29.333 -121.334 44 -176.001 44c-131.333 0 -197 -84 -197 -252s66.333 -252 199 -252c26.667 0 54.334 3.33301 83.001 10v35h-119v98h119v40h-119v122h257v-162h68v-98z" />
    <glyph glyph-name="uni01E5" unicode="&#x1e5;" horiz-adv-x="583" 
d="M581 -58h-79.999c-13.333 -52 -40.666 -92 -81.999 -120s-94.333 -42 -159 -42c-32.667 0 -64.834 3.5 -96.501 10.5s-60.167 17.167 -85.5 30.5l34 96c44.667 -19.333 89 -29 133 -29c58 0 96.333 18 115 54h-341v63h356v6v96c-32.667 -46.667 -78.334 -70 -137.001 -70
c-63.333 0 -112.333 23 -147 69s-52 109.667 -52 191c0 82 17.5 146.167 52.5 192.5s84.167 69.5 147.5 69.5c32 0 61 -6.5 87 -19.5s46.667 -31.833 62 -56.5v63h123v-524v-17h70v-63zM330.001 174c14.667 7.33301 29.6689 18.999 45.002 34.999v183
c-12.667 14.667 -27.334 25.834 -44.001 33.501s-34.334 11.5 -53.001 11.5c-33.333 0 -58.333 -11.5 -75 -34.5s-25 -56.5 -25 -100.5c0 -45.333 8.66699 -79.833 26 -103.5s43.333 -35.5 78 -35.5c17.333 0 33.333 3.66699 48 11z" />
    <glyph glyph-name="Gcaron" unicode="&#x1e6;" horiz-adv-x="668" 
d="M296 781l-117 133v12h101l83 -76l82 76h98v-12l-117 -133h-130zM610 415l0.000976562 -369.998c-27.333 -18.667 -60.5 -33 -99.5 -43s-79.5 -15 -121.5 -15c-108.667 0 -192.667 32.667 -252 98s-89 157.666 -89 276.999s29.667 211.666 89 276.999s143.333 98 252 98
c42.667 0 82.667 -5 120 -15s68.666 -24 93.999 -42l-40 -110c-62.667 29.333 -121.334 44 -176.001 44c-131.333 0 -197 -84 -197 -252s66.333 -252 199 -252c26.667 0 54.334 3.33301 83.001 10v173h-119v122h257z" />
    <glyph glyph-name="gcaron" unicode="&#x1e7;" horiz-adv-x="583" 
d="M511 546l0.00195312 -524c0 -77.333 -21.833 -137 -65.5 -179s-105.5 -63 -185.5 -63c-32.667 0 -64.834 3.5 -96.501 10.5s-60.167 17.167 -85.5 30.5l38 107c44.667 -19.333 87.667 -29 129 -29c86.667 0 130 41 130 123v65c-32.667 -46.667 -78.334 -70 -137.001 -70
c-63.333 0 -112.333 23.5 -147 70.5s-52 113.5 -52 199.5c0 86.667 17.5 153.667 52.5 201s84.167 71 147.5 71c32 0 61 -6.5 87 -19.5s46.667 -31.833 62 -56.5v63h123zM330.002 154c14.667 7.33301 29.6689 18.999 45.002 34.999v203
c-12.667 14.667 -27.334 25.834 -44.001 33.501s-34.334 11.5 -53.001 11.5c-66.667 0 -100 -48.333 -100 -145c0 -99.333 34.667 -149 104 -149c17.333 0 33.333 3.66699 48 11zM452.004 783.999v-10l-102 -159h-124l-102 159v10h95l70 -88l71 88h92z" />
    <glyph glyph-name="uni01E8" unicode="&#x1e8;" horiz-adv-x="636" 
d="M266 781l-117 133v12h101l83 -76l82 76h98v-12l-117 -133h-130zM293 301l-77 -96v-205h-138v724h138v-341l255 341h163l-254 -315l270 -409h-163z" />
    <glyph glyph-name="uni01E9" unicode="&#x1e9;" horiz-adv-x="565" 
d="M75 827l-117 133v12h101l83 -76l82 76h98v-12l-117 -133h-130zM265 215l-57 -68v-147h-136v770h136v-450l181 226h155l-193 -229l208 -317h-155z" />
    <glyph glyph-name="uni01EA" unicode="&#x1ea;" horiz-adv-x="716" 
d="M402 -102c0 -26.667 15.332 -40.002 45.999 -40.002c18 0 36.667 4.33301 56 13l30 -70c-16 -10 -34.333 -17.667 -55 -23s-41.667 -8 -63 -8c-39.333 0 -70 9 -92 27s-33 43.333 -33 76c0 42 19 80 57 114c-97.333 2 -171.666 34.5 -222.999 97.5s-77 155.5 -77 277.5
c0 124 26.5 217.5 79.5 280.5s129.833 94.5 230.5 94.5s177.5 -31.5 230.5 -94.5s79.5 -156.5 79.5 -280.5c0 -89.333 -14 -162.666 -42 -219.999s-70.333 -100.666 -127 -129.999c-64.667 -33.333 -97 -71.333 -97 -114zM357.999 109.998c112 0 168 84 168 252
s-56 252 -168 252s-168 -84 -168 -252s56 -252 168 -252z" />
    <glyph glyph-name="uni01EB" unicode="&#x1eb;" horiz-adv-x="563" 
d="M303 -102c0 -26.667 15.333 -39.999 46 -39.999c18 0 36.667 4.33301 56 13l30 -70c-16 -10 -34.333 -17.667 -55 -23s-41.667 -8 -63 -8c-39.333 0 -70 9 -92 27s-33 43.333 -33 76c0 42.667 19.667 81 59 115c-68.667 6 -121.167 33 -157.5 81s-54.5 116 -54.5 204
c0 94 21 165.167 63 213.5s102 72.5 180 72.5s137.833 -24 179.5 -72s62.5 -119.333 62.5 -214c0 -130 -40 -215.333 -120 -256c-67.333 -34.667 -101 -74.334 -101 -119.001zM281 108.001c69.333 0 104 55 104 165s-34.333 165 -103 165c-69.333 0 -104 -55 -104 -165
s34.333 -165 103 -165z" />
    <glyph glyph-name="uni01EC" unicode="&#x1ec;" horiz-adv-x="716" 
d="M522 806h-328v92h328v-92zM402 -102c0 -26.667 15.332 -40.002 45.999 -40.002c18 0 36.667 4.33301 56 13l30 -70c-16 -10 -34.333 -17.667 -55 -23s-41.667 -8 -63 -8c-39.333 0 -70 9 -92 27s-33 43.333 -33 76c0 42 19 80 57 114
c-97.333 2 -171.666 34.5 -222.999 97.5s-77 155.5 -77 277.5c0 124 26.5 217.5 79.5 280.5s129.833 94.5 230.5 94.5s177.5 -31.5 230.5 -94.5s79.5 -156.5 79.5 -280.5c0 -89.333 -14 -162.666 -42 -219.999s-70.333 -100.666 -127 -129.999
c-64.667 -33.333 -97 -71.333 -97 -114zM357.999 109.998c112 0 168 84 168 252s-56 252 -168 252s-168 -84 -168 -252s56 -252 168 -252z" />
    <glyph glyph-name="uni01ED" unicode="&#x1ed;" horiz-adv-x="563" 
d="M303 -102c0 -26.667 15.333 -39.999 46 -39.999c18 0 36.667 4.33301 56 13l30 -70c-16 -10 -34.333 -17.667 -55 -23s-41.667 -8 -63 -8c-39.333 0 -70 9 -92 27s-33 43.333 -33 76c0 42.667 19.667 81 59 115c-68.667 6 -121.167 33 -157.5 81s-54.5 116 -54.5 204
c0 94 21 165.167 63 213.5s102 72.5 180 72.5s137.833 -24 179.5 -72s62.5 -119.333 62.5 -214c0 -130 -40 -215.333 -120 -256c-67.333 -34.667 -101 -74.334 -101 -119.001zM281 108.001c69.333 0 104 55 104 165s-34.333 165 -103 165c-69.333 0 -104 -55 -104 -165
s34.333 -165 103 -165zM118 728.001h328v-92h-328v92z" />
    <glyph glyph-name="uni01EE" unicode="&#x1ee;" horiz-adv-x="597" 
d="M208 781l-117 133v12h101l83 -76l82 76h98v-12l-117 -133h-130zM561 228c0 -53.333 -13.832 -98.001 -41.499 -134.001s-64.667 -62.833 -111 -80.5s-97.5 -26.5 -153.5 -26.5c-94.667 0 -176.334 18.667 -245.001 56l49 110c66 -28 130.333 -42 193 -42
c52.667 0 93.667 10.5 123 31.5s44 50.167 44 87.5c0 42.667 -17.667 71.667 -53 87s-88.333 23 -159 23h-43v101l182 162h-301v121h470v-124l-182 -161c152 -17.333 228 -87.666 228 -210.999z" />
    <glyph glyph-name="uni01EF" unicode="&#x1ef;" horiz-adv-x="503" 
d="M422.5 167.5c37.667 -33 56.501 -83.4971 56.501 -151.497c0 -50.667 -12.5 -93.834 -37.5 -129.501s-58.333 -62.334 -100 -80.001s-87.5 -26.5 -137.5 -26.5c-38 0 -73.333 3.16699 -106 9.5s-64 17.166 -94 32.499l47 105c45.333 -22 92.666 -33 141.999 -33
c46 0 82 10.5 108 31.5s39 52.167 39 93.5c0 79.333 -57.333 119 -172 119h-50v96l167 197h-255v115h409v-115l-172 -202c66 -8 117.833 -28.5 155.5 -61.5zM394.001 784.003v-10l-102 -159h-124l-102 159v10h95l70 -88l71 88h92z" />
    <glyph glyph-name="uni01F0" unicode="&#x1f0;" horiz-adv-x="284" 
d="M-69 -112c39.333 13.333 69.166 26.832 89.499 40.499s34.333 29.834 42 48.501s11.5 44 11.5 76v493h136v-497c0 -51.333 -7 -93.333 -21 -126s-37.667 -60.167 -71 -82.5s-80.666 -43.5 -141.999 -63.5zM306 783.999v-10l-102 -159h-124l-102 159v10h95l70 -88l71 88
h92z" />
    <glyph glyph-name="uni01F1" unicode="&#x1f1;" horiz-adv-x="1228" 
d="M561.5 633c55.667 -60.667 83.5 -150.666 83.5 -269.999c0 -120.667 -27.833 -211.334 -83.5 -272.001s-136.834 -91 -243.501 -91h-240v724h240c106.667 0 187.834 -30.333 243.501 -91zM503 363.001c0 158.667 -62.667 238 -188 238h-99v-478h98c126 0 189 80 189 240z
M1193 121.001v-121h-487v122l325 481h-311v121h467v-121l-325 -482h331z" />
    <glyph glyph-name="uni01F2" unicode="&#x1f2;" horiz-adv-x="1155" 
d="M561.5 633c55.667 -60.667 83.5 -150.666 83.5 -269.999c0 -120.667 -27.833 -211.334 -83.5 -272.001s-136.834 -91 -243.501 -91h-240v724h240c106.667 0 187.834 -30.333 243.501 -91zM503 363.001c0 158.667 -62.667 238 -188 238h-99v-478h98c126 0 189 80 189 240z
M1125 115.001v-115h-414v115l256 316h-246v115h398v-115l-256 -316h262z" />
    <glyph glyph-name="uni01F3" unicode="&#x1f3;" horiz-adv-x="1053" 
d="M509 770l-0.000976562 -737.001v-33h-123v78c-34 -60.667 -84 -91 -150 -91c-62.667 0 -111.167 24.833 -145.5 74.5s-51.5 119.834 -51.5 210.501c0 91.333 17.333 162 52 212s83.334 75 146.001 75c28 0 53.667 -5 77 -15s43 -24.333 59 -43v269h136zM327.999 123.999
c14.667 7.33301 29.6689 18.999 45.002 34.999v233c-12.667 14.667 -27.334 25.834 -44.001 33.501s-34.334 11.5 -53.001 11.5c-65.333 0 -98 -53.333 -98 -160c0 -109.333 34 -164 102 -164c17.333 0 33.333 3.66699 48 11zM1023 114.998v-115h-414v115l256 316h-246v115
h398v-115l-256 -316h262z" />
    <glyph glyph-name="uni01F4" unicode="&#x1f4;" horiz-adv-x="668" 
d="M389 781h-114v12l145 133h151v-12zM610 415l0.000976562 -369.998c-27.333 -18.667 -60.5 -33 -99.5 -43s-79.5 -15 -121.5 -15c-108.667 0 -192.667 32.667 -252 98s-89 157.666 -89 276.999s29.667 211.666 89 276.999s143.333 98 252 98c42.667 0 82.667 -5 120 -15
s68.666 -24 93.999 -42l-40 -110c-62.667 29.333 -121.334 44 -176.001 44c-131.333 0 -197 -84 -197 -252s66.333 -252 199 -252c26.667 0 54.334 3.33301 83.001 10v173h-119v122h257z" />
    <glyph glyph-name="uni01F5" unicode="&#x1f5;" horiz-adv-x="583" 
d="M511 546l0.00195312 -524c0 -77.333 -21.833 -137 -65.5 -179s-105.5 -63 -185.5 -63c-32.667 0 -64.834 3.5 -96.501 10.5s-60.167 17.167 -85.5 30.5l38 107c44.667 -19.333 87.667 -29 129 -29c86.667 0 130 41 130 123v65c-32.667 -46.667 -78.334 -70 -137.001 -70
c-63.333 0 -112.333 23.5 -147 70.5s-52 113.5 -52 199.5c0 86.667 17.5 153.667 52.5 201s84.167 71 147.5 71c32 0 61 -6.5 87 -19.5s46.667 -31.833 62 -56.5v63h123zM330.002 154c14.667 7.33301 29.6689 18.999 45.002 34.999v203
c-12.667 14.667 -27.334 25.834 -44.001 33.501s-34.334 11.5 -53.001 11.5c-66.667 0 -100 -48.333 -100 -145c0 -99.333 34.667 -149 104 -149c17.333 0 33.333 3.66699 48 11zM214.004 624.999l95 159h141v-10l-132 -159h-104v10z" />
    <glyph glyph-name="uni01F6" unicode="&#x1f6;" horiz-adv-x="1011" 
d="M939 272c0 -90.667 -20 -160.834 -60 -210.501s-96.667 -74.5 -170 -74.5c-69.333 0 -123.5 18.5 -162.5 55.5s-58.5 88.833 -58.5 155.5v108h-272v-306h-138v724h138v-295h272v295h138v-513c0 -68.667 27.667 -103 83 -103c63.333 0 95 53.667 95 161
c0 49.333 -2.83301 92.833 -8.5 130.5s-16.167 86.5 -31.5 146.5h137c25.333 -95.333 38 -186.666 38 -273.999z" />
    <glyph glyph-name="uni01F7" unicode="&#x1f7;" horiz-adv-x="579" 
d="M519 674c33.333 -42 50 -101.333 50 -178c0 -46.667 -7.33301 -87.667 -22 -123s-39.167 -69.833 -73.5 -103.5s-82.833 -71.5 -145.5 -113.5l-112 -75v-288h-138v931h132v-66c42.667 52.667 98.334 79 167.001 79c61.333 0 108.666 -21 141.999 -63zM401.5 381.5
c17 27 25.5 61.167 25.5 102.5c0 84.667 -30.667 127 -92 127c-20.667 0 -40.667 -4.5 -60 -13.5s-39 -23.5 -59 -43.5v-324l92 63c45.333 32 76.5 61.5 93.5 88.5z" />
    <glyph glyph-name="uni01F8" unicode="&#x1f8;" horiz-adv-x="726" 
d="M334 781l-173 133v12h151l136 -133v-12h-114zM648 724v-724h-133l-301 491v-491h-136v724h133l301 -489v489h136z" />
    <glyph glyph-name="uni01F9" unicode="&#x1f9;" horiz-adv-x="588" 
d="M478.5 512c28.333 -31.333 42.5 -75.333 42.5 -132v-380h-136v360c0 48.667 -26.333 73 -79 73c-18 0 -34.667 -3 -50 -9s-31.333 -15.333 -48 -28v-396h-136v546h123v-69c42.667 54.667 97.334 82 164.001 82c51.333 0 91.166 -15.667 119.499 -47zM147 774v10h141
l87 -159v-10h-104z" />
    <glyph glyph-name="Aringacute" unicode="&#x1fa;" horiz-adv-x="670" 
d="M368 909h-114v12l135 125h151v-12zM463 156h-258l-46 -156h-144l226 666c-28.667 21.333 -43 52.666 -43 93.999c0 38 12 67.5 36 88.5s57.667 31.5 101 31.5s77 -10.5 101 -31.5s36 -50.5 36 -88.5c0 -41.333 -14.333 -72.666 -43 -93.999l226 -666h-145zM282 760
c0 -36 17.667 -54 53 -54s53 18 53 54s-17.667 54 -53 54s-53 -18 -53 -54zM428 276l-94 315l-93 -315h187z" />
    <glyph glyph-name="aringacute" unicode="&#x1fb;" horiz-adv-x="536" 
d="M298 875h-90v10l73 127h119v-10zM156.5 631.5c-23.667 21 -35.5 50.5 -35.5 88.5s11.833 67.5 35.5 88.5s57.167 31.5 100.5 31.5s76.833 -10.5 100.5 -31.5s35.5 -50.5 35.5 -88.5s-11.833 -67.5 -35.5 -88.5s-57.167 -31.5 -100.5 -31.5s-76.833 10.5 -100.5 31.5z
M204 720c0 -36.667 17.667 -55 53 -55s53 18.333 53 55s-17.667 55 -53 55s-53 -18.333 -53 -55zM416 512c36.667 -31.333 55 -75.3311 55 -131.998v-380h-121v80c-32.667 -60.667 -86.334 -91 -161.001 -91c-52 0 -92.167 14.333 -120.5 43s-42.5 69 -42.5 121
c0 65.333 24.5 113.166 73.5 143.499s128.167 46.166 237.5 47.499v20c0 50 -34 75 -102 75c-41.333 0 -83.666 -9.33301 -126.999 -28l-34 104c62 29.333 124 44 186 44c67.333 0 119.333 -15.667 156 -47zM337 156.002v98c-64 -0.666992 -110.333 -8.16699 -139 -22.5
s-43 -36.833 -43 -67.5c0 -40.667 23 -61 69 -61c43.333 0 81 17.667 113 53z" />
    <glyph glyph-name="AEacute" unicode="&#x1fc;" horiz-adv-x="932" 
d="M534 781h-114v12l145 133h151v-12zM902 123v-123h-452v147h-237l-73 -147h-146l369 724h138h387v-123h-304v-169h220v-124h-220v-185h318zM450 267v355l-177 -355h177z" />
    <glyph glyph-name="aeacute" unicode="&#x1fd;" horiz-adv-x="828" 
d="M789 230l-325.998 0.000976562c11.333 -80 55.666 -120 132.999 -120c41.333 0 84.333 10.667 129 32l48 -101c-26.667 -16.667 -56.667 -29.667 -90 -39s-67.333 -14 -102 -14c-46.667 0 -87.334 8.66699 -122.001 26s-62.667 42.666 -84 75.999
c-28 -35.333 -57.167 -61 -87.5 -77s-64.166 -24 -101.499 -24c-50.667 0 -90 14 -118 42s-42 67.667 -42 119c0 64 24.167 110.833 72.5 140.5s125.833 45.167 232.5 46.5v27c0 50 -33 75 -99 75c-40.667 0 -82 -9.33301 -124 -28l-34 104c62 29.333 123 44 183 44
c70 0 120.667 -21.333 152 -64c18 20.667 40.333 36.5 67 47.5s56 16.5 88 16.5c73.333 0 130.166 -23 170.499 -69s60.5 -110.667 60.5 -194c0 -24.667 -2 -46.667 -6 -66zM462.002 321.001h198c-0.666992 38 -9.66699 67.333 -27 88s-41.333 31 -72 31
c-57.333 0 -90.333 -39.667 -99 -119zM341.002 168.001c-6.66699 25.333 -10.333 51.667 -11 79c-61.333 -0.666992 -105.833 -8 -133.5 -22s-41.5 -35.667 -41.5 -65c0 -38 22 -57 66 -57c45.333 0 85.333 21.667 120 65zM352.003 625.002l95 159h141v-10l-132 -159h-104
v10z" />
    </font>
</defs>
</svg>
